<?xml version="1.0" encoding="UTF-8" standalone="no"?><svg xmlns="http://www.w3.org/2000/svg" xmlns:xlink="http://www.w3.org/1999/xlink" clip-rule="evenodd" stroke-miterlimit="4.00" viewBox="0 0 1920 1080"><desc>SVG generated by Keynote</desc><defs></defs><g transform="matrix(1.00, 0.00, -0.00, -1.00, 0.0, 1080.0)"><path d="M 0.0 1080.0 L 1920.0 1080.0 L 1920.0 0.0 L 0.0 0.0 Z M 0.0 1080.0 " fill="#000000"></path><g opacity="0.54"><g><clipPath id="clip-149"><path d="M 5.0 0.0 L 1920.0 0.0 L 1920.0 1080.0 L 5.0 1080.0 Z M 5.0 0.0 "></path></clipPath><g clip-path="url(#clip-149)"><image xlink:href="../../745EFD09-553B-4ECA-9B6E-8E74172D703F/assets/7AF8C9F9A21D048123D1BEEF714E43AE.jpeg" width="1152.00" height="767.00" transform="matrix(1.68, 0.00, -0.00, -1.69, 6.0, 1141.0)"></image></g></g></g><text xml:space="preserve" font-family="Avenir-Medium" font-size="50.0" fill="#FEFFFE" transform="matrix(1.00, 0.00, -0.00, -1.00, 193.0, 912.0)">I</text><text xml:space="preserve" font-family="Avenir-Medium" font-size="50.0" fill="#FEFFFE" transform="matrix(1.00, 0.00, -0.00, -1.00, 206.9, 912.0)"> </text><text xml:space="preserve" font-family="Avenir-Medium" font-size="50.0" fill="#FEFFFE" transform="matrix(1.00, 0.00, -0.00, -1.00, 220.8, 912.0)">l</text><text xml:space="preserve" font-family="Avenir-Medium" font-size="50.0" fill="#FEFFFE" transform="matrix(1.00, 0.00, -0.00, -1.00, 232.8, 912.0)">e</text><text xml:space="preserve" font-family="Avenir-Medium" font-size="50.0" fill="#FEFFFE" transform="matrix(1.00, 0.00, -0.00, -1.00, 260.6, 912.0)">a</text><text xml:space="preserve" font-family="Avenir-Medium" font-size="50.0" fill="#FEFFFE" transform="matrix(1.00, 0.00, -0.00, -1.00, 286.6, 912.0)">r</text><text xml:space="preserve" font-family="Avenir-Medium" font-size="50.0" fill="#FEFFFE" transform="matrix(1.00, 0.00, -0.00, -1.00, 305.1, 912.0)">n</text><text xml:space="preserve" font-family="Avenir-Medium" font-size="50.0" fill="#FEFFFE" transform="matrix(1.00, 0.00, -0.00, -1.00, 332.9, 912.0)">e</text><text xml:space="preserve" font-family="Avenir-Medium" font-size="50.0" fill="#FEFFFE" transform="matrix(1.00, 0.00, -0.00, -1.00, 360.6, 912.0)">d</text><text xml:space="preserve" font-family="Avenir-Medium" font-size="50.0" fill="#FEFFFE" transform="matrix(1.00, 0.00, -0.00, -1.00, 391.2, 912.0)"> </text><text xml:space="preserve" font-family="Avenir-Medium" font-size="50.0" fill="#FEFFFE" transform="matrix(1.00, 0.00, -0.00, -1.00, 405.1, 912.0)">t</text><text xml:space="preserve" font-family="Avenir-Medium" font-size="50.0" fill="#FEFFFE" transform="matrix(1.00, 0.00, -0.00, -1.00, 423.6, 912.0)">h</text><text xml:space="preserve" font-family="Avenir-Medium" font-size="50.0" fill="#FEFFFE" transform="matrix(1.00, 0.00, -0.00, -1.00, 451.4, 912.0)">i</text><text xml:space="preserve" font-family="Avenir-Medium" font-size="50.0" fill="#FEFFFE" transform="matrix(1.00, 0.00, -0.00, -1.00, 463.4, 912.0)">n</text><text xml:space="preserve" font-family="Avenir-Medium" font-size="50.0" fill="#FEFFFE" transform="matrix(1.00, 0.00, -0.00, -1.00, 491.2, 912.0)">g</text><text xml:space="preserve" font-family="Avenir-Medium" font-size="50.0" fill="#FEFFFE" transform="matrix(1.00, 0.00, -0.00, -1.00, 521.8, 912.0)">s</text><text xml:space="preserve" font-family="Avenir-Medium" font-size="50.0" fill="#FEFFFE" transform="matrix(1.00, 0.00, -0.00, -1.00, 544.0, 912.0)"> </text><text xml:space="preserve" font-family="Avenir-Medium" font-size="50.0" fill="#FEFFFE" transform="matrix(1.00, 0.00, -0.00, -1.00, 557.9, 912.0)">a</text><text xml:space="preserve" font-family="Avenir-Medium" font-size="50.0" fill="#FEFFFE" transform="matrix(1.00, 0.00, -0.00, -1.00, 583.8, 912.0)">b</text><text xml:space="preserve" font-family="Avenir-Medium" font-size="50.0" fill="#FEFFFE" transform="matrix(1.00, 0.00, -0.00, -1.00, 614.4, 912.0)">o</text><text xml:space="preserve" font-family="Avenir-Medium" font-size="50.0" fill="#FEFFFE" transform="matrix(1.00, 0.00, -0.00, -1.00, 644.0, 912.0)">u</text><text xml:space="preserve" font-family="Avenir-Medium" font-size="50.0" fill="#FEFFFE" transform="matrix(1.00, 0.00, -0.00, -1.00, 671.9, 912.0)">t</text><text xml:space="preserve" font-family="Avenir-Medium" font-size="50.0" fill="#FEFFFE" transform="matrix(1.00, 0.00, -0.00, -1.00, 690.4, 912.0)"> </text><text xml:space="preserve" font-family="Avenir-Medium" font-size="50.0" fill="#FEFFFE" transform="matrix(1.00, 0.00, -0.00, -1.00, 704.2, 912.0)">m</text><text xml:space="preserve" font-family="Avenir-Medium" font-size="50.0" fill="#FEFFFE" transform="matrix(1.00, 0.00, -0.00, -1.00, 746.9, 912.0)">y</text><text xml:space="preserve" font-family="Avenir-Medium" font-size="50.0" fill="#FEFFFE" transform="matrix(1.00, 0.00, -0.00, -1.00, 771.9, 912.0)">s</text><text xml:space="preserve" font-family="Avenir-Medium" font-size="50.0" fill="#FEFFFE" transform="matrix(1.00, 0.00, -0.00, -1.00, 794.1, 912.0)">e</text><text xml:space="preserve" font-family="Avenir-Medium" font-size="50.0" fill="#FEFFFE" transform="matrix(1.00, 0.00, -0.00, -1.00, 821.9, 912.0)">l</text><text xml:space="preserve" font-family="Avenir-Medium" font-size="50.0" fill="#FEFFFE" transform="matrix(1.00, 0.00, -0.00, -1.00, 833.9, 912.0)">f</text><text xml:space="preserve" font-family="Avenir-Medium" font-size="50.0" fill="#FEFFFE" transform="matrix(1.00, 0.00, -0.00, -1.00, 850.5, 912.0)"> </text><text xml:space="preserve" font-family="Avenir-Medium" font-size="50.0" fill="#FEFFFE" transform="matrix(1.00, 0.00, -0.00, -1.00, 864.4, 912.0)">I</text><text xml:space="preserve" font-family="Avenir-Medium" font-size="50.0" fill="#FEFFFE" transform="matrix(1.00, 0.00, -0.00, -1.00, 878.3, 912.0)"> </text><text xml:space="preserve" font-family="Avenir-Medium" font-size="50.0" fill="#FEFFFE" transform="matrix(1.00, 0.00, -0.00, -1.00, 281.0, 844.0)">n</text><text xml:space="preserve" font-family="Avenir-Medium" font-size="50.0" fill="#FEFFFE" transform="matrix(1.00, 0.00, -0.00, -1.00, 308.8, 844.0)">e</text><text xml:space="preserve" font-family="Avenir-Medium" font-size="50.0" fill="#FEFFFE" transform="matrix(1.00, 0.00, -0.00, -1.00, 336.6, 844.0)">v</text><text xml:space="preserve" font-family="Avenir-Medium" font-size="50.0" fill="#FEFFFE" transform="matrix(1.00, 0.00, -0.00, -1.00, 361.6, 844.0)">e</text><text xml:space="preserve" font-family="Avenir-Medium" font-size="50.0" fill="#FEFFFE" transform="matrix(1.00, 0.00, -0.00, -1.00, 389.4, 844.0)">r</text><text xml:space="preserve" font-family="Avenir-Medium" font-size="50.0" fill="#FEFFFE" transform="matrix(1.00, 0.00, -0.00, -1.00, 407.9, 844.0)"> </text><text xml:space="preserve" font-family="Avenir-Medium" font-size="50.0" fill="#FEFFFE" transform="matrix(1.00, 0.00, -0.00, -1.00, 421.8, 844.0)">t</text><text xml:space="preserve" font-family="Avenir-Medium" font-size="50.0" fill="#FEFFFE" transform="matrix(1.00, 0.00, -0.00, -1.00, 440.3, 844.0)">h</text><text xml:space="preserve" font-family="Avenir-Medium" font-size="50.0" fill="#FEFFFE" transform="matrix(1.00, 0.00, -0.00, -1.00, 468.1, 844.0)">o</text><text xml:space="preserve" font-family="Avenir-Medium" font-size="50.0" fill="#FEFFFE" transform="matrix(1.00, 0.00, -0.00, -1.00, 497.8, 844.0)">u</text><text xml:space="preserve" font-family="Avenir-Medium" font-size="50.0" fill="#FEFFFE" transform="matrix(1.00, 0.00, -0.00, -1.00, 525.6, 844.0)">g</text><text xml:space="preserve" font-family="Avenir-Medium" font-size="50.0" fill="#FEFFFE" transform="matrix(1.00, 0.00, -0.00, -1.00, 556.2, 844.0)">h</text><text xml:space="preserve" font-family="Avenir-Medium" font-size="50.0" fill="#FEFFFE" transform="matrix(1.00, 0.00, -0.00, -1.00, 584.0, 844.0)">t</text><text xml:space="preserve" font-family="Avenir-Medium" font-size="50.0" fill="#FEFFFE" transform="matrix(1.00, 0.00, -0.00, -1.00, 602.5, 844.0)"> </text><text xml:space="preserve" font-family="Avenir-Medium" font-size="50.0" fill="#FEFFFE" transform="matrix(1.00, 0.00, -0.00, -1.00, 616.4, 844.0)">a</text><text xml:space="preserve" font-family="Avenir-Medium" font-size="50.0" fill="#FEFFFE" transform="matrix(1.00, 0.00, -0.00, -1.00, 642.3, 844.0)">b</text><text xml:space="preserve" font-family="Avenir-Medium" font-size="50.0" fill="#FEFFFE" transform="matrix(1.00, 0.00, -0.00, -1.00, 672.9, 844.0)">o</text><text xml:space="preserve" font-family="Avenir-Medium" font-size="50.0" fill="#FEFFFE" transform="matrix(1.00, 0.00, -0.00, -1.00, 702.5, 844.0)">u</text><text xml:space="preserve" font-family="Avenir-Medium" font-size="50.0" fill="#FEFFFE" transform="matrix(1.00, 0.00, -0.00, -1.00, 730.4, 844.0)">t</text><text xml:space="preserve" font-family="Avenir-Medium" font-size="50.0" fill="#FEFFFE" transform="matrix(1.00, 0.00, -0.00, -1.00, 748.9, 844.0)">.</text><text xml:space="preserve" font-family="Avenir-Medium" font-size="50.0" fill="#FEFFFE" transform="matrix(1.00, 0.00, -0.00, -1.00, 762.8, 844.0)"> </text><text xml:space="preserve" font-family="Avenir-Medium" font-size="50.0" fill="#FEFFFE" transform="matrix(1.00, 0.00, -0.00, -1.00, 776.6, 844.0)">I</text><text xml:space="preserve" font-family="Avenir-Medium" font-size="50.0" fill="#FEFFFE" transform="matrix(1.00, 0.00, -0.00, -1.00, 790.5, 844.0)"> </text><text xml:space="preserve" font-family="Avenir-Medium" font-size="50.0" fill="#FEFFFE" transform="matrix(1.00, 0.00, -0.00, -1.00, 191.0, 776.0)">d</text><text xml:space="preserve" font-family="Avenir-Medium" font-size="50.0" fill="#FEFFFE" transform="matrix(1.00, 0.00, -0.00, -1.00, 221.6, 776.0)">i</text><text xml:space="preserve" font-family="Avenir-Medium" font-size="50.0" fill="#FEFFFE" transform="matrix(1.00, 0.00, -0.00, -1.00, 233.6, 776.0)">s</text><text xml:space="preserve" font-family="Avenir-Medium" font-size="50.0" fill="#FEFFFE" transform="matrix(1.00, 0.00, -0.00, -1.00, 255.8, 776.0)">c</text><text xml:space="preserve" font-family="Avenir-Medium" font-size="50.0" fill="#FEFFFE" transform="matrix(1.00, 0.00, -0.00, -1.00, 279.9, 776.0)">o</text><text xml:space="preserve" font-family="Avenir-Medium" font-size="50.0" fill="#FEFFFE" transform="matrix(1.00, 0.00, -0.00, -1.00, 309.6, 776.0)">v</text><text xml:space="preserve" font-family="Avenir-Medium" font-size="50.0" fill="#FEFFFE" transform="matrix(1.00, 0.00, -0.00, -1.00, 334.6, 776.0)">e</text><text xml:space="preserve" font-family="Avenir-Medium" font-size="50.0" fill="#FEFFFE" transform="matrix(1.00, 0.00, -0.00, -1.00, 362.4, 776.0)">r</text><text xml:space="preserve" font-family="Avenir-Medium" font-size="50.0" fill="#FEFFFE" transform="matrix(1.00, 0.00, -0.00, -1.00, 380.0, 776.0)">e</text><text xml:space="preserve" font-family="Avenir-Medium" font-size="50.0" fill="#FEFFFE" transform="matrix(1.00, 0.00, -0.00, -1.00, 407.8, 776.0)">d</text><text xml:space="preserve" font-family="Avenir-Medium" font-size="50.0" fill="#FEFFFE" transform="matrix(1.00, 0.00, -0.00, -1.00, 438.3, 776.0)"> </text><text xml:space="preserve" font-family="Avenir-Medium" font-size="50.0" fill="#FEFFFE" transform="matrix(1.00, 0.00, -0.00, -1.00, 452.2, 776.0)">t</text><text xml:space="preserve" font-family="Avenir-Medium" font-size="50.0" fill="#FEFFFE" transform="matrix(1.00, 0.00, -0.00, -1.00, 470.7, 776.0)">h</text><text xml:space="preserve" font-family="Avenir-Medium" font-size="50.0" fill="#FEFFFE" transform="matrix(1.00, 0.00, -0.00, -1.00, 498.5, 776.0)">a</text><text xml:space="preserve" font-family="Avenir-Medium" font-size="50.0" fill="#FEFFFE" transform="matrix(1.00, 0.00, -0.00, -1.00, 524.5, 776.0)">t</text><text xml:space="preserve" font-family="Avenir-Medium" font-size="50.0" fill="#FEFFFE" transform="matrix(1.00, 0.00, -0.00, -1.00, 543.0, 776.0)"> </text><text xml:space="preserve" font-family="Avenir-Medium" font-size="50.0" fill="#FEFFFE" transform="matrix(1.00, 0.00, -0.00, -1.00, 556.9, 776.0)">b</text><text xml:space="preserve" font-family="Avenir-Medium" font-size="50.0" fill="#FEFFFE" transform="matrix(1.00, 0.00, -0.00, -1.00, 587.4, 776.0)">e</text><text xml:space="preserve" font-family="Avenir-Medium" font-size="50.0" fill="#FEFFFE" transform="matrix(1.00, 0.00, -0.00, -1.00, 615.2, 776.0)">i</text><text xml:space="preserve" font-family="Avenir-Medium" font-size="50.0" fill="#FEFFFE" transform="matrix(1.00, 0.00, -0.00, -1.00, 627.2, 776.0)">n</text><text xml:space="preserve" font-family="Avenir-Medium" font-size="50.0" fill="#FEFFFE" transform="matrix(1.00, 0.00, -0.00, -1.00, 655.0, 776.0)">g</text><text xml:space="preserve" font-family="Avenir-Medium" font-size="50.0" fill="#FEFFFE" transform="matrix(1.00, 0.00, -0.00, -1.00, 685.6, 776.0)"> </text><text xml:space="preserve" font-family="Avenir-Medium" font-size="50.0" fill="#FEFFFE" transform="matrix(1.00, 0.00, -0.00, -1.00, 699.5, 776.0)">a</text><text xml:space="preserve" font-family="Avenir-Medium" font-size="50.0" fill="#FEFFFE" transform="matrix(1.00, 0.00, -0.00, -1.00, 725.4, 776.0)"> </text><text xml:space="preserve" font-family="Avenir-Medium" font-size="50.0" fill="#FEFFFE" transform="matrix(1.00, 0.00, -0.00, -1.00, 739.3, 776.0)">g</text><text xml:space="preserve" font-family="Avenir-Medium" font-size="50.0" fill="#FEFFFE" transform="matrix(1.00, 0.00, -0.00, -1.00, 769.9, 776.0)">l</text><text xml:space="preserve" font-family="Avenir-Medium" font-size="50.0" fill="#FEFFFE" transform="matrix(1.00, 0.00, -0.00, -1.00, 781.9, 776.0)">o</text><text xml:space="preserve" font-family="Avenir-Medium" font-size="50.0" fill="#FEFFFE" transform="matrix(1.00, 0.00, -0.00, -1.00, 811.6, 776.0)">b</text><text xml:space="preserve" font-family="Avenir-Medium" font-size="50.0" fill="#FEFFFE" transform="matrix(1.00, 0.00, -0.00, -1.00, 842.1, 776.0)">a</text><text xml:space="preserve" font-family="Avenir-Medium" font-size="50.0" fill="#FEFFFE" transform="matrix(1.00, 0.00, -0.00, -1.00, 868.1, 776.0)">l</text><text xml:space="preserve" font-family="Avenir-Medium" font-size="50.0" fill="#FEFFFE" transform="matrix(1.00, 0.00, -0.00, -1.00, 880.1, 776.0)"> </text><text xml:space="preserve" font-family="Avenir-Medium" font-size="50.0" fill="#FEFFFE" transform="matrix(1.00, 0.00, -0.00, -1.00, 191.0, 708.0)">l</text><text xml:space="preserve" font-family="Avenir-Medium" font-size="50.0" fill="#FEFFFE" transform="matrix(1.00, 0.00, -0.00, -1.00, 203.0, 708.0)">e</text><text xml:space="preserve" font-family="Avenir-Medium" font-size="50.0" fill="#FEFFFE" transform="matrix(1.00, 0.00, -0.00, -1.00, 230.8, 708.0)">a</text><text xml:space="preserve" font-family="Avenir-Medium" font-size="50.0" fill="#FEFFFE" transform="matrix(1.00, 0.00, -0.00, -1.00, 256.8, 708.0)">d</text><text xml:space="preserve" font-family="Avenir-Medium" font-size="50.0" fill="#FEFFFE" transform="matrix(1.00, 0.00, -0.00, -1.00, 287.3, 708.0)">e</text><text xml:space="preserve" font-family="Avenir-Medium" font-size="50.0" fill="#FEFFFE" transform="matrix(1.00, 0.00, -0.00, -1.00, 315.1, 708.0)">r</text><text xml:space="preserve" font-family="Avenir-Medium" font-size="50.0" fill="#FEFFFE" transform="matrix(1.00, 0.00, -0.00, -1.00, 333.6, 708.0)"> </text><text xml:space="preserve" font-family="Avenir-Medium" font-size="50.0" fill="#FEFFFE" transform="matrix(1.00, 0.00, -0.00, -1.00, 347.5, 708.0)">g</text><text xml:space="preserve" font-family="Avenir-Medium" font-size="50.0" fill="#FEFFFE" transform="matrix(1.00, 0.00, -0.00, -1.00, 378.1, 708.0)">o</text><text xml:space="preserve" font-family="Avenir-Medium" font-size="50.0" fill="#FEFFFE" transform="matrix(1.00, 0.00, -0.00, -1.00, 407.8, 708.0)">e</text><text xml:space="preserve" font-family="Avenir-Medium" font-size="50.0" fill="#FEFFFE" transform="matrix(1.00, 0.00, -0.00, -1.00, 435.6, 708.0)">s</text><text xml:space="preserve" font-family="Avenir-Medium" font-size="50.0" fill="#FEFFFE" transform="matrix(1.00, 0.00, -0.00, -1.00, 457.8, 708.0)"> </text><text xml:space="preserve" font-family="Avenir-Medium" font-size="50.0" fill="#FEFFFE" transform="matrix(1.00, 0.00, -0.00, -1.00, 471.6, 708.0)">b</text><text xml:space="preserve" font-family="Avenir-Medium" font-size="50.0" fill="#FEFFFE" transform="matrix(1.00, 0.00, -0.00, -1.00, 502.2, 708.0)">e</text><text xml:space="preserve" font-family="Avenir-Medium" font-size="50.0" fill="#FEFFFE" transform="matrix(1.00, 0.00, -0.00, -1.00, 530.0, 708.0)">y</text><text xml:space="preserve" font-family="Avenir-Medium" font-size="50.0" fill="#FEFFFE" transform="matrix(1.00, 0.00, -0.00, -1.00, 555.0, 708.0)">o</text><text xml:space="preserve" font-family="Avenir-Medium" font-size="50.0" fill="#FEFFFE" transform="matrix(1.00, 0.00, -0.00, -1.00, 584.7, 708.0)">n</text><text xml:space="preserve" font-family="Avenir-Medium" font-size="50.0" fill="#FEFFFE" transform="matrix(1.00, 0.00, -0.00, -1.00, 612.5, 708.0)">d</text><text xml:space="preserve" font-family="Avenir-Medium" font-size="50.0" fill="#FEFFFE" transform="matrix(1.00, 0.00, -0.00, -1.00, 643.0, 708.0)"> </text><text xml:space="preserve" font-family="Avenir-Medium" font-size="50.0" fill="#FEFFFE" transform="matrix(1.00, 0.00, -0.00, -1.00, 657.0, 708.0)">b</text><text xml:space="preserve" font-family="Avenir-Medium" font-size="50.0" fill="#FEFFFE" transform="matrix(1.00, 0.00, -0.00, -1.00, 687.5, 708.0)">e</text><text xml:space="preserve" font-family="Avenir-Medium" font-size="50.0" fill="#FEFFFE" transform="matrix(1.00, 0.00, -0.00, -1.00, 715.3, 708.0)">i</text><text xml:space="preserve" font-family="Avenir-Medium" font-size="50.0" fill="#FEFFFE" transform="matrix(1.00, 0.00, -0.00, -1.00, 727.3, 708.0)">n</text><text xml:space="preserve" font-family="Avenir-Medium" font-size="50.0" fill="#FEFFFE" transform="matrix(1.00, 0.00, -0.00, -1.00, 755.1, 708.0)">g</text><text xml:space="preserve" font-family="Avenir-Medium" font-size="50.0" fill="#FEFFFE" transform="matrix(1.00, 0.00, -0.00, -1.00, 785.6, 708.0)"> </text><text xml:space="preserve" font-family="Avenir-Medium" font-size="50.0" fill="#FEFFFE" transform="matrix(1.00, 0.00, -0.00, -1.00, 799.5, 708.0)">i</text><text xml:space="preserve" font-family="Avenir-Medium" font-size="50.0" fill="#FEFFFE" transform="matrix(1.00, 0.00, -0.00, -1.00, 811.5, 708.0)">n</text><text xml:space="preserve" font-family="Avenir-Medium" font-size="50.0" fill="#FEFFFE" transform="matrix(1.00, 0.00, -0.00, -1.00, 839.3, 708.0)"> </text><text xml:space="preserve" font-family="Avenir-Medium" font-size="50.0" fill="#FEFFFE" transform="matrix(1.00, 0.00, -0.00, -1.00, 853.2, 708.0)">a</text><text xml:space="preserve" font-family="Avenir-Medium" font-size="50.0" fill="#FEFFFE" transform="matrix(1.00, 0.00, -0.00, -1.00, 879.2, 708.0)"> </text><text xml:space="preserve" font-family="Avenir-Medium" font-size="50.0" fill="#FEFFFE" transform="matrix(1.00, 0.00, -0.00, -1.00, 212.0, 640.0)">p</text><text xml:space="preserve" font-family="Avenir-Medium" font-size="50.0" fill="#FEFFFE" transform="matrix(1.00, 0.00, -0.00, -1.00, 242.6, 640.0)">o</text><text xml:space="preserve" font-family="Avenir-Medium" font-size="50.0" fill="#FEFFFE" transform="matrix(1.00, 0.00, -0.00, -1.00, 272.2, 640.0)">s</text><text xml:space="preserve" font-family="Avenir-Medium" font-size="50.0" fill="#FEFFFE" transform="matrix(1.00, 0.00, -0.00, -1.00, 294.4, 640.0)">i</text><text xml:space="preserve" font-family="Avenir-Medium" font-size="50.0" fill="#FEFFFE" transform="matrix(1.00, 0.00, -0.00, -1.00, 306.4, 640.0)">t</text><text xml:space="preserve" font-family="Avenir-Medium" font-size="50.0" fill="#FEFFFE" transform="matrix(1.00, 0.00, -0.00, -1.00, 324.9, 640.0)">i</text><text xml:space="preserve" font-family="Avenir-Medium" font-size="50.0" fill="#FEFFFE" transform="matrix(1.00, 0.00, -0.00, -1.00, 336.9, 640.0)">o</text><text xml:space="preserve" font-family="Avenir-Medium" font-size="50.0" fill="#FEFFFE" transform="matrix(1.00, 0.00, -0.00, -1.00, 366.6, 640.0)">n</text><text xml:space="preserve" font-family="Avenir-Medium" font-size="50.0" fill="#FEFFFE" transform="matrix(1.00, 0.00, -0.00, -1.00, 394.5, 640.0)"> </text><text xml:space="preserve" font-family="Avenir-Medium" font-size="50.0" fill="#FEFFFE" transform="matrix(1.00, 0.00, -0.00, -1.00, 408.4, 640.0)">o</text><text xml:space="preserve" font-family="Avenir-Medium" font-size="50.0" fill="#FEFFFE" transform="matrix(1.00, 0.00, -0.00, -1.00, 438.1, 640.0)">f</text><text xml:space="preserve" font-family="Avenir-Medium" font-size="50.0" fill="#FEFFFE" transform="matrix(1.00, 0.00, -0.00, -1.00, 454.7, 640.0)"> </text><text xml:space="preserve" font-family="Avenir-Medium" font-size="50.0" fill="#FEFFFE" transform="matrix(1.00, 0.00, -0.00, -1.00, 468.6, 640.0)">p</text><text xml:space="preserve" font-family="Avenir-Medium" font-size="50.0" fill="#FEFFFE" transform="matrix(1.00, 0.00, -0.00, -1.00, 499.2, 640.0)">o</text><text xml:space="preserve" font-family="Avenir-Medium" font-size="50.0" fill="#FEFFFE" transform="matrix(1.00, 0.00, -0.00, -1.00, 528.9, 640.0)">w</text><text xml:space="preserve" font-family="Avenir-Medium" font-size="50.0" fill="#FEFFFE" transform="matrix(1.00, 0.00, -0.00, -1.00, 566.8, 640.0)">e</text><text xml:space="preserve" font-family="Avenir-Medium" font-size="50.0" fill="#FEFFFE" transform="matrix(1.00, 0.00, -0.00, -1.00, 594.6, 640.0)">r</text><text xml:space="preserve" font-family="Avenir-Medium" font-size="50.0" fill="#FEFFFE" transform="matrix(1.00, 0.00, -0.00, -1.00, 608.5, 640.0)">,</text><text xml:space="preserve" font-family="Avenir-Medium" font-size="50.0" fill="#FEFFFE" transform="matrix(1.00, 0.00, -0.00, -1.00, 622.4, 640.0)"> </text><text xml:space="preserve" font-family="Avenir-Medium" font-size="50.0" fill="#FEFFFE" transform="matrix(1.00, 0.00, -0.00, -1.00, 636.3, 640.0)">b</text><text xml:space="preserve" font-family="Avenir-Medium" font-size="50.0" fill="#FEFFFE" transform="matrix(1.00, 0.00, -0.00, -1.00, 666.8, 640.0)">u</text><text xml:space="preserve" font-family="Avenir-Medium" font-size="50.0" fill="#FEFFFE" transform="matrix(1.00, 0.00, -0.00, -1.00, 694.6, 640.0)">t</text><text xml:space="preserve" font-family="Avenir-Medium" font-size="50.0" fill="#FEFFFE" transform="matrix(1.00, 0.00, -0.00, -1.00, 713.1, 640.0)"> </text><text xml:space="preserve" font-family="Avenir-Medium" font-size="50.0" fill="#FEFFFE" transform="matrix(1.00, 0.00, -0.00, -1.00, 727.0, 640.0)">a</text><text xml:space="preserve" font-family="Avenir-Medium" font-size="50.0" fill="#FEFFFE" transform="matrix(1.00, 0.00, -0.00, -1.00, 753.0, 640.0)">b</text><text xml:space="preserve" font-family="Avenir-Medium" font-size="50.0" fill="#FEFFFE" transform="matrix(1.00, 0.00, -0.00, -1.00, 783.5, 640.0)">o</text><text xml:space="preserve" font-family="Avenir-Medium" font-size="50.0" fill="#FEFFFE" transform="matrix(1.00, 0.00, -0.00, -1.00, 813.2, 640.0)">u</text><text xml:space="preserve" font-family="Avenir-Medium" font-size="50.0" fill="#FEFFFE" transform="matrix(1.00, 0.00, -0.00, -1.00, 841.0, 640.0)">t</text><text xml:space="preserve" font-family="Avenir-Medium" font-size="50.0" fill="#FEFFFE" transform="matrix(1.00, 0.00, -0.00, -1.00, 859.5, 640.0)"> </text><text xml:space="preserve" font-family="Avenir-Medium" font-size="50.0" fill="#FEFFFE" transform="matrix(1.00, 0.00, -0.00, -1.00, 247.0, 572.0)">k</text><text xml:space="preserve" font-family="Avenir-Medium" font-size="50.0" fill="#FEFFFE" transform="matrix(1.00, 0.00, -0.00, -1.00, 272.9, 572.0)">n</text><text xml:space="preserve" font-family="Avenir-Medium" font-size="50.0" fill="#FEFFFE" transform="matrix(1.00, 0.00, -0.00, -1.00, 300.8, 572.0)">o</text><text xml:space="preserve" font-family="Avenir-Medium" font-size="50.0" fill="#FEFFFE" transform="matrix(1.00, 0.00, -0.00, -1.00, 330.4, 572.0)">w</text><text xml:space="preserve" font-family="Avenir-Medium" font-size="50.0" fill="#FEFFFE" transform="matrix(1.00, 0.00, -0.00, -1.00, 368.4, 572.0)">i</text><text xml:space="preserve" font-family="Avenir-Medium" font-size="50.0" fill="#FEFFFE" transform="matrix(1.00, 0.00, -0.00, -1.00, 380.4, 572.0)">n</text><text xml:space="preserve" font-family="Avenir-Medium" font-size="50.0" fill="#FEFFFE" transform="matrix(1.00, 0.00, -0.00, -1.00, 408.2, 572.0)">g</text><text xml:space="preserve" font-family="Avenir-Medium" font-size="50.0" fill="#FEFFFE" transform="matrix(1.00, 0.00, -0.00, -1.00, 438.8, 572.0)"> </text><text xml:space="preserve" font-family="Avenir-Medium" font-size="50.0" fill="#FEFFFE" transform="matrix(1.00, 0.00, -0.00, -1.00, 452.7, 572.0)">y</text><text xml:space="preserve" font-family="Avenir-Medium" font-size="50.0" fill="#FEFFFE" transform="matrix(1.00, 0.00, -0.00, -1.00, 477.7, 572.0)">o</text><text xml:space="preserve" font-family="Avenir-Medium" font-size="50.0" fill="#FEFFFE" transform="matrix(1.00, 0.00, -0.00, -1.00, 507.4, 572.0)">u</text><text xml:space="preserve" font-family="Avenir-Medium" font-size="50.0" fill="#FEFFFE" transform="matrix(1.00, 0.00, -0.00, -1.00, 535.2, 572.0)">r</text><text xml:space="preserve" font-family="Avenir-Medium" font-size="50.0" fill="#FEFFFE" transform="matrix(1.00, 0.00, -0.00, -1.00, 553.7, 572.0)">s</text><text xml:space="preserve" font-family="Avenir-Medium" font-size="50.0" fill="#FEFFFE" transform="matrix(1.00, 0.00, -0.00, -1.00, 575.9, 572.0)">e</text><text xml:space="preserve" font-family="Avenir-Medium" font-size="50.0" fill="#FEFFFE" transform="matrix(1.00, 0.00, -0.00, -1.00, 603.7, 572.0)">l</text><text xml:space="preserve" font-family="Avenir-Medium" font-size="50.0" fill="#FEFFFE" transform="matrix(1.00, 0.00, -0.00, -1.00, 615.7, 572.0)">f</text><text xml:space="preserve" font-family="Avenir-Medium" font-size="50.0" fill="#FEFFFE" transform="matrix(1.00, 0.00, -0.00, -1.00, 632.3, 572.0)">,</text><text xml:space="preserve" font-family="Avenir-Medium" font-size="50.0" fill="#FEFFFE" transform="matrix(1.00, 0.00, -0.00, -1.00, 646.2, 572.0)"> </text><text xml:space="preserve" font-family="Avenir-Medium" font-size="50.0" fill="#FEFFFE" transform="matrix(1.00, 0.00, -0.00, -1.00, 660.1, 572.0)"> </text><text xml:space="preserve" font-family="Avenir-Medium" font-size="50.0" fill="#FEFFFE" transform="matrix(1.00, 0.00, -0.00, -1.00, 674.0, 572.0)">h</text><text xml:space="preserve" font-family="Avenir-Medium" font-size="50.0" fill="#FEFFFE" transform="matrix(1.00, 0.00, -0.00, -1.00, 701.8, 572.0)">a</text><text xml:space="preserve" font-family="Avenir-Medium" font-size="50.0" fill="#FEFFFE" transform="matrix(1.00, 0.00, -0.00, -1.00, 727.8, 572.0)">v</text><text xml:space="preserve" font-family="Avenir-Medium" font-size="50.0" fill="#FEFFFE" transform="matrix(1.00, 0.00, -0.00, -1.00, 752.8, 572.0)">i</text><text xml:space="preserve" font-family="Avenir-Medium" font-size="50.0" fill="#FEFFFE" transform="matrix(1.00, 0.00, -0.00, -1.00, 764.8, 572.0)">n</text><text xml:space="preserve" font-family="Avenir-Medium" font-size="50.0" fill="#FEFFFE" transform="matrix(1.00, 0.00, -0.00, -1.00, 792.5, 572.0)">g</text><text xml:space="preserve" font-family="Avenir-Medium" font-size="50.0" fill="#FEFFFE" transform="matrix(1.00, 0.00, -0.00, -1.00, 823.1, 572.0)"> </text><text xml:space="preserve" font-family="Avenir-Medium" font-size="50.0" fill="#FEFFFE" transform="matrix(1.00, 0.00, -0.00, -1.00, 207.0, 504.0)">e</text><text xml:space="preserve" font-family="Avenir-Medium" font-size="50.0" fill="#FEFFFE" transform="matrix(1.00, 0.00, -0.00, -1.00, 234.8, 504.0)">m</text><text xml:space="preserve" font-family="Avenir-Medium" font-size="50.0" fill="#FEFFFE" transform="matrix(1.00, 0.00, -0.00, -1.00, 277.4, 504.0)">p</text><text xml:space="preserve" font-family="Avenir-Medium" font-size="50.0" fill="#FEFFFE" transform="matrix(1.00, 0.00, -0.00, -1.00, 307.9, 504.0)">a</text><text xml:space="preserve" font-family="Avenir-Medium" font-size="50.0" fill="#FEFFFE" transform="matrix(1.00, 0.00, -0.00, -1.00, 333.9, 504.0)">t</text><text xml:space="preserve" font-family="Avenir-Medium" font-size="50.0" fill="#FEFFFE" transform="matrix(1.00, 0.00, -0.00, -1.00, 352.4, 504.0)">h</text><text xml:space="preserve" font-family="Avenir-Medium" font-size="50.0" fill="#FEFFFE" transform="matrix(1.00, 0.00, -0.00, -1.00, 380.2, 504.0)">y</text><text xml:space="preserve" font-family="Avenir-Medium" font-size="50.0" fill="#FEFFFE" transform="matrix(1.00, 0.00, -0.00, -1.00, 405.2, 504.0)"> </text><text xml:space="preserve" font-family="Avenir-Medium" font-size="50.0" fill="#FEFFFE" transform="matrix(1.00, 0.00, -0.00, -1.00, 419.1, 504.0)">a</text><text xml:space="preserve" font-family="Avenir-Medium" font-size="50.0" fill="#FEFFFE" transform="matrix(1.00, 0.00, -0.00, -1.00, 445.1, 504.0)">n</text><text xml:space="preserve" font-family="Avenir-Medium" font-size="50.0" fill="#FEFFFE" transform="matrix(1.00, 0.00, -0.00, -1.00, 472.9, 504.0)">d</text><text xml:space="preserve" font-family="Avenir-Medium" font-size="50.0" fill="#FEFFFE" transform="matrix(1.00, 0.00, -0.00, -1.00, 503.4, 504.0)"> </text><text xml:space="preserve" font-family="Avenir-Medium" font-size="50.0" fill="#FEFFFE" transform="matrix(1.00, 0.00, -0.00, -1.00, 517.3, 504.0)">c</text><text xml:space="preserve" font-family="Avenir-Medium" font-size="50.0" fill="#FEFFFE" transform="matrix(1.00, 0.00, -0.00, -1.00, 541.4, 504.0)">o</text><text xml:space="preserve" font-family="Avenir-Medium" font-size="50.0" fill="#FEFFFE" transform="matrix(1.00, 0.00, -0.00, -1.00, 571.1, 504.0)">m</text><text xml:space="preserve" font-family="Avenir-Medium" font-size="50.0" fill="#FEFFFE" transform="matrix(1.00, 0.00, -0.00, -1.00, 613.7, 504.0)">p</text><text xml:space="preserve" font-family="Avenir-Medium" font-size="50.0" fill="#FEFFFE" transform="matrix(1.00, 0.00, -0.00, -1.00, 644.2, 504.0)">a</text><text xml:space="preserve" font-family="Avenir-Medium" font-size="50.0" fill="#FEFFFE" transform="matrix(1.00, 0.00, -0.00, -1.00, 670.2, 504.0)">s</text><text xml:space="preserve" font-family="Avenir-Medium" font-size="50.0" fill="#FEFFFE" transform="matrix(1.00, 0.00, -0.00, -1.00, 692.4, 504.0)">s</text><text xml:space="preserve" font-family="Avenir-Medium" font-size="50.0" fill="#FEFFFE" transform="matrix(1.00, 0.00, -0.00, -1.00, 714.6, 504.0)">i</text><text xml:space="preserve" font-family="Avenir-Medium" font-size="50.0" fill="#FEFFFE" transform="matrix(1.00, 0.00, -0.00, -1.00, 726.6, 504.0)">o</text><text xml:space="preserve" font-family="Avenir-Medium" font-size="50.0" fill="#FEFFFE" transform="matrix(1.00, 0.00, -0.00, -1.00, 756.3, 504.0)">n</text><text xml:space="preserve" font-family="Avenir-Medium" font-size="50.0" fill="#FEFFFE" transform="matrix(1.00, 0.00, -0.00, -1.00, 784.1, 504.0)"> </text><text xml:space="preserve" font-family="Avenir-Medium" font-size="50.0" fill="#FEFFFE" transform="matrix(1.00, 0.00, -0.00, -1.00, 798.0, 504.0)">f</text><text xml:space="preserve" font-family="Avenir-Medium" font-size="50.0" fill="#FEFFFE" transform="matrix(1.00, 0.00, -0.00, -1.00, 814.6, 504.0)">o</text><text xml:space="preserve" font-family="Avenir-Medium" font-size="50.0" fill="#FEFFFE" transform="matrix(1.00, 0.00, -0.00, -1.00, 844.4, 504.0)">r</text><text xml:space="preserve" font-family="Avenir-Medium" font-size="50.0" fill="#FEFFFE" transform="matrix(1.00, 0.00, -0.00, -1.00, 862.9, 504.0)"> </text><text xml:space="preserve" font-family="Avenir-Medium" font-size="50.0" fill="#FEFFFE" transform="matrix(1.00, 0.00, -0.00, -1.00, 194.0, 436.0)">p</text><text xml:space="preserve" font-family="Avenir-Medium" font-size="50.0" fill="#FEFFFE" transform="matrix(1.00, 0.00, -0.00, -1.00, 224.6, 436.0)">e</text><text xml:space="preserve" font-family="Avenir-Medium" font-size="50.0" fill="#FEFFFE" transform="matrix(1.00, 0.00, -0.00, -1.00, 252.3, 436.0)">o</text><text xml:space="preserve" font-family="Avenir-Medium" font-size="50.0" fill="#FEFFFE" transform="matrix(1.00, 0.00, -0.00, -1.00, 282.1, 436.0)">p</text><text xml:space="preserve" font-family="Avenir-Medium" font-size="50.0" fill="#FEFFFE" transform="matrix(1.00, 0.00, -0.00, -1.00, 312.6, 436.0)">l</text><text xml:space="preserve" font-family="Avenir-Medium" font-size="50.0" fill="#FEFFFE" transform="matrix(1.00, 0.00, -0.00, -1.00, 324.6, 436.0)">e</text><text xml:space="preserve" font-family="Avenir-Medium" font-size="50.0" fill="#FEFFFE" transform="matrix(1.00, 0.00, -0.00, -1.00, 352.4, 436.0)"> </text><text xml:space="preserve" font-family="Avenir-Medium" font-size="50.0" fill="#FEFFFE" transform="matrix(1.00, 0.00, -0.00, -1.00, 366.3, 436.0)">w</text><text xml:space="preserve" font-family="Avenir-Medium" font-size="50.0" fill="#FEFFFE" transform="matrix(1.00, 0.00, -0.00, -1.00, 404.3, 436.0)">h</text><text xml:space="preserve" font-family="Avenir-Medium" font-size="50.0" fill="#FEFFFE" transform="matrix(1.00, 0.00, -0.00, -1.00, 432.1, 436.0)">o</text><text xml:space="preserve" font-family="Avenir-Medium" font-size="50.0" fill="#FEFFFE" transform="matrix(1.00, 0.00, -0.00, -1.00, 461.8, 436.0)"> </text><text xml:space="preserve" font-family="Avenir-Medium" font-size="50.0" fill="#FEFFFE" transform="matrix(1.00, 0.00, -0.00, -1.00, 475.7, 436.0)">a</text><text xml:space="preserve" font-family="Avenir-Medium" font-size="50.0" fill="#FEFFFE" transform="matrix(1.00, 0.00, -0.00, -1.00, 501.6, 436.0)">r</text><text xml:space="preserve" font-family="Avenir-Medium" font-size="50.0" fill="#FEFFFE" transform="matrix(1.00, 0.00, -0.00, -1.00, 519.2, 436.0)">e</text><text xml:space="preserve" font-family="Avenir-Medium" font-size="50.0" fill="#FEFFFE" transform="matrix(1.00, 0.00, -0.00, -1.00, 547.0, 436.0)"> </text><text xml:space="preserve" font-family="Avenir-Medium" font-size="50.0" fill="#FEFFFE" transform="matrix(1.00, 0.00, -0.00, -1.00, 560.9, 436.0)">d</text><text xml:space="preserve" font-family="Avenir-Medium" font-size="50.0" fill="#FEFFFE" transform="matrix(1.00, 0.00, -0.00, -1.00, 591.5, 436.0)">i</text><text xml:space="preserve" font-family="Avenir-Medium" font-size="50.0" fill="#FEFFFE" transform="matrix(1.00, 0.00, -0.00, -1.00, 603.5, 436.0)">f</text><text xml:space="preserve" font-family="Avenir-Medium" font-size="50.0" fill="#FEFFFE" transform="matrix(1.00, 0.00, -0.00, -1.00, 619.2, 436.0)">f</text><text xml:space="preserve" font-family="Avenir-Medium" font-size="50.0" fill="#FEFFFE" transform="matrix(1.00, 0.00, -0.00, -1.00, 635.9, 436.0)">e</text><text xml:space="preserve" font-family="Avenir-Medium" font-size="50.0" fill="#FEFFFE" transform="matrix(1.00, 0.00, -0.00, -1.00, 663.7, 436.0)">r</text><text xml:space="preserve" font-family="Avenir-Medium" font-size="50.0" fill="#FEFFFE" transform="matrix(1.00, 0.00, -0.00, -1.00, 681.2, 436.0)">e</text><text xml:space="preserve" font-family="Avenir-Medium" font-size="50.0" fill="#FEFFFE" transform="matrix(1.00, 0.00, -0.00, -1.00, 709.1, 436.0)">n</text><text xml:space="preserve" font-family="Avenir-Medium" font-size="50.0" fill="#FEFFFE" transform="matrix(1.00, 0.00, -0.00, -1.00, 736.9, 436.0)">t</text><text xml:space="preserve" font-family="Avenir-Medium" font-size="50.0" fill="#FEFFFE" transform="matrix(1.00, 0.00, -0.00, -1.00, 755.4, 436.0)"> </text><text xml:space="preserve" font-family="Avenir-Medium" font-size="50.0" fill="#FEFFFE" transform="matrix(1.00, 0.00, -0.00, -1.00, 769.2, 436.0)">f</text><text xml:space="preserve" font-family="Avenir-Medium" font-size="50.0" fill="#FEFFFE" transform="matrix(1.00, 0.00, -0.00, -1.00, 785.9, 436.0)">r</text><text xml:space="preserve" font-family="Avenir-Medium" font-size="50.0" fill="#FEFFFE" transform="matrix(1.00, 0.00, -0.00, -1.00, 803.5, 436.0)">o</text><text xml:space="preserve" font-family="Avenir-Medium" font-size="50.0" fill="#FEFFFE" transform="matrix(1.00, 0.00, -0.00, -1.00, 833.2, 436.0)">m</text><text xml:space="preserve" font-family="Avenir-Medium" font-size="50.0" fill="#FEFFFE" transform="matrix(1.00, 0.00, -0.00, -1.00, 875.8, 436.0)"> </text><text xml:space="preserve" font-family="Avenir-Medium" font-size="50.0" fill="#FEFFFE" transform="matrix(1.00, 0.00, -0.00, -1.00, 241.0, 368.0)">y</text><text xml:space="preserve" font-family="Avenir-Medium" font-size="50.0" fill="#FEFFFE" transform="matrix(1.00, 0.00, -0.00, -1.00, 266.0, 368.0)">o</text><text xml:space="preserve" font-family="Avenir-Medium" font-size="50.0" fill="#FEFFFE" transform="matrix(1.00, 0.00, -0.00, -1.00, 295.7, 368.0)">u</text><text xml:space="preserve" font-family="Avenir-Medium" font-size="50.0" fill="#FEFFFE" transform="matrix(1.00, 0.00, -0.00, -1.00, 323.5, 368.0)">,</text><text xml:space="preserve" font-family="Avenir-Medium" font-size="50.0" fill="#FEFFFE" transform="matrix(1.00, 0.00, -0.00, -1.00, 337.4, 368.0)"> </text><text xml:space="preserve" font-family="Avenir-Medium" font-size="50.0" fill="#FEFFFE" transform="matrix(1.00, 0.00, -0.00, -1.00, 351.3, 368.0)"> </text><text xml:space="preserve" font-family="Avenir-Medium" font-size="50.0" fill="#FEFFFE" transform="matrix(1.00, 0.00, -0.00, -1.00, 365.2, 368.0)">b</text><text xml:space="preserve" font-family="Avenir-Medium" font-size="50.0" fill="#FEFFFE" transform="matrix(1.00, 0.00, -0.00, -1.00, 395.8, 368.0)">e</text><text xml:space="preserve" font-family="Avenir-Medium" font-size="50.0" fill="#FEFFFE" transform="matrix(1.00, 0.00, -0.00, -1.00, 423.6, 368.0)">i</text><text xml:space="preserve" font-family="Avenir-Medium" font-size="50.0" fill="#FEFFFE" transform="matrix(1.00, 0.00, -0.00, -1.00, 435.6, 368.0)">n</text><text xml:space="preserve" font-family="Avenir-Medium" font-size="50.0" fill="#FEFFFE" transform="matrix(1.00, 0.00, -0.00, -1.00, 463.4, 368.0)">g</text><text xml:space="preserve" font-family="Avenir-Medium" font-size="50.0" fill="#FEFFFE" transform="matrix(1.00, 0.00, -0.00, -1.00, 493.9, 368.0)"> </text><text xml:space="preserve" font-family="Avenir-Medium" font-size="50.0" fill="#FEFFFE" transform="matrix(1.00, 0.00, -0.00, -1.00, 507.8, 368.0)">a</text><text xml:space="preserve" font-family="Avenir-Medium" font-size="50.0" fill="#FEFFFE" transform="matrix(1.00, 0.00, -0.00, -1.00, 533.8, 368.0)">u</text><text xml:space="preserve" font-family="Avenir-Medium" font-size="50.0" fill="#FEFFFE" transform="matrix(1.00, 0.00, -0.00, -1.00, 561.6, 368.0)">t</text><text xml:space="preserve" font-family="Avenir-Medium" font-size="50.0" fill="#FEFFFE" transform="matrix(1.00, 0.00, -0.00, -1.00, 580.1, 368.0)">h</text><text xml:space="preserve" font-family="Avenir-Medium" font-size="50.0" fill="#FEFFFE" transform="matrix(1.00, 0.00, -0.00, -1.00, 607.9, 368.0)">e</text><text xml:space="preserve" font-family="Avenir-Medium" font-size="50.0" fill="#FEFFFE" transform="matrix(1.00, 0.00, -0.00, -1.00, 635.7, 368.0)">n</text><text xml:space="preserve" font-family="Avenir-Medium" font-size="50.0" fill="#FEFFFE" transform="matrix(1.00, 0.00, -0.00, -1.00, 663.5, 368.0)">t</text><text xml:space="preserve" font-family="Avenir-Medium" font-size="50.0" fill="#FEFFFE" transform="matrix(1.00, 0.00, -0.00, -1.00, 682.0, 368.0)">i</text><text xml:space="preserve" font-family="Avenir-Medium" font-size="50.0" fill="#FEFFFE" transform="matrix(1.00, 0.00, -0.00, -1.00, 694.0, 368.0)">c</text><text xml:space="preserve" font-family="Avenir-Medium" font-size="50.0" fill="#FEFFFE" transform="matrix(1.00, 0.00, -0.00, -1.00, 718.1, 368.0)">,</text><text xml:space="preserve" font-family="Avenir-Medium" font-size="50.0" fill="#FEFFFE" transform="matrix(1.00, 0.00, -0.00, -1.00, 732.0, 368.0)"> </text><text xml:space="preserve" font-family="Avenir-Medium" font-size="50.0" fill="#FEFFFE" transform="matrix(1.00, 0.00, -0.00, -1.00, 745.9, 368.0)">a</text><text xml:space="preserve" font-family="Avenir-Medium" font-size="50.0" fill="#FEFFFE" transform="matrix(1.00, 0.00, -0.00, -1.00, 771.8, 368.0)">n</text><text xml:space="preserve" font-family="Avenir-Medium" font-size="50.0" fill="#FEFFFE" transform="matrix(1.00, 0.00, -0.00, -1.00, 799.6, 368.0)">d</text><text xml:space="preserve" font-family="Avenir-Medium" font-size="50.0" fill="#FEFFFE" transform="matrix(1.00, 0.00, -0.00, -1.00, 830.1, 368.0)"> </text><text xml:space="preserve" font-family="Avenir-Medium" font-size="50.0" fill="#FEFFFE" transform="matrix(1.00, 0.00, -0.00, -1.00, 197.0, 300.0)">l</text><text xml:space="preserve" font-family="Avenir-Medium" font-size="50.0" fill="#FEFFFE" transform="matrix(1.00, 0.00, -0.00, -1.00, 209.0, 300.0)">e</text><text xml:space="preserve" font-family="Avenir-Medium" font-size="50.0" fill="#FEFFFE" transform="matrix(1.00, 0.00, -0.00, -1.00, 236.8, 300.0)">a</text><text xml:space="preserve" font-family="Avenir-Medium" font-size="50.0" fill="#FEFFFE" transform="matrix(1.00, 0.00, -0.00, -1.00, 262.8, 300.0)">r</text><text xml:space="preserve" font-family="Avenir-Medium" font-size="50.0" fill="#FEFFFE" transform="matrix(1.00, 0.00, -0.00, -1.00, 281.2, 300.0)">n</text><text xml:space="preserve" font-family="Avenir-Medium" font-size="50.0" fill="#FEFFFE" transform="matrix(1.00, 0.00, -0.00, -1.00, 309.1, 300.0)">i</text><text xml:space="preserve" font-family="Avenir-Medium" font-size="50.0" fill="#FEFFFE" transform="matrix(1.00, 0.00, -0.00, -1.00, 321.1, 300.0)">n</text><text xml:space="preserve" font-family="Avenir-Medium" font-size="50.0" fill="#FEFFFE" transform="matrix(1.00, 0.00, -0.00, -1.00, 348.9, 300.0)">g</text><text xml:space="preserve" font-family="Avenir-Medium" font-size="50.0" fill="#FEFFFE" transform="matrix(1.00, 0.00, -0.00, -1.00, 379.4, 300.0)"> </text><text xml:space="preserve" font-family="Avenir-Medium" font-size="50.0" fill="#FEFFFE" transform="matrix(1.00, 0.00, -0.00, -1.00, 393.3, 300.0)">t</text><text xml:space="preserve" font-family="Avenir-Medium" font-size="50.0" fill="#FEFFFE" transform="matrix(1.00, 0.00, -0.00, -1.00, 411.8, 300.0)">o</text><text xml:space="preserve" font-family="Avenir-Medium" font-size="50.0" fill="#FEFFFE" transform="matrix(1.00, 0.00, -0.00, -1.00, 441.5, 300.0)"> </text><text xml:space="preserve" font-family="Avenir-Medium" font-size="50.0" fill="#FEFFFE" transform="matrix(1.00, 0.00, -0.00, -1.00, 455.4, 300.0)">a</text><text xml:space="preserve" font-family="Avenir-Medium" font-size="50.0" fill="#FEFFFE" transform="matrix(1.00, 0.00, -0.00, -1.00, 481.3, 300.0)">p</text><text xml:space="preserve" font-family="Avenir-Medium" font-size="50.0" fill="#FEFFFE" transform="matrix(1.00, 0.00, -0.00, -1.00, 511.9, 300.0)">p</text><text xml:space="preserve" font-family="Avenir-Medium" font-size="50.0" fill="#FEFFFE" transform="matrix(1.00, 0.00, -0.00, -1.00, 542.5, 300.0)">r</text><text xml:space="preserve" font-family="Avenir-Medium" font-size="50.0" fill="#FEFFFE" transform="matrix(1.00, 0.00, -0.00, -1.00, 560.0, 300.0)">e</text><text xml:space="preserve" font-family="Avenir-Medium" font-size="50.0" fill="#FEFFFE" transform="matrix(1.00, 0.00, -0.00, -1.00, 587.9, 300.0)">c</text><text xml:space="preserve" font-family="Avenir-Medium" font-size="50.0" fill="#FEFFFE" transform="matrix(1.00, 0.00, -0.00, -1.00, 612.0, 300.0)">i</text><text xml:space="preserve" font-family="Avenir-Medium" font-size="50.0" fill="#FEFFFE" transform="matrix(1.00, 0.00, -0.00, -1.00, 624.0, 300.0)">a</text><text xml:space="preserve" font-family="Avenir-Medium" font-size="50.0" fill="#FEFFFE" transform="matrix(1.00, 0.00, -0.00, -1.00, 649.9, 300.0)">t</text><text xml:space="preserve" font-family="Avenir-Medium" font-size="50.0" fill="#FEFFFE" transform="matrix(1.00, 0.00, -0.00, -1.00, 668.4, 300.0)">e</text><text xml:space="preserve" font-family="Avenir-Medium" font-size="50.0" fill="#FEFFFE" transform="matrix(1.00, 0.00, -0.00, -1.00, 696.2, 300.0)"> </text><text xml:space="preserve" font-family="Avenir-Medium" font-size="50.0" fill="#FEFFFE" transform="matrix(1.00, 0.00, -0.00, -1.00, 710.1, 300.0)">d</text><text xml:space="preserve" font-family="Avenir-Medium" font-size="50.0" fill="#FEFFFE" transform="matrix(1.00, 0.00, -0.00, -1.00, 740.6, 300.0)">i</text><text xml:space="preserve" font-family="Avenir-Medium" font-size="50.0" fill="#FEFFFE" transform="matrix(1.00, 0.00, -0.00, -1.00, 752.6, 300.0)">v</text><text xml:space="preserve" font-family="Avenir-Medium" font-size="50.0" fill="#FEFFFE" transform="matrix(1.00, 0.00, -0.00, -1.00, 777.6, 300.0)">e</text><text xml:space="preserve" font-family="Avenir-Medium" font-size="50.0" fill="#FEFFFE" transform="matrix(1.00, 0.00, -0.00, -1.00, 805.4, 300.0)">r</text><text xml:space="preserve" font-family="Avenir-Medium" font-size="50.0" fill="#FEFFFE" transform="matrix(1.00, 0.00, -0.00, -1.00, 823.9, 300.0)">s</text><text xml:space="preserve" font-family="Avenir-Medium" font-size="50.0" fill="#FEFFFE" transform="matrix(1.00, 0.00, -0.00, -1.00, 846.1, 300.0)">e</text><text xml:space="preserve" font-family="Avenir-Medium" font-size="50.0" fill="#FEFFFE" transform="matrix(1.00, 0.00, -0.00, -1.00, 873.9, 300.0)"> </text><text xml:space="preserve" font-family="Avenir-Medium" font-size="50.0" fill="#FEFFFE" transform="matrix(1.00, 0.00, -0.00, -1.00, 385.0, 232.0)">p</text><text xml:space="preserve" font-family="Avenir-Medium" font-size="50.0" fill="#FEFFFE" transform="matrix(1.00, 0.00, -0.00, -1.00, 415.6, 232.0)">e</text><text xml:space="preserve" font-family="Avenir-Medium" font-size="50.0" fill="#FEFFFE" transform="matrix(1.00, 0.00, -0.00, -1.00, 443.4, 232.0)">r</text><text xml:space="preserve" font-family="Avenir-Medium" font-size="50.0" fill="#FEFFFE" transform="matrix(1.00, 0.00, -0.00, -1.00, 461.9, 232.0)">s</text><text xml:space="preserve" font-family="Avenir-Medium" font-size="50.0" fill="#FEFFFE" transform="matrix(1.00, 0.00, -0.00, -1.00, 484.1, 232.0)">p</text><text xml:space="preserve" font-family="Avenir-Medium" font-size="50.0" fill="#FEFFFE" transform="matrix(1.00, 0.00, -0.00, -1.00, 514.6, 232.0)">e</text><text xml:space="preserve" font-family="Avenir-Medium" font-size="50.0" fill="#FEFFFE" transform="matrix(1.00, 0.00, -0.00, -1.00, 542.4, 232.0)">c</text><text xml:space="preserve" font-family="Avenir-Medium" font-size="50.0" fill="#FEFFFE" transform="matrix(1.00, 0.00, -0.00, -1.00, 566.5, 232.0)">t</text><text xml:space="preserve" font-family="Avenir-Medium" font-size="50.0" fill="#FEFFFE" transform="matrix(1.00, 0.00, -0.00, -1.00, 585.0, 232.0)">i</text><text xml:space="preserve" font-family="Avenir-Medium" font-size="50.0" fill="#FEFFFE" transform="matrix(1.00, 0.00, -0.00, -1.00, 597.0, 232.0)">v</text><text xml:space="preserve" font-family="Avenir-Medium" font-size="50.0" fill="#FEFFFE" transform="matrix(1.00, 0.00, -0.00, -1.00, 622.0, 232.0)">e</text><text xml:space="preserve" font-family="Avenir-Medium" font-size="50.0" fill="#FEFFFE" transform="matrix(1.00, 0.00, -0.00, -1.00, 649.8, 232.0)">s</text><text xml:space="preserve" font-family="Avenir-Medium" font-size="50.0" fill="#FEFFFE" transform="matrix(1.00, 0.00, -0.00, -1.00, 672.0, 232.0)">.</text></g></svg>