<?xml version="1.0" encoding="UTF-8" standalone="no"?><svg xmlns="http://www.w3.org/2000/svg" xmlns:xlink="http://www.w3.org/1999/xlink" clip-rule="evenodd" stroke-miterlimit="4.00" viewBox="0 0 1920 1080"><desc>SVG generated by Keynote</desc><defs></defs><g transform="matrix(1.00, 0.00, -0.00, -1.00, 0.0, 1080.0)"><path d="M 0.0 1080.0 L 1920.0 1080.0 L 1920.0 0.0 L 0.0 0.0 Z M 0.0 1080.0 " fill="#41AAC9"></path><g><clipPath id="clip-106"><path d="M -7.0 1080.0 L 953.0 1080.0 L 953.0 0.0 L -7.0 0.0 Z M -7.0 1080.0 "></path></clipPath><g clip-path="url(#clip-106)"><image xlink:href="../../3CCA258D-89A6-4A1C-B176-7D4B020D4E56/assets/685503F506E550DB83291C464504B4A2.jpeg" width="1157.00" height="769.00" transform="matrix(1.41, 0.00, -0.00, -1.40, -340.0, 1080.0)"></image></g></g><text xml:space="preserve" font-family="Avenir-Light" font-size="50.0" fill="#FEFFFF" transform="matrix(1.00, 0.00, -0.00, -1.00, 1112.0, 762.0)">T</text><text xml:space="preserve" font-family="Avenir-Light" font-size="50.0" fill="#FEFFFF" transform="matrix(1.00, 0.00, -0.00, -1.00, 1140.7, 762.0)">h</text><text xml:space="preserve" font-family="Avenir-Light" font-size="50.0" fill="#FEFFFF" transform="matrix(1.00, 0.00, -0.00, -1.00, 1168.5, 762.0)">e</text><text xml:space="preserve" font-family="Avenir-Light" font-size="50.0" fill="#FEFFFF" transform="matrix(1.00, 0.00, -0.00, -1.00, 1196.3, 762.0)"> </text><text xml:space="preserve" font-family="Avenir-Light" font-size="50.0" fill="#FEFFFF" transform="matrix(1.00, 0.00, -0.00, -1.00, 1209.3, 762.0)">e</text><text xml:space="preserve" font-family="Avenir-Light" font-size="50.0" fill="#FEFFFF" transform="matrix(1.00, 0.00, -0.00, -1.00, 1237.1, 762.0)">n</text><text xml:space="preserve" font-family="Avenir-Light" font-size="50.0" fill="#FEFFFF" transform="matrix(1.00, 0.00, -0.00, -1.00, 1264.9, 762.0)">t</text><text xml:space="preserve" font-family="Avenir-Light" font-size="50.0" fill="#FEFFFF" transform="matrix(1.00, 0.00, -0.00, -1.00, 1281.6, 762.0)">i</text><text xml:space="preserve" font-family="Avenir-Light" font-size="50.0" fill="#FEFFFF" transform="matrix(1.00, 0.00, -0.00, -1.00, 1293.6, 762.0)">r</text><text xml:space="preserve" font-family="Avenir-Light" font-size="50.0" fill="#FEFFFF" transform="matrix(1.00, 0.00, -0.00, -1.00, 1309.3, 762.0)">e</text><text xml:space="preserve" font-family="Avenir-Light" font-size="50.0" fill="#FEFFFF" transform="matrix(1.00, 0.00, -0.00, -1.00, 1337.2, 762.0)"> </text><text xml:space="preserve" font-family="Avenir-Light" font-size="50.0" fill="#FEFFFF" transform="matrix(1.00, 0.00, -0.00, -1.00, 1350.2, 762.0)">w</text><text xml:space="preserve" font-family="Avenir-Light" font-size="50.0" fill="#FEFFFF" transform="matrix(1.00, 0.00, -0.00, -1.00, 1385.3, 762.0)">e</text><text xml:space="preserve" font-family="Avenir-Light" font-size="50.0" fill="#FEFFFF" transform="matrix(1.00, 0.00, -0.00, -1.00, 1413.2, 762.0)">e</text><text xml:space="preserve" font-family="Avenir-Light" font-size="50.0" fill="#FEFFFF" transform="matrix(1.00, 0.00, -0.00, -1.00, 1441.0, 762.0)">k</text><text xml:space="preserve" font-family="Avenir-Light" font-size="50.0" fill="#FEFFFF" transform="matrix(1.00, 0.00, -0.00, -1.00, 1465.0, 762.0)"> </text><text xml:space="preserve" font-family="Avenir-Light" font-size="50.0" fill="#FEFFFF" transform="matrix(1.00, 0.00, -0.00, -1.00, 1478.0, 762.0)">w</text><text xml:space="preserve" font-family="Avenir-Light" font-size="50.0" fill="#FEFFFF" transform="matrix(1.00, 0.00, -0.00, -1.00, 1513.2, 762.0)">o</text><text xml:space="preserve" font-family="Avenir-Light" font-size="50.0" fill="#FEFFFF" transform="matrix(1.00, 0.00, -0.00, -1.00, 1542.9, 762.0)">r</text><text xml:space="preserve" font-family="Avenir-Light" font-size="50.0" fill="#FEFFFF" transform="matrix(1.00, 0.00, -0.00, -1.00, 1559.5, 762.0)">k</text><text xml:space="preserve" font-family="Avenir-Light" font-size="50.0" fill="#FEFFFF" transform="matrix(1.00, 0.00, -0.00, -1.00, 1583.6, 762.0)">e</text><text xml:space="preserve" font-family="Avenir-Light" font-size="50.0" fill="#FEFFFF" transform="matrix(1.00, 0.00, -0.00, -1.00, 1611.4, 762.0)">d</text><text xml:space="preserve" font-family="Avenir-Light" font-size="50.0" fill="#FEFFFF" transform="matrix(1.00, 0.00, -0.00, -1.00, 1641.9, 762.0)"> </text><text xml:space="preserve" font-family="Avenir-Light" font-size="50.0" fill="#FEFFFF" transform="matrix(1.00, 0.00, -0.00, -1.00, 1654.9, 762.0)">o</text><text xml:space="preserve" font-family="Avenir-Light" font-size="50.0" fill="#FEFFFF" transform="matrix(1.00, 0.00, -0.00, -1.00, 1684.7, 762.0)">n</text><text xml:space="preserve" font-family="Avenir-Light" font-size="50.0" fill="#FEFFFF" transform="matrix(1.00, 0.00, -0.00, -1.00, 1712.4, 762.0)"> </text><text xml:space="preserve" font-family="Avenir-Light" font-size="50.0" fill="#FEFFFF" transform="matrix(1.00, 0.00, -0.00, -1.00, 1725.4, 762.0)">o</text><text xml:space="preserve" font-family="Avenir-Light" font-size="50.0" fill="#FEFFFF" transform="matrix(1.00, 0.00, -0.00, -1.00, 1755.2, 762.0)">u</text><text xml:space="preserve" font-family="Avenir-Light" font-size="50.0" fill="#FEFFFF" transform="matrix(1.00, 0.00, -0.00, -1.00, 1782.9, 762.0)">r</text><text xml:space="preserve" font-family="Avenir-Light" font-size="50.0" fill="#FEFFFF" transform="matrix(1.00, 0.00, -0.00, -1.00, 1799.6, 762.0)"> </text><text xml:space="preserve" font-family="Avenir-Light" font-size="50.0" fill="#FEFFFF" transform="matrix(1.00, 0.00, -0.00, -1.00, 1112.0, 694.0)">s</text><text xml:space="preserve" font-family="Avenir-Light" font-size="50.0" fill="#FEFFFF" transform="matrix(1.00, 0.00, -0.00, -1.00, 1133.3, 694.0)">o</text><text xml:space="preserve" font-family="Avenir-Light" font-size="50.0" fill="#FEFFFF" transform="matrix(1.00, 0.00, -0.00, -1.00, 1163.0, 694.0)">l</text><text xml:space="preserve" font-family="Avenir-Light" font-size="50.0" fill="#FEFFFF" transform="matrix(1.00, 0.00, -0.00, -1.00, 1175.0, 694.0)">u</text><text xml:space="preserve" font-family="Avenir-Light" font-size="50.0" fill="#FEFFFF" transform="matrix(1.00, 0.00, -0.00, -1.00, 1202.8, 694.0)">t</text><text xml:space="preserve" font-family="Avenir-Light" font-size="50.0" fill="#FEFFFF" transform="matrix(1.00, 0.00, -0.00, -1.00, 1219.5, 694.0)">i</text><text xml:space="preserve" font-family="Avenir-Light" font-size="50.0" fill="#FEFFFF" transform="matrix(1.00, 0.00, -0.00, -1.00, 1231.5, 694.0)">o</text><text xml:space="preserve" font-family="Avenir-Light" font-size="50.0" fill="#FEFFFF" transform="matrix(1.00, 0.00, -0.00, -1.00, 1261.2, 694.0)">n</text><text xml:space="preserve" font-family="Avenir-Light" font-size="50.0" fill="#FEFFFF" transform="matrix(1.00, 0.00, -0.00, -1.00, 1289.0, 694.0)">s</text><text xml:space="preserve" font-family="Avenir-Light" font-size="50.0" fill="#FEFFFF" transform="matrix(1.00, 0.00, -0.00, -1.00, 1310.3, 694.0)"> </text><text xml:space="preserve" font-family="Avenir-Light" font-size="50.0" fill="#FEFFFF" transform="matrix(1.00, 0.00, -0.00, -1.00, 1323.3, 694.0)">I</text><text xml:space="preserve" font-family="Avenir-Light" font-size="50.0" fill="#FEFFFF" transform="matrix(1.00, 0.00, -0.00, -1.00, 1336.3, 694.0)"> </text><text xml:space="preserve" font-family="Avenir-Light" font-size="50.0" fill="#FEFFFF" transform="matrix(1.00, 0.00, -0.00, -1.00, 1349.3, 694.0)">k</text><text xml:space="preserve" font-family="Avenir-Light" font-size="50.0" fill="#FEFFFF" transform="matrix(1.00, 0.00, -0.00, -1.00, 1373.3, 694.0)">e</text><text xml:space="preserve" font-family="Avenir-Light" font-size="50.0" fill="#FEFFFF" transform="matrix(1.00, 0.00, -0.00, -1.00, 1401.2, 694.0)">p</text><text xml:space="preserve" font-family="Avenir-Light" font-size="50.0" fill="#FEFFFF" transform="matrix(1.00, 0.00, -0.00, -1.00, 1431.7, 694.0)">t</text><text xml:space="preserve" font-family="Avenir-Light" font-size="50.0" fill="#FEFFFF" transform="matrix(1.00, 0.00, -0.00, -1.00, 1448.3, 694.0)"> </text><text xml:space="preserve" font-family="Avenir-Light" font-size="50.0" fill="#FEFFFF" transform="matrix(1.00, 0.00, -0.00, -1.00, 1461.3, 694.0)">t</text><text xml:space="preserve" font-family="Avenir-Light" font-size="50.0" fill="#FEFFFF" transform="matrix(1.00, 0.00, -0.00, -1.00, 1478.0, 694.0)">h</text><text xml:space="preserve" font-family="Avenir-Light" font-size="50.0" fill="#FEFFFF" transform="matrix(1.00, 0.00, -0.00, -1.00, 1505.8, 694.0)">i</text><text xml:space="preserve" font-family="Avenir-Light" font-size="50.0" fill="#FEFFFF" transform="matrix(1.00, 0.00, -0.00, -1.00, 1517.8, 694.0)">n</text><text xml:space="preserve" font-family="Avenir-Light" font-size="50.0" fill="#FEFFFF" transform="matrix(1.00, 0.00, -0.00, -1.00, 1545.7, 694.0)">k</text><text xml:space="preserve" font-family="Avenir-Light" font-size="50.0" fill="#FEFFFF" transform="matrix(1.00, 0.00, -0.00, -1.00, 1569.7, 694.0)">i</text><text xml:space="preserve" font-family="Avenir-Light" font-size="50.0" fill="#FEFFFF" transform="matrix(1.00, 0.00, -0.00, -1.00, 1581.7, 694.0)">n</text><text xml:space="preserve" font-family="Avenir-Light" font-size="50.0" fill="#FEFFFF" transform="matrix(1.00, 0.00, -0.00, -1.00, 1609.5, 694.0)">g</text><text xml:space="preserve" font-family="Avenir-Light" font-size="50.0" fill="#FEFFFF" transform="matrix(1.00, 0.00, -0.00, -1.00, 1640.1, 694.0)"> </text><text xml:space="preserve" font-family="Avenir-Light" font-size="50.0" fill="#FEFFFF" transform="matrix(1.00, 0.00, -0.00, -1.00, 1653.1, 694.0)">a</text><text xml:space="preserve" font-family="Avenir-Light" font-size="50.0" fill="#FEFFFF" transform="matrix(1.00, 0.00, -0.00, -1.00, 1679.0, 694.0)">b</text><text xml:space="preserve" font-family="Avenir-Light" font-size="50.0" fill="#FEFFFF" transform="matrix(1.00, 0.00, -0.00, -1.00, 1709.6, 694.0)">o</text><text xml:space="preserve" font-family="Avenir-Light" font-size="50.0" fill="#FEFFFF" transform="matrix(1.00, 0.00, -0.00, -1.00, 1739.2, 694.0)">u</text><text xml:space="preserve" font-family="Avenir-Light" font-size="50.0" fill="#FEFFFF" transform="matrix(1.00, 0.00, -0.00, -1.00, 1767.1, 694.0)">t</text><text xml:space="preserve" font-family="Avenir-Light" font-size="50.0" fill="#FEFFFF" transform="matrix(1.00, 0.00, -0.00, -1.00, 1783.7, 694.0)"> </text><text xml:space="preserve" font-family="Avenir-Light" font-size="50.0" fill="#FEFFFF" transform="matrix(1.00, 0.00, -0.00, -1.00, 1112.0, 626.0)">J</text><text xml:space="preserve" font-family="Avenir-Light" font-size="50.0" fill="#FEFFFF" transform="matrix(1.00, 0.00, -0.00, -1.00, 1136.1, 626.0)">o</text><text xml:space="preserve" font-family="Avenir-Light" font-size="50.0" fill="#FEFFFF" transform="matrix(1.00, 0.00, -0.00, -1.00, 1165.8, 626.0)">a</text><text xml:space="preserve" font-family="Avenir-Light" font-size="50.0" fill="#FEFFFF" transform="matrix(1.00, 0.00, -0.00, -1.00, 1191.8, 626.0)">n</text><text xml:space="preserve" font-family="Avenir-Light" font-size="50.0" fill="#FEFFFF" transform="matrix(1.00, 0.00, -0.00, -1.00, 1219.5, 626.0)"> </text><text xml:space="preserve" font-family="Avenir-Light" font-size="50.0" fill="#FEFFFF" transform="matrix(1.00, 0.00, -0.00, -1.00, 1232.5, 626.0)">a</text><text xml:space="preserve" font-family="Avenir-Light" font-size="50.0" fill="#FEFFFF" transform="matrix(1.00, 0.00, -0.00, -1.00, 1258.5, 626.0)"> </text><text xml:space="preserve" font-family="Avenir-Light" font-size="50.0" fill="#FEFFFF" transform="matrix(1.00, 0.00, -0.00, -1.00, 1271.5, 626.0)">w</text><text xml:space="preserve" font-family="Avenir-Light" font-size="50.0" fill="#FEFFFF" transform="matrix(1.00, 0.00, -0.00, -1.00, 1306.7, 626.0)">o</text><text xml:space="preserve" font-family="Avenir-Light" font-size="50.0" fill="#FEFFFF" transform="matrix(1.00, 0.00, -0.00, -1.00, 1336.4, 626.0)">m</text><text xml:space="preserve" font-family="Avenir-Light" font-size="50.0" fill="#FEFFFF" transform="matrix(1.00, 0.00, -0.00, -1.00, 1379.0, 626.0)">a</text><text xml:space="preserve" font-family="Avenir-Light" font-size="50.0" fill="#FEFFFF" transform="matrix(1.00, 0.00, -0.00, -1.00, 1405.0, 626.0)">n</text><text xml:space="preserve" font-family="Avenir-Light" font-size="50.0" fill="#FEFFFF" transform="matrix(1.00, 0.00, -0.00, -1.00, 1432.8, 626.0)"> </text><text xml:space="preserve" font-family="Avenir-Light" font-size="50.0" fill="#FEFFFF" transform="matrix(1.00, 0.00, -0.00, -1.00, 1445.8, 626.0)">I</text><text xml:space="preserve" font-family="Avenir-Light" font-size="50.0" fill="#FEFFFF" transform="matrix(1.00, 0.00, -0.00, -1.00, 1458.8, 626.0)"> </text><text xml:space="preserve" font-family="Avenir-Light" font-size="50.0" fill="#FEFFFF" transform="matrix(1.00, 0.00, -0.00, -1.00, 1471.8, 626.0)">m</text><text xml:space="preserve" font-family="Avenir-Light" font-size="50.0" fill="#FEFFFF" transform="matrix(1.00, 0.00, -0.00, -1.00, 1514.3, 626.0)">e</text><text xml:space="preserve" font-family="Avenir-Light" font-size="50.0" fill="#FEFFFF" transform="matrix(1.00, 0.00, -0.00, -1.00, 1542.2, 626.0)">t</text><text xml:space="preserve" font-family="Avenir-Light" font-size="50.0" fill="#FEFFFF" transform="matrix(1.00, 0.00, -0.00, -1.00, 1558.8, 626.0)"> </text><text xml:space="preserve" font-family="Avenir-Light" font-size="50.0" fill="#FEFFFF" transform="matrix(1.00, 0.00, -0.00, -1.00, 1571.8, 626.0)">t</text><text xml:space="preserve" font-family="Avenir-Light" font-size="50.0" fill="#FEFFFF" transform="matrix(1.00, 0.00, -0.00, -1.00, 1588.5, 626.0)">h</text><text xml:space="preserve" font-family="Avenir-Light" font-size="50.0" fill="#FEFFFF" transform="matrix(1.00, 0.00, -0.00, -1.00, 1616.3, 626.0)">a</text><text xml:space="preserve" font-family="Avenir-Light" font-size="50.0" fill="#FEFFFF" transform="matrix(1.00, 0.00, -0.00, -1.00, 1642.2, 626.0)">t</text><text xml:space="preserve" font-family="Avenir-Light" font-size="50.0" fill="#FEFFFF" transform="matrix(1.00, 0.00, -0.00, -1.00, 1658.9, 626.0)"> </text><text xml:space="preserve" font-family="Avenir-Light" font-size="50.0" fill="#FEFFFF" transform="matrix(1.00, 0.00, -0.00, -1.00, 1112.0, 558.0)">w</text><text xml:space="preserve" font-family="Avenir-Light" font-size="50.0" fill="#FEFFFF" transform="matrix(1.00, 0.00, -0.00, -1.00, 1147.2, 558.0)">a</text><text xml:space="preserve" font-family="Avenir-Light" font-size="50.0" fill="#FEFFFF" transform="matrix(1.00, 0.00, -0.00, -1.00, 1173.2, 558.0)">n</text><text xml:space="preserve" font-family="Avenir-Light" font-size="50.0" fill="#FEFFFF" transform="matrix(1.00, 0.00, -0.00, -1.00, 1201.0, 558.0)">t</text><text xml:space="preserve" font-family="Avenir-Light" font-size="50.0" fill="#FEFFFF" transform="matrix(1.00, 0.00, -0.00, -1.00, 1217.6, 558.0)">e</text><text xml:space="preserve" font-family="Avenir-Light" font-size="50.0" fill="#FEFFFF" transform="matrix(1.00, 0.00, -0.00, -1.00, 1245.4, 558.0)">d</text><text xml:space="preserve" font-family="Avenir-Light" font-size="50.0" fill="#FEFFFF" transform="matrix(1.00, 0.00, -0.00, -1.00, 1276.0, 558.0)"> </text><text xml:space="preserve" font-family="Avenir-Light" font-size="50.0" fill="#FEFFFF" transform="matrix(1.00, 0.00, -0.00, -1.00, 1289.0, 558.0)">t</text><text xml:space="preserve" font-family="Avenir-Light" font-size="50.0" fill="#FEFFFF" transform="matrix(1.00, 0.00, -0.00, -1.00, 1305.6, 558.0)">o</text><text xml:space="preserve" font-family="Avenir-Light" font-size="50.0" fill="#FEFFFF" transform="matrix(1.00, 0.00, -0.00, -1.00, 1335.3, 558.0)"> </text><text xml:space="preserve" font-family="Avenir-Light" font-size="50.0" fill="#FEFFFF" transform="matrix(1.00, 0.00, -0.00, -1.00, 1348.3, 558.0)">f</text><text xml:space="preserve" font-family="Avenir-Light" font-size="50.0" fill="#FEFFFF" transform="matrix(1.00, 0.00, -0.00, -1.00, 1363.1, 558.0)">e</text><text xml:space="preserve" font-family="Avenir-Light" font-size="50.0" fill="#FEFFFF" transform="matrix(1.00, 0.00, -0.00, -1.00, 1390.9, 558.0)">e</text><text xml:space="preserve" font-family="Avenir-Light" font-size="50.0" fill="#FEFFFF" transform="matrix(1.00, 0.00, -0.00, -1.00, 1418.7, 558.0)">l</text><text xml:space="preserve" font-family="Avenir-Light" font-size="50.0" fill="#FEFFFF" transform="matrix(1.00, 0.00, -0.00, -1.00, 1430.7, 558.0)"> </text><text xml:space="preserve" font-family="Avenir-Light" font-size="50.0" fill="#FEFFFF" transform="matrix(1.00, 0.00, -0.00, -1.00, 1443.7, 558.0)">l</text><text xml:space="preserve" font-family="Avenir-Light" font-size="50.0" fill="#FEFFFF" transform="matrix(1.00, 0.00, -0.00, -1.00, 1455.8, 558.0)">i</text><text xml:space="preserve" font-family="Avenir-Light" font-size="50.0" fill="#FEFFFF" transform="matrix(1.00, 0.00, -0.00, -1.00, 1467.8, 558.0)">k</text><text xml:space="preserve" font-family="Avenir-Light" font-size="50.0" fill="#FEFFFF" transform="matrix(1.00, 0.00, -0.00, -1.00, 1491.8, 558.0)">e</text><text xml:space="preserve" font-family="Avenir-Light" font-size="50.0" fill="#FEFFFF" transform="matrix(1.00, 0.00, -0.00, -1.00, 1519.6, 558.0)"> </text><text xml:space="preserve" font-family="Avenir-Light" font-size="50.0" fill="#FEFFFF" transform="matrix(1.00, 0.00, -0.00, -1.00, 1532.6, 558.0)">s</text><text xml:space="preserve" font-family="Avenir-Light" font-size="50.0" fill="#FEFFFF" transform="matrix(1.00, 0.00, -0.00, -1.00, 1553.9, 558.0)">h</text><text xml:space="preserve" font-family="Avenir-Light" font-size="50.0" fill="#FEFFFF" transform="matrix(1.00, 0.00, -0.00, -1.00, 1581.7, 558.0)">e</text><text xml:space="preserve" font-family="Avenir-Light" font-size="50.0" fill="#FEFFFF" transform="matrix(1.00, 0.00, -0.00, -1.00, 1609.5, 558.0)"> </text><text xml:space="preserve" font-family="Avenir-Light" font-size="50.0" fill="#FEFFFF" transform="matrix(1.00, 0.00, -0.00, -1.00, 1622.5, 558.0)">h</text><text xml:space="preserve" font-family="Avenir-Light" font-size="50.0" fill="#FEFFFF" transform="matrix(1.00, 0.00, -0.00, -1.00, 1650.3, 558.0)">a</text><text xml:space="preserve" font-family="Avenir-Light" font-size="50.0" fill="#FEFFFF" transform="matrix(1.00, 0.00, -0.00, -1.00, 1676.2, 558.0)">d</text><text xml:space="preserve" font-family="Avenir-Light" font-size="50.0" fill="#FEFFFF" transform="matrix(1.00, 0.00, -0.00, -1.00, 1706.8, 558.0)"> </text><text xml:space="preserve" font-family="Avenir-Light" font-size="50.0" fill="#FEFFFF" transform="matrix(1.00, 0.00, -0.00, -1.00, 1719.8, 558.0)">a</text><text xml:space="preserve" font-family="Avenir-Light" font-size="50.0" fill="#FEFFFF" transform="matrix(1.00, 0.00, -0.00, -1.00, 1745.8, 558.0)"> </text><text xml:space="preserve" font-family="Avenir-Light" font-size="50.0" fill="#FEFFFF" transform="matrix(1.00, 0.00, -0.00, -1.00, 1112.0, 490.0)">v</text><text xml:space="preserve" font-family="Avenir-Light" font-size="50.0" fill="#FEFFFF" transform="matrix(1.00, 0.00, -0.00, -1.00, 1135.2, 490.0)">o</text><text xml:space="preserve" font-family="Avenir-Light" font-size="50.0" fill="#FEFFFF" transform="matrix(1.00, 0.00, -0.00, -1.00, 1164.8, 490.0)">i</text><text xml:space="preserve" font-family="Avenir-Light" font-size="50.0" fill="#FEFFFF" transform="matrix(1.00, 0.00, -0.00, -1.00, 1176.8, 490.0)">c</text><text xml:space="preserve" font-family="Avenir-Light" font-size="50.0" fill="#FEFFFF" transform="matrix(1.00, 0.00, -0.00, -1.00, 1200.9, 490.0)">e</text><text xml:space="preserve" font-family="Avenir-Light" font-size="50.0" fill="#FEFFFF" transform="matrix(1.00, 0.00, -0.00, -1.00, 1228.7, 490.0)"> </text><text xml:space="preserve" font-family="Avenir-Light" font-size="50.0" fill="#FEFFFF" transform="matrix(1.00, 0.00, -0.00, -1.00, 1241.7, 490.0)">i</text><text xml:space="preserve" font-family="Avenir-Light" font-size="50.0" fill="#FEFFFF" transform="matrix(1.00, 0.00, -0.00, -1.00, 1253.7, 490.0)">n</text><text xml:space="preserve" font-family="Avenir-Light" font-size="50.0" fill="#FEFFFF" transform="matrix(1.00, 0.00, -0.00, -1.00, 1281.5, 490.0)"> </text><text xml:space="preserve" font-family="Avenir-Light" font-size="50.0" fill="#FEFFFF" transform="matrix(1.00, 0.00, -0.00, -1.00, 1294.5, 490.0)">t</text><text xml:space="preserve" font-family="Avenir-Light" font-size="50.0" fill="#FEFFFF" transform="matrix(1.00, 0.00, -0.00, -1.00, 1311.2, 490.0)">h</text><text xml:space="preserve" font-family="Avenir-Light" font-size="50.0" fill="#FEFFFF" transform="matrix(1.00, 0.00, -0.00, -1.00, 1339.0, 490.0)">e</text><text xml:space="preserve" font-family="Avenir-Light" font-size="50.0" fill="#FEFFFF" transform="matrix(1.00, 0.00, -0.00, -1.00, 1366.8, 490.0)"> </text><text xml:space="preserve" font-family="Avenir-Light" font-size="50.0" fill="#FEFFFF" transform="matrix(1.00, 0.00, -0.00, -1.00, 1379.8, 490.0)">p</text><text xml:space="preserve" font-family="Avenir-Light" font-size="50.0" fill="#FEFFFF" transform="matrix(1.00, 0.00, -0.00, -1.00, 1410.4, 490.0)">r</text><text xml:space="preserve" font-family="Avenir-Light" font-size="50.0" fill="#FEFFFF" transform="matrix(1.00, 0.00, -0.00, -1.00, 1426.1, 490.0)">o</text><text xml:space="preserve" font-family="Avenir-Light" font-size="50.0" fill="#FEFFFF" transform="matrix(1.00, 0.00, -0.00, -1.00, 1455.8, 490.0)">g</text><text xml:space="preserve" font-family="Avenir-Light" font-size="50.0" fill="#FEFFFF" transform="matrix(1.00, 0.00, -0.00, -1.00, 1486.4, 490.0)">r</text><text xml:space="preserve" font-family="Avenir-Light" font-size="50.0" fill="#FEFFFF" transform="matrix(1.00, 0.00, -0.00, -1.00, 1503.0, 490.0)">a</text><text xml:space="preserve" font-family="Avenir-Light" font-size="50.0" fill="#FEFFFF" transform="matrix(1.00, 0.00, -0.00, -1.00, 1529.0, 490.0)">m</text><text xml:space="preserve" font-family="Avenir-Light" font-size="50.0" fill="#FEFFFF" transform="matrix(1.00, 0.00, -0.00, -1.00, 1571.6, 490.0)">s</text><text xml:space="preserve" font-family="Avenir-Light" font-size="50.0" fill="#FEFFFF" transform="matrix(1.00, 0.00, -0.00, -1.00, 1592.9, 490.0)"> </text><text xml:space="preserve" font-family="Avenir-Light" font-size="50.0" fill="#FEFFFF" transform="matrix(1.00, 0.00, -0.00, -1.00, 1605.9, 490.0)">t</text><text xml:space="preserve" font-family="Avenir-Light" font-size="50.0" fill="#FEFFFF" transform="matrix(1.00, 0.00, -0.00, -1.00, 1622.6, 490.0)">h</text><text xml:space="preserve" font-family="Avenir-Light" font-size="50.0" fill="#FEFFFF" transform="matrix(1.00, 0.00, -0.00, -1.00, 1650.3, 490.0)">e</text><text xml:space="preserve" font-family="Avenir-Light" font-size="50.0" fill="#FEFFFF" transform="matrix(1.00, 0.00, -0.00, -1.00, 1678.2, 490.0)"> </text><text xml:space="preserve" font-family="Avenir-Light" font-size="50.0" fill="#FEFFFF" transform="matrix(1.00, 0.00, -0.00, -1.00, 1691.2, 490.0)">c</text><text xml:space="preserve" font-family="Avenir-Light" font-size="50.0" fill="#FEFFFF" transform="matrix(1.00, 0.00, -0.00, -1.00, 1715.2, 490.0)">i</text><text xml:space="preserve" font-family="Avenir-Light" font-size="50.0" fill="#FEFFFF" transform="matrix(1.00, 0.00, -0.00, -1.00, 1727.2, 490.0)">t</text><text xml:space="preserve" font-family="Avenir-Light" font-size="50.0" fill="#FEFFFF" transform="matrix(1.00, 0.00, -0.00, -1.00, 1743.8, 490.0)">y</text><text xml:space="preserve" font-family="Avenir-Light" font-size="50.0" fill="#FEFFFF" transform="matrix(1.00, 0.00, -0.00, -1.00, 1767.0, 490.0)"> </text><text xml:space="preserve" font-family="Avenir-Light" font-size="50.0" fill="#FEFFFF" transform="matrix(1.00, 0.00, -0.00, -1.00, 1112.0, 422.0)">w</text><text xml:space="preserve" font-family="Avenir-Light" font-size="50.0" fill="#FEFFFF" transform="matrix(1.00, 0.00, -0.00, -1.00, 1147.2, 422.0)">a</text><text xml:space="preserve" font-family="Avenir-Light" font-size="50.0" fill="#FEFFFF" transform="matrix(1.00, 0.00, -0.00, -1.00, 1173.2, 422.0)">s</text><text xml:space="preserve" font-family="Avenir-Light" font-size="50.0" fill="#FEFFFF" transform="matrix(1.00, 0.00, -0.00, -1.00, 1194.5, 422.0)"> </text><text xml:space="preserve" font-family="Avenir-Light" font-size="50.0" fill="#FEFFFF" transform="matrix(1.00, 0.00, -0.00, -1.00, 1207.5, 422.0)">d</text><text xml:space="preserve" font-family="Avenir-Light" font-size="50.0" fill="#FEFFFF" transform="matrix(1.00, 0.00, -0.00, -1.00, 1238.0, 422.0)">e</text><text xml:space="preserve" font-family="Avenir-Light" font-size="50.0" fill="#FEFFFF" transform="matrix(1.00, 0.00, -0.00, -1.00, 1265.8, 422.0)">v</text><text xml:space="preserve" font-family="Avenir-Light" font-size="50.0" fill="#FEFFFF" transform="matrix(1.00, 0.00, -0.00, -1.00, 1289.0, 422.0)">e</text><text xml:space="preserve" font-family="Avenir-Light" font-size="50.0" fill="#FEFFFF" transform="matrix(1.00, 0.00, -0.00, -1.00, 1316.8, 422.0)">l</text><text xml:space="preserve" font-family="Avenir-Light" font-size="50.0" fill="#FEFFFF" transform="matrix(1.00, 0.00, -0.00, -1.00, 1328.8, 422.0)">o</text><text xml:space="preserve" font-family="Avenir-Light" font-size="50.0" fill="#FEFFFF" transform="matrix(1.00, 0.00, -0.00, -1.00, 1358.5, 422.0)">p</text><text xml:space="preserve" font-family="Avenir-Light" font-size="50.0" fill="#FEFFFF" transform="matrix(1.00, 0.00, -0.00, -1.00, 1389.0, 422.0)">i</text><text xml:space="preserve" font-family="Avenir-Light" font-size="50.0" fill="#FEFFFF" transform="matrix(1.00, 0.00, -0.00, -1.00, 1401.0, 422.0)">n</text><text xml:space="preserve" font-family="Avenir-Light" font-size="50.0" fill="#FEFFFF" transform="matrix(1.00, 0.00, -0.00, -1.00, 1428.8, 422.0)">g</text><text xml:space="preserve" font-family="Avenir-Light" font-size="50.0" fill="#FEFFFF" transform="matrix(1.00, 0.00, -0.00, -1.00, 1459.4, 422.0)"> </text><text xml:space="preserve" font-family="Avenir-Light" font-size="50.0" fill="#FEFFFF" transform="matrix(1.00, 0.00, -0.00, -1.00, 1472.4, 422.0)">f</text><text xml:space="preserve" font-family="Avenir-Light" font-size="50.0" fill="#FEFFFF" transform="matrix(1.00, 0.00, -0.00, -1.00, 1487.2, 422.0)">o</text><text xml:space="preserve" font-family="Avenir-Light" font-size="50.0" fill="#FEFFFF" transform="matrix(1.00, 0.00, -0.00, -1.00, 1516.9, 422.0)">r</text><text xml:space="preserve" font-family="Avenir-Light" font-size="50.0" fill="#FEFFFF" transform="matrix(1.00, 0.00, -0.00, -1.00, 1533.5, 422.0)"> </text><text xml:space="preserve" font-family="Avenir-Light" font-size="50.0" fill="#FEFFFF" transform="matrix(1.00, 0.00, -0.00, -1.00, 1546.5, 422.0)">S</text><text xml:space="preserve" font-family="Avenir-Light" font-size="50.0" fill="#FEFFFF" transform="matrix(1.00, 0.00, -0.00, -1.00, 1574.3, 422.0)">e</text><text xml:space="preserve" font-family="Avenir-Light" font-size="50.0" fill="#FEFFFF" transform="matrix(1.00, 0.00, -0.00, -1.00, 1602.1, 422.0)">n</text><text xml:space="preserve" font-family="Avenir-Light" font-size="50.0" fill="#FEFFFF" transform="matrix(1.00, 0.00, -0.00, -1.00, 1629.9, 422.0)">i</text><text xml:space="preserve" font-family="Avenir-Light" font-size="50.0" fill="#FEFFFF" transform="matrix(1.00, 0.00, -0.00, -1.00, 1641.9, 422.0)">o</text><text xml:space="preserve" font-family="Avenir-Light" font-size="50.0" fill="#FEFFFF" transform="matrix(1.00, 0.00, -0.00, -1.00, 1671.6, 422.0)">r</text><text xml:space="preserve" font-family="Avenir-Light" font-size="50.0" fill="#FEFFFF" transform="matrix(1.00, 0.00, -0.00, -1.00, 1688.2, 422.0)">s</text><text xml:space="preserve" font-family="Avenir-Light" font-size="50.0" fill="#FEFFFF" transform="matrix(1.00, 0.00, -0.00, -1.00, 1709.6, 422.0)">,</text><text xml:space="preserve" font-family="Avenir-Light" font-size="50.0" fill="#FEFFFF" transform="matrix(1.00, 0.00, -0.00, -1.00, 1722.6, 422.0)"> </text><text xml:space="preserve" font-family="Avenir-Light" font-size="50.0" fill="#FEFFFF" transform="matrix(1.00, 0.00, -0.00, -1.00, 1735.6, 422.0)">b</text><text xml:space="preserve" font-family="Avenir-Light" font-size="50.0" fill="#FEFFFF" transform="matrix(1.00, 0.00, -0.00, -1.00, 1766.1, 422.0)">u</text><text xml:space="preserve" font-family="Avenir-Light" font-size="50.0" fill="#FEFFFF" transform="matrix(1.00, 0.00, -0.00, -1.00, 1793.9, 422.0)">t</text><text xml:space="preserve" font-family="Avenir-Light" font-size="50.0" fill="#FEFFFF" transform="matrix(1.00, 0.00, -0.00, -1.00, 1810.5, 422.0)"> </text><text xml:space="preserve" font-family="Avenir-Light" font-size="50.0" fill="#FEFFFF" transform="matrix(1.00, 0.00, -0.00, -1.00, 1112.0, 354.0)">d</text><text xml:space="preserve" font-family="Avenir-Light" font-size="50.0" fill="#FEFFFF" transform="matrix(1.00, 0.00, -0.00, -1.00, 1142.6, 354.0)">i</text><text xml:space="preserve" font-family="Avenir-Light" font-size="50.0" fill="#FEFFFF" transform="matrix(1.00, 0.00, -0.00, -1.00, 1154.6, 354.0)">d</text><text xml:space="preserve" font-family="Avenir-Light" font-size="50.0" fill="#FEFFFF" transform="matrix(1.00, 0.00, -0.00, -1.00, 1185.2, 354.0)"> </text><text xml:space="preserve" font-family="Avenir-Light" font-size="50.0" fill="#FEFFFF" transform="matrix(1.00, 0.00, -0.00, -1.00, 1198.2, 354.0)">n</text><text xml:space="preserve" font-family="Avenir-Light" font-size="50.0" fill="#FEFFFF" transform="matrix(1.00, 0.00, -0.00, -1.00, 1226.0, 354.0)">o</text><text xml:space="preserve" font-family="Avenir-Light" font-size="50.0" fill="#FEFFFF" transform="matrix(1.00, 0.00, -0.00, -1.00, 1255.7, 354.0)">t</text><text xml:space="preserve" font-family="Avenir-Light" font-size="50.0" fill="#FEFFFF" transform="matrix(1.00, 0.00, -0.00, -1.00, 1272.3, 354.0)"> </text><text xml:space="preserve" font-family="Avenir-Light" font-size="50.0" fill="#FEFFFF" transform="matrix(1.00, 0.00, -0.00, -1.00, 1285.3, 354.0)">k</text><text xml:space="preserve" font-family="Avenir-Light" font-size="50.0" fill="#FEFFFF" transform="matrix(1.00, 0.00, -0.00, -1.00, 1309.3, 354.0)">n</text><text xml:space="preserve" font-family="Avenir-Light" font-size="50.0" fill="#FEFFFF" transform="matrix(1.00, 0.00, -0.00, -1.00, 1337.2, 354.0)">o</text><text xml:space="preserve" font-family="Avenir-Light" font-size="50.0" fill="#FEFFFF" transform="matrix(1.00, 0.00, -0.00, -1.00, 1366.8, 354.0)">w</text><text xml:space="preserve" font-family="Avenir-Light" font-size="50.0" fill="#FEFFFF" transform="matrix(1.00, 0.00, -0.00, -1.00, 1402.0, 354.0)"> </text><text xml:space="preserve" font-family="Avenir-Light" font-size="50.0" fill="#FEFFFF" transform="matrix(1.00, 0.00, -0.00, -1.00, 1415.0, 354.0)">h</text><text xml:space="preserve" font-family="Avenir-Light" font-size="50.0" fill="#FEFFFF" transform="matrix(1.00, 0.00, -0.00, -1.00, 1442.8, 354.0)">o</text><text xml:space="preserve" font-family="Avenir-Light" font-size="50.0" fill="#FEFFFF" transform="matrix(1.00, 0.00, -0.00, -1.00, 1472.5, 354.0)">w</text><text xml:space="preserve" font-family="Avenir-Light" font-size="50.0" fill="#FEFFFF" transform="matrix(1.00, 0.00, -0.00, -1.00, 1507.8, 354.0)"> </text><text xml:space="preserve" font-family="Avenir-Light" font-size="50.0" fill="#FEFFFF" transform="matrix(1.00, 0.00, -0.00, -1.00, 1520.8, 354.0)">t</text><text xml:space="preserve" font-family="Avenir-Light" font-size="50.0" fill="#FEFFFF" transform="matrix(1.00, 0.00, -0.00, -1.00, 1537.4, 354.0)">o</text><text xml:space="preserve" font-family="Avenir-Light" font-size="50.0" fill="#FEFFFF" transform="matrix(1.00, 0.00, -0.00, -1.00, 1567.1, 354.0)"> </text><text xml:space="preserve" font-family="Avenir-Light" font-size="50.0" fill="#FEFFFF" transform="matrix(1.00, 0.00, -0.00, -1.00, 1580.1, 354.0)">g</text><text xml:space="preserve" font-family="Avenir-Light" font-size="50.0" fill="#FEFFFF" transform="matrix(1.00, 0.00, -0.00, -1.00, 1610.7, 354.0)">o</text><text xml:space="preserve" font-family="Avenir-Light" font-size="50.0" fill="#FEFFFF" transform="matrix(1.00, 0.00, -0.00, -1.00, 1640.3, 354.0)"> </text><text xml:space="preserve" font-family="Avenir-Light" font-size="50.0" fill="#FEFFFF" transform="matrix(1.00, 0.00, -0.00, -1.00, 1653.3, 354.0)">a</text><text xml:space="preserve" font-family="Avenir-Light" font-size="50.0" fill="#FEFFFF" transform="matrix(1.00, 0.00, -0.00, -1.00, 1679.3, 354.0)">b</text><text xml:space="preserve" font-family="Avenir-Light" font-size="50.0" fill="#FEFFFF" transform="matrix(1.00, 0.00, -0.00, -1.00, 1709.8, 354.0)">o</text><text xml:space="preserve" font-family="Avenir-Light" font-size="50.0" fill="#FEFFFF" transform="matrix(1.00, 0.00, -0.00, -1.00, 1739.6, 354.0)">u</text><text xml:space="preserve" font-family="Avenir-Light" font-size="50.0" fill="#FEFFFF" transform="matrix(1.00, 0.00, -0.00, -1.00, 1767.3, 354.0)">t</text><text xml:space="preserve" font-family="Avenir-Light" font-size="50.0" fill="#FEFFFF" transform="matrix(1.00, 0.00, -0.00, -1.00, 1784.0, 354.0)"> </text><text xml:space="preserve" font-family="Avenir-Light" font-size="50.0" fill="#FEFFFF" transform="matrix(1.00, 0.00, -0.00, -1.00, 1112.0, 286.0)">i</text><text xml:space="preserve" font-family="Avenir-Light" font-size="50.0" fill="#FEFFFF" transform="matrix(1.00, 0.00, -0.00, -1.00, 1124.0, 286.0)">t</text><text xml:space="preserve" font-family="Avenir-Light" font-size="50.0" fill="#FEFFFF" transform="matrix(1.00, 0.00, -0.00, -1.00, 1140.7, 286.0)">.</text></g></svg>