<?xml version="1.0" encoding="UTF-8" standalone="no"?><svg xmlns="http://www.w3.org/2000/svg" xmlns:xlink="http://www.w3.org/1999/xlink" clip-rule="evenodd" stroke-miterlimit="4.00" viewBox="0 0 1920 1080"><desc>SVG generated by Keynote</desc><defs></defs><g transform="matrix(1.00, 0.00, -0.00, -1.00, 0.0, 1080.0)"><path d="M 0.0 1080.0 L 1920.0 1080.0 L 1920.0 0.0 L 0.0 0.0 Z M 0.0 1080.0 " fill="#000000"></path><g><clipPath id="clip-135"><path d="M 0.0 1079.0 L 1920.0 1079.0 L 1920.0 -1.0 L 0.0 -1.0 Z M 0.0 1079.0 "></path></clipPath><g clip-path="url(#clip-135)"><image xlink:href="50BD5FE1349FBB4ABF23527372555090.jpeg" width="1153.00" height="768.00" transform="matrix(2.29, 0.00, -0.00, -2.29, -43.0, 1374.0)"></image></g></g><text xml:space="preserve" font-family="Avenir-Black" font-weight="bold" font-size="104.0" fill="#FEFFFF" transform="matrix(1.00, 0.00, -0.00, -1.00, 47.0, 860.0)">H</text><text xml:space="preserve" font-family="Avenir-Black" font-weight="bold" font-size="104.0" fill="#FEFFFF" transform="matrix(1.00, 0.00, -0.00, -1.00, 142.6, 860.0)">I</text><text xml:space="preserve" font-family="Avenir-Black" font-weight="bold" font-size="104.0" fill="#FEFFFF" transform="matrix(1.00, 0.00, -0.00, -1.00, 190.0, 860.0)">,</text><text xml:space="preserve" font-family="Avenir-Black" font-weight="bold" font-size="104.0" fill="#FEFFFF" transform="matrix(1.00, 0.00, -0.00, -1.00, 237.4, 860.0)"> </text><text xml:space="preserve" font-family="Avenir-Black" font-weight="bold" font-size="104.0" fill="#FEFFFF" transform="matrix(1.00, 0.00, -0.00, -1.00, 284.8, 860.0)">I</text><text xml:space="preserve" font-family="Avenir-Black" font-weight="bold" font-size="104.0" fill="#FEFFFF" transform="matrix(1.00, 0.00, -0.00, -1.00, 332.3, 860.0)">’</text><text xml:space="preserve" font-family="Avenir-Black" font-weight="bold" font-size="104.0" fill="#FEFFFF" transform="matrix(1.00, 0.00, -0.00, -1.00, 379.7, 860.0)">M</text><text xml:space="preserve" font-family="Avenir-Black" font-weight="bold" font-size="104.0" fill="#FEFFFF" transform="matrix(1.00, 0.00, -0.00, -1.00, 494.5, 860.0)"> </text><text xml:space="preserve" font-family="Avenir-Black" font-weight="bold" font-size="104.0" fill="#FEFFFF" transform="matrix(1.00, 0.00, -0.00, -1.00, 47.0, 718.0)">J</text><text xml:space="preserve" font-family="Avenir-Black" font-weight="bold" font-size="104.0" fill="#FEFFFF" transform="matrix(1.00, 0.00, -0.00, -1.00, 115.6, 718.0)">O</text><text xml:space="preserve" font-family="Avenir-Black" font-weight="bold" font-size="104.0" fill="#FEFFFF" transform="matrix(1.00, 0.00, -0.00, -1.00, 218.8, 718.0)">R</text><text xml:space="preserve" font-family="Avenir-Black" font-weight="bold" font-size="104.0" fill="#FEFFFF" transform="matrix(1.00, 0.00, -0.00, -1.00, 302.8, 718.0)">D</text><text xml:space="preserve" font-family="Avenir-Black" font-weight="bold" font-size="104.0" fill="#FEFFFF" transform="matrix(1.00, 0.00, -0.00, -1.00, 398.4, 718.0)">A</text><text xml:space="preserve" font-family="Avenir-Black" font-weight="bold" font-size="104.0" fill="#FEFFFF" transform="matrix(1.00, 0.00, -0.00, -1.00, 492.1, 718.0)">N</text><text xml:space="preserve" font-family="Avenir-Black" font-weight="bold" font-size="70.5" fill="#328199" transform="matrix(1.00, 0.00, -0.00, -1.00, 49.0, 484.0)">I</text><text xml:space="preserve" font-family="Avenir-Black" font-weight="bold" font-size="70.5" fill="#328199" transform="matrix(1.00, 0.00, -0.00, -1.00, 81.2, 484.0)"> </text><text xml:space="preserve" font-family="Avenir-Black" font-weight="bold" font-size="70.5" fill="#328199" transform="matrix(1.00, 0.00, -0.00, -1.00, 113.3, 484.0)">A</text><text xml:space="preserve" font-family="Avenir-Black" font-weight="bold" font-size="70.5" fill="#328199" transform="matrix(1.00, 0.00, -0.00, -1.00, 176.9, 484.0)">M</text><text xml:space="preserve" font-family="Avenir-Black" font-weight="bold" font-size="70.5" fill="#328199" transform="matrix(1.00, 0.00, -0.00, -1.00, 254.7, 484.0)"> </text><text xml:space="preserve" font-family="Avenir-Black" font-weight="bold" font-size="70.5" fill="#328199" transform="matrix(1.00, 0.00, -0.00, -1.00, 286.9, 484.0)">A</text><text xml:space="preserve" font-family="Avenir-Black" font-weight="bold" font-size="70.5" fill="#328199" transform="matrix(1.00, 0.00, -0.00, -1.00, 350.4, 484.0)">N</text><text xml:space="preserve" font-family="Avenir-Black" font-weight="bold" font-size="70.5" fill="#328199" transform="matrix(1.00, 0.00, -0.00, -1.00, 419.2, 484.0)"> </text><text xml:space="preserve" font-family="Avenir-Black" font-weight="bold" font-size="70.5" fill="#328199" transform="matrix(1.00, 0.00, -0.00, -1.00, 49.0, 387.0)">A</text><text xml:space="preserve" font-family="Avenir-Black" font-weight="bold" font-size="70.5" fill="#328199" transform="matrix(1.00, 0.00, -0.00, -1.00, 112.5, 387.0)">M</text><text xml:space="preserve" font-family="Avenir-Black" font-weight="bold" font-size="70.5" fill="#328199" transform="matrix(1.00, 0.00, -0.00, -1.00, 190.4, 387.0)">B</text><text xml:space="preserve" font-family="Avenir-Black" font-weight="bold" font-size="70.5" fill="#328199" transform="matrix(1.00, 0.00, -0.00, -1.00, 247.4, 387.0)">A</text><text xml:space="preserve" font-family="Avenir-Black" font-weight="bold" font-size="70.5" fill="#328199" transform="matrix(1.00, 0.00, -0.00, -1.00, 310.9, 387.0)">S</text><text xml:space="preserve" font-family="Avenir-Black" font-weight="bold" font-size="70.5" fill="#328199" transform="matrix(1.00, 0.00, -0.00, -1.00, 362.7, 387.0)">S</text><text xml:space="preserve" font-family="Avenir-Black" font-weight="bold" font-size="70.5" fill="#328199" transform="matrix(1.00, 0.00, -0.00, -1.00, 414.4, 387.0)">A</text><text xml:space="preserve" font-family="Avenir-Black" font-weight="bold" font-size="70.5" fill="#328199" transform="matrix(1.00, 0.00, -0.00, -1.00, 478.0, 387.0)">D</text><text xml:space="preserve" font-family="Avenir-Black" font-weight="bold" font-size="70.5" fill="#328199" transform="matrix(1.00, 0.00, -0.00, -1.00, 542.8, 387.0)">O</text><text xml:space="preserve" font-family="Avenir-Black" font-weight="bold" font-size="70.5" fill="#328199" transform="matrix(1.00, 0.00, -0.00, -1.00, 612.7, 387.0)">R</text><text xml:space="preserve" font-family="Avenir-Black" font-weight="bold" font-size="70.5" fill="#328199" transform="matrix(1.00, 0.00, -0.00, -1.00, 669.7, 387.0)"> </text><text xml:space="preserve" font-family="Avenir-Black" font-weight="bold" font-size="70.5" fill="#328199" transform="matrix(1.00, 0.00, -0.00, -1.00, 49.0, 290.0)">F</text><text xml:space="preserve" font-family="Avenir-Black" font-weight="bold" font-size="70.5" fill="#328199" transform="matrix(1.00, 0.00, -0.00, -1.00, 102.1, 290.0)">O</text><text xml:space="preserve" font-family="Avenir-Black" font-weight="bold" font-size="70.5" fill="#328199" transform="matrix(1.00, 0.00, -0.00, -1.00, 172.1, 290.0)">R</text><text xml:space="preserve" font-family="Avenir-Black" font-weight="bold" font-size="70.5" fill="#328199" transform="matrix(1.00, 0.00, -0.00, -1.00, 229.0, 290.0)"> </text><text xml:space="preserve" font-family="Avenir-Black" font-weight="bold" font-size="70.5" fill="#328199" transform="matrix(1.00, 0.00, -0.00, -1.00, 261.2, 290.0)">S</text><text xml:space="preserve" font-family="Avenir-Black" font-weight="bold" font-size="70.5" fill="#328199" transform="matrix(1.00, 0.00, -0.00, -1.00, 313.0, 290.0)">O</text><text xml:space="preserve" font-family="Avenir-Black" font-weight="bold" font-size="70.5" fill="#328199" transform="matrix(1.00, 0.00, -0.00, -1.00, 382.9, 290.0)">C</text><text xml:space="preserve" font-family="Avenir-Black" font-weight="bold" font-size="70.5" fill="#328199" transform="matrix(1.00, 0.00, -0.00, -1.00, 442.5, 290.0)">I</text><text xml:space="preserve" font-family="Avenir-Black" font-weight="bold" font-size="70.5" fill="#328199" transform="matrix(1.00, 0.00, -0.00, -1.00, 474.7, 290.0)">A</text><text xml:space="preserve" font-family="Avenir-Black" font-weight="bold" font-size="70.5" fill="#328199" transform="matrix(1.00, 0.00, -0.00, -1.00, 538.2, 290.0)">L</text><text xml:space="preserve" font-family="Avenir-Black" font-weight="bold" font-size="70.5" fill="#328199" transform="matrix(1.00, 0.00, -0.00, -1.00, 587.3, 290.0)"> </text><text xml:space="preserve" font-family="Avenir-Black" font-weight="bold" font-size="70.5" fill="#328199" transform="matrix(1.00, 0.00, -0.00, -1.00, 49.0, 193.0)">C</text><text xml:space="preserve" font-family="Avenir-Black" font-weight="bold" font-size="70.5" fill="#328199" transform="matrix(1.00, 0.00, -0.00, -1.00, 108.6, 193.0)">H</text><text xml:space="preserve" font-family="Avenir-Black" font-weight="bold" font-size="70.5" fill="#328199" transform="matrix(1.00, 0.00, -0.00, -1.00, 173.4, 193.0)">A</text><text xml:space="preserve" font-family="Avenir-Black" font-weight="bold" font-size="70.5" fill="#328199" transform="matrix(1.00, 0.00, -0.00, -1.00, 236.9, 193.0)">N</text><text xml:space="preserve" font-family="Avenir-Black" font-weight="bold" font-size="70.5" fill="#328199" transform="matrix(1.00, 0.00, -0.00, -1.00, 305.7, 193.0)">G</text><text xml:space="preserve" font-family="Avenir-Black" font-weight="bold" font-size="70.5" fill="#328199" transform="matrix(1.00, 0.00, -0.00, -1.00, 371.8, 193.0)">E</text><text xml:space="preserve" font-family="Avenir-Black" font-weight="bold" font-size="70.5" fill="#328199" transform="matrix(1.00, 0.00, -0.00, -1.00, 427.6, 193.0)"> </text><text xml:space="preserve" font-family="Avenir-Black" font-weight="bold" font-size="70.5" fill="#328199" transform="matrix(1.00, 0.00, -0.00, -1.00, 459.7, 193.0)">A</text><text xml:space="preserve" font-family="Avenir-Black" font-weight="bold" font-size="70.5" fill="#328199" transform="matrix(1.00, 0.00, -0.00, -1.00, 523.2, 193.0)">N</text><text xml:space="preserve" font-family="Avenir-Black" font-weight="bold" font-size="70.5" fill="#328199" transform="matrix(1.00, 0.00, -0.00, -1.00, 592.0, 193.0)">D</text><text xml:space="preserve" font-family="Avenir-Black" font-weight="bold" font-size="70.5" fill="#328199" transform="matrix(1.00, 0.00, -0.00, -1.00, 656.8, 193.0)"> </text><text xml:space="preserve" font-family="Avenir-Black" font-weight="bold" font-size="70.5" fill="#328199" transform="matrix(1.00, 0.00, -0.00, -1.00, 49.0, 96.0)">U</text><text xml:space="preserve" font-family="Avenir-Black" font-weight="bold" font-size="70.5" fill="#328199" transform="matrix(1.00, 0.00, -0.00, -1.00, 112.5, 96.0)">N</text><text xml:space="preserve" font-family="Avenir-Black" font-weight="bold" font-size="70.5" fill="#328199" transform="matrix(1.00, 0.00, -0.00, -1.00, 181.3, 96.0)">D</text><text xml:space="preserve" font-family="Avenir-Black" font-weight="bold" font-size="70.5" fill="#328199" transform="matrix(1.00, 0.00, -0.00, -1.00, 246.1, 96.0)">E</text><text xml:space="preserve" font-family="Avenir-Black" font-weight="bold" font-size="70.5" fill="#328199" transform="matrix(1.00, 0.00, -0.00, -1.00, 301.8, 96.0)">R</text><text xml:space="preserve" font-family="Avenir-Black" font-weight="bold" font-size="70.5" fill="#328199" transform="matrix(1.00, 0.00, -0.00, -1.00, 358.8, 96.0)">S</text><text xml:space="preserve" font-family="Avenir-Black" font-weight="bold" font-size="70.5" fill="#328199" transform="matrix(1.00, 0.00, -0.00, -1.00, 410.6, 96.0)">T</text><text xml:space="preserve" font-family="Avenir-Black" font-weight="bold" font-size="70.5" fill="#328199" transform="matrix(1.00, 0.00, -0.00, -1.00, 455.8, 96.0)">A</text><text xml:space="preserve" font-family="Avenir-Black" font-weight="bold" font-size="70.5" fill="#328199" transform="matrix(1.00, 0.00, -0.00, -1.00, 519.4, 96.0)">N</text><text xml:space="preserve" font-family="Avenir-Black" font-weight="bold" font-size="70.5" fill="#328199" transform="matrix(1.00, 0.00, -0.00, -1.00, 588.1, 96.0)">D</text><text xml:space="preserve" font-family="Avenir-Black" font-weight="bold" font-size="70.5" fill="#328199" transform="matrix(1.00, 0.00, -0.00, -1.00, 652.9, 96.0)">I</text><text xml:space="preserve" font-family="Avenir-Black" font-weight="bold" font-size="70.5" fill="#328199" transform="matrix(1.00, 0.00, -0.00, -1.00, 685.1, 96.0)">N</text><text xml:space="preserve" font-family="Avenir-Black" font-weight="bold" font-size="70.5" fill="#328199" transform="matrix(1.00, 0.00, -0.00, -1.00, 753.8, 96.0)">G</text><text xml:space="preserve" font-family="Avenir-Black" font-weight="bold" font-size="70.5" fill="#328199" transform="matrix(1.00, 0.00, -0.00, -1.00, 820.0, 96.0)">.</text></g></svg>