<?xml version="1.0" encoding="UTF-8" standalone="no"?><svg xmlns="http://www.w3.org/2000/svg" xmlns:xlink="http://www.w3.org/1999/xlink" clip-rule="evenodd" stroke-miterlimit="4.00" viewBox="0 0 1920 1080"><desc>SVG generated by Keynote</desc><defs></defs><g transform="matrix(1.00, 0.00, -0.00, -1.00, 0.0, 1080.0)"><path d="M 0.0 1080.0 L 1920.0 1080.0 L 1920.0 0.0 L 0.0 0.0 Z M 0.0 1080.0 " fill="#000000"></path><g><clipPath id="clip-170"><path d="M 0.0 1079.0 L 1920.0 1079.0 L 1920.0 -1.0 L 0.0 -1.0 Z M 0.0 1079.0 "></path></clipPath><g clip-path="url(#clip-170)"><image xlink:href="../../166DC9F9-B692-43AE-BBB1-6D3638187ADA/assets/50BD5FE1349FBB4ABF23527372555090.jpeg" width="1153.00" height="768.00" transform="matrix(2.29, 0.00, -0.00, -2.29, -43.0, 1374.0)"></image></g></g><text xml:space="preserve" font-family="Avenir-Black" font-weight="bold" font-size="98.0" fill="#FEFFFF" transform="matrix(1.00, 0.00, -0.00, -1.00, 63.0, 748.0)">J</text><text xml:space="preserve" font-family="Avenir-Black" font-weight="bold" font-size="98.0" fill="#FEFFFF" transform="matrix(1.00, 0.00, -0.00, -1.00, 127.7, 748.0)">O</text><text xml:space="preserve" font-family="Avenir-Black" font-weight="bold" font-size="98.0" fill="#FEFFFF" transform="matrix(1.00, 0.00, -0.00, -1.00, 224.9, 748.0)">R</text><text xml:space="preserve" font-family="Avenir-Black" font-weight="bold" font-size="98.0" fill="#FEFFFF" transform="matrix(1.00, 0.00, -0.00, -1.00, 304.1, 748.0)">D</text><text xml:space="preserve" font-family="Avenir-Black" font-weight="bold" font-size="98.0" fill="#FEFFFF" transform="matrix(1.00, 0.00, -0.00, -1.00, 394.1, 748.0)">A</text><text xml:space="preserve" font-family="Avenir-Black" font-weight="bold" font-size="98.0" fill="#FEFFFF" transform="matrix(1.00, 0.00, -0.00, -1.00, 482.4, 748.0)">N</text><text xml:space="preserve" font-family="Avenir-Black" font-weight="bold" font-size="98.0" fill="#FEFFFF" transform="matrix(1.00, 0.00, -0.00, -1.00, 578.0, 748.0)">’</text><text xml:space="preserve" font-family="Avenir-Black" font-weight="bold" font-size="98.0" fill="#FEFFFF" transform="matrix(1.00, 0.00, -0.00, -1.00, 622.7, 748.0)">S</text><text xml:space="preserve" font-family="Avenir-Black" font-weight="bold" font-size="98.0" fill="#FEFFFF" transform="matrix(1.00, 0.00, -0.00, -1.00, 694.6, 748.0)"> </text><text xml:space="preserve" font-family="Avenir-Black" font-weight="bold" font-size="98.0" fill="#FEFFFF" transform="matrix(1.00, 0.00, -0.00, -1.00, 63.0, 614.0)">C</text><text xml:space="preserve" font-family="Avenir-Black" font-weight="bold" font-size="98.0" fill="#FEFFFF" transform="matrix(1.00, 0.00, -0.00, -1.00, 145.8, 614.0)">H</text><text xml:space="preserve" font-family="Avenir-Black" font-weight="bold" font-size="98.0" fill="#FEFFFF" transform="matrix(1.00, 0.00, -0.00, -1.00, 235.9, 614.0)">A</text><text xml:space="preserve" font-family="Avenir-Black" font-weight="bold" font-size="98.0" fill="#FEFFFF" transform="matrix(1.00, 0.00, -0.00, -1.00, 324.2, 614.0)">N</text><text xml:space="preserve" font-family="Avenir-Black" font-weight="bold" font-size="98.0" fill="#FEFFFF" transform="matrix(1.00, 0.00, -0.00, -1.00, 419.7, 614.0)">G</text><text xml:space="preserve" font-family="Avenir-Black" font-weight="bold" font-size="98.0" fill="#FEFFFF" transform="matrix(1.00, 0.00, -0.00, -1.00, 511.6, 614.0)">E</text><text xml:space="preserve" font-family="Avenir-Black" font-weight="bold" font-size="98.0" fill="#FEFFFF" transform="matrix(1.00, 0.00, -0.00, -1.00, 589.1, 614.0)"> </text><text xml:space="preserve" font-family="Avenir-Black" font-weight="bold" font-size="98.0" fill="#FEFFFF" transform="matrix(1.00, 0.00, -0.00, -1.00, 63.0, 480.0)">S</text><text xml:space="preserve" font-family="Avenir-Black" font-weight="bold" font-size="98.0" fill="#FEFFFF" transform="matrix(1.00, 0.00, -0.00, -1.00, 134.9, 480.0)">T</text><text xml:space="preserve" font-family="Avenir-Black" font-weight="bold" font-size="98.0" fill="#FEFFFF" transform="matrix(1.00, 0.00, -0.00, -1.00, 197.8, 480.0)">A</text><text xml:space="preserve" font-family="Avenir-Black" font-weight="bold" font-size="98.0" fill="#FEFFFF" transform="matrix(1.00, 0.00, -0.00, -1.00, 286.1, 480.0)">R</text><text xml:space="preserve" font-family="Avenir-Black" font-weight="bold" font-size="98.0" fill="#FEFFFF" transform="matrix(1.00, 0.00, -0.00, -1.00, 363.6, 480.0)">T</text><text xml:space="preserve" font-family="Avenir-Black" font-weight="bold" font-size="98.0" fill="#FEFFFF" transform="matrix(1.00, 0.00, -0.00, -1.00, 435.5, 480.0)">S</text><text xml:space="preserve" font-family="Avenir-Black" font-weight="bold" font-size="98.0" fill="#FEFFFF" transform="matrix(1.00, 0.00, -0.00, -1.00, 507.4, 480.0)"> </text><text xml:space="preserve" font-family="Avenir-Black" font-weight="bold" font-size="98.0" fill="#FEFFFF" transform="matrix(1.00, 0.00, -0.00, -1.00, 63.0, 346.0)">W</text><text xml:space="preserve" font-family="Avenir-Black" font-weight="bold" font-size="98.0" fill="#FEFFFF" transform="matrix(1.00, 0.00, -0.00, -1.00, 176.7, 346.0)">I</text><text xml:space="preserve" font-family="Avenir-Black" font-weight="bold" font-size="98.0" fill="#FEFFFF" transform="matrix(1.00, 0.00, -0.00, -1.00, 221.4, 346.0)">T</text><text xml:space="preserve" font-family="Avenir-Black" font-weight="bold" font-size="98.0" fill="#FEFFFF" transform="matrix(1.00, 0.00, -0.00, -1.00, 293.3, 346.0)">H</text><text xml:space="preserve" font-family="Avenir-Black" font-weight="bold" font-size="98.0" fill="#FEFFFF" transform="matrix(1.00, 0.00, -0.00, -1.00, 383.4, 346.0)"> </text><text xml:space="preserve" font-family="Avenir-Black" font-weight="bold" font-size="98.0" fill="#FEFFFF" transform="matrix(1.00, 0.00, -0.00, -1.00, 428.0, 346.0)">Y</text><text xml:space="preserve" font-family="Avenir-Black" font-weight="bold" font-size="98.0" fill="#FEFFFF" transform="matrix(1.00, 0.00, -0.00, -1.00, 507.2, 346.0)">O</text><text xml:space="preserve" font-family="Avenir-Black" font-weight="bold" font-size="98.0" fill="#FEFFFF" transform="matrix(1.00, 0.00, -0.00, -1.00, 604.4, 346.0)">U</text><text xml:space="preserve" font-family="Avenir-Black" font-weight="bold" font-size="98.0" fill="#FEFFFF" transform="matrix(1.00, 0.00, -0.00, -1.00, 692.7, 346.0)">.</text></g></svg>