<?xml version="1.0" encoding="UTF-8" standalone="no"?><svg xmlns="http://www.w3.org/2000/svg" xmlns:xlink="http://www.w3.org/1999/xlink" clip-rule="evenodd" stroke-miterlimit="4.00" viewBox="0 0 1920 1080"><desc>SVG generated by Keynote</desc><defs></defs><g transform="matrix(1.00, 0.00, -0.00, -1.00, 0.0, 1080.0)"><path d="M 0.0 1080.0 L 1920.0 1080.0 L 1920.0 0.0 L 0.0 0.0 Z M 0.0 1080.0 " fill="#000000"></path><g><clipPath id="clip-92"><path d="M 1.0 1082.0 L 1919.0 1082.0 L 1919.0 -2.0 L 1.0 -2.0 Z M 0.9 1081.9 "></path></clipPath><g clip-path="url(#clip-92)"><image xlink:href="../../CF62920F-5D9F-409F-AFBB-3FA085DF4A78/assets/C5CA0AAAAE2D2CB8FFA171A561EB50A1.jpeg" width="1152.00" height="768.00" transform="matrix(1.81, 0.00, -0.00, -1.81, -85.0, 1382.0)"></image></g></g><text xml:space="preserve" font-family="Avenir-Light" font-size="54.0" fill="#FEFFFE" transform="matrix(1.00, 0.00, -0.00, -1.00, 727.0, 932.0)">…</text><text xml:space="preserve" font-family="Avenir-Light" font-size="54.0" fill="#FEFFFE" transform="matrix(1.00, 0.00, -0.00, -1.00, 781.0, 932.0)"> </text><text xml:space="preserve" font-family="Avenir-Light" font-size="54.0" fill="#FEFFFE" transform="matrix(1.00, 0.00, -0.00, -1.00, 795.0, 932.0)">T</text><text xml:space="preserve" font-family="Avenir-Light" font-size="54.0" fill="#FEFFFE" transform="matrix(1.00, 0.00, -0.00, -1.00, 826.0, 932.0)">h</text><text xml:space="preserve" font-family="Avenir-Light" font-size="54.0" fill="#FEFFFE" transform="matrix(1.00, 0.00, -0.00, -1.00, 856.1, 932.0)">e</text><text xml:space="preserve" font-family="Avenir-Light" font-size="54.0" fill="#FEFFFE" transform="matrix(1.00, 0.00, -0.00, -1.00, 886.1, 932.0)"> </text><text xml:space="preserve" font-family="Avenir-Light" font-size="54.0" fill="#FEFFFE" transform="matrix(1.00, 0.00, -0.00, -1.00, 900.1, 932.0)">p</text><text xml:space="preserve" font-family="Avenir-Light" font-size="54.0" fill="#FEFFFE" transform="matrix(1.00, 0.00, -0.00, -1.00, 933.1, 932.0)">r</text><text xml:space="preserve" font-family="Avenir-Light" font-size="54.0" fill="#FEFFFE" transform="matrix(1.00, 0.00, -0.00, -1.00, 950.1, 932.0)">o</text><text xml:space="preserve" font-family="Avenir-Light" font-size="54.0" fill="#FEFFFE" transform="matrix(1.00, 0.00, -0.00, -1.00, 982.2, 932.0)">g</text><text xml:space="preserve" font-family="Avenir-Light" font-size="54.0" fill="#FEFFFE" transform="matrix(1.00, 0.00, -0.00, -1.00, 1015.2, 932.0)">r</text><text xml:space="preserve" font-family="Avenir-Light" font-size="54.0" fill="#FEFFFE" transform="matrix(1.00, 0.00, -0.00, -1.00, 1033.2, 932.0)">a</text><text xml:space="preserve" font-family="Avenir-Light" font-size="54.0" fill="#FEFFFE" transform="matrix(1.00, 0.00, -0.00, -1.00, 1061.2, 932.0)">m</text><text xml:space="preserve" font-family="Avenir-Light" font-size="54.0" fill="#FEFFFE" transform="matrix(1.00, 0.00, -0.00, -1.00, 1107.2, 932.0)"> </text><text xml:space="preserve" font-family="Avenir-Light" font-size="54.0" fill="#FEFFFE" transform="matrix(1.00, 0.00, -0.00, -1.00, 1121.3, 932.0)">s</text><text xml:space="preserve" font-family="Avenir-Light" font-size="54.0" fill="#FEFFFE" transform="matrix(1.00, 0.00, -0.00, -1.00, 1144.3, 932.0)">o</text><text xml:space="preserve" font-family="Avenir-Light" font-size="54.0" fill="#FEFFFE" transform="matrix(1.00, 0.00, -0.00, -1.00, 1176.3, 932.0)">u</text><text xml:space="preserve" font-family="Avenir-Light" font-size="54.0" fill="#FEFFFE" transform="matrix(1.00, 0.00, -0.00, -1.00, 1206.4, 932.0)">n</text><text xml:space="preserve" font-family="Avenir-Light" font-size="54.0" fill="#FEFFFE" transform="matrix(1.00, 0.00, -0.00, -1.00, 1236.4, 932.0)">d</text><text xml:space="preserve" font-family="Avenir-Light" font-size="54.0" fill="#FEFFFE" transform="matrix(1.00, 0.00, -0.00, -1.00, 1269.4, 932.0)">e</text><text xml:space="preserve" font-family="Avenir-Light" font-size="54.0" fill="#FEFFFE" transform="matrix(1.00, 0.00, -0.00, -1.00, 1299.4, 932.0)">d</text><text xml:space="preserve" font-family="Avenir-Light" font-size="54.0" fill="#FEFFFE" transform="matrix(1.00, 0.00, -0.00, -1.00, 1332.4, 932.0)"> </text><text xml:space="preserve" font-family="Avenir-Light" font-size="54.0" fill="#FEFFFE" transform="matrix(1.00, 0.00, -0.00, -1.00, 1346.4, 932.0)">a</text><text xml:space="preserve" font-family="Avenir-Light" font-size="54.0" fill="#FEFFFE" transform="matrix(1.00, 0.00, -0.00, -1.00, 1374.5, 932.0)">m</text><text xml:space="preserve" font-family="Avenir-Light" font-size="54.0" fill="#FEFFFE" transform="matrix(1.00, 0.00, -0.00, -1.00, 1420.5, 932.0)">a</text><text xml:space="preserve" font-family="Avenir-Light" font-size="54.0" fill="#FEFFFE" transform="matrix(1.00, 0.00, -0.00, -1.00, 1448.5, 932.0)">z</text><text xml:space="preserve" font-family="Avenir-Light" font-size="54.0" fill="#FEFFFE" transform="matrix(1.00, 0.00, -0.00, -1.00, 1471.5, 932.0)">i</text><text xml:space="preserve" font-family="Avenir-Light" font-size="54.0" fill="#FEFFFE" transform="matrix(1.00, 0.00, -0.00, -1.00, 1484.5, 932.0)">n</text><text xml:space="preserve" font-family="Avenir-Light" font-size="54.0" fill="#FEFFFE" transform="matrix(1.00, 0.00, -0.00, -1.00, 1514.5, 932.0)">g</text><text xml:space="preserve" font-family="Avenir-Light" font-size="54.0" fill="#FEFFFE" transform="matrix(1.00, 0.00, -0.00, -1.00, 1547.5, 932.0)"> </text><text xml:space="preserve" font-family="Avenir-Light" font-size="54.0" fill="#FEFFFE" transform="matrix(1.00, 0.00, -0.00, -1.00, 739.0, 858.0)">a</text><text xml:space="preserve" font-family="Avenir-Light" font-size="54.0" fill="#FEFFFE" transform="matrix(1.00, 0.00, -0.00, -1.00, 767.0, 858.0)">n</text><text xml:space="preserve" font-family="Avenir-Light" font-size="54.0" fill="#FEFFFE" transform="matrix(1.00, 0.00, -0.00, -1.00, 797.0, 858.0)">d</text><text xml:space="preserve" font-family="Avenir-Light" font-size="54.0" fill="#FEFFFE" transform="matrix(1.00, 0.00, -0.00, -1.00, 830.0, 858.0)"> </text><text xml:space="preserve" font-family="Avenir-Light" font-size="54.0" fill="#FEFFFE" transform="matrix(1.00, 0.00, -0.00, -1.00, 844.1, 858.0)">w</text><text xml:space="preserve" font-family="Avenir-Light" font-size="54.0" fill="#FEFFFE" transform="matrix(1.00, 0.00, -0.00, -1.00, 882.1, 858.0)">a</text><text xml:space="preserve" font-family="Avenir-Light" font-size="54.0" fill="#FEFFFE" transform="matrix(1.00, 0.00, -0.00, -1.00, 910.1, 858.0)">s</text><text xml:space="preserve" font-family="Avenir-Light" font-size="54.0" fill="#FEFFFE" transform="matrix(1.00, 0.00, -0.00, -1.00, 933.1, 858.0)"> </text><text xml:space="preserve" font-family="Avenir-Light" font-size="54.0" fill="#FEFFFE" transform="matrix(1.00, 0.00, -0.00, -1.00, 947.2, 858.0)">j</text><text xml:space="preserve" font-family="Avenir-Light" font-size="54.0" fill="#FEFFFE" transform="matrix(1.00, 0.00, -0.00, -1.00, 960.1, 858.0)">u</text><text xml:space="preserve" font-family="Avenir-Light" font-size="54.0" fill="#FEFFFE" transform="matrix(1.00, 0.00, -0.00, -1.00, 990.2, 858.0)">s</text><text xml:space="preserve" font-family="Avenir-Light" font-size="54.0" fill="#FEFFFE" transform="matrix(1.00, 0.00, -0.00, -1.00, 1013.2, 858.0)">t</text><text xml:space="preserve" font-family="Avenir-Light" font-size="54.0" fill="#FEFFFE" transform="matrix(1.00, 0.00, -0.00, -1.00, 1031.1, 858.0)"> </text><text xml:space="preserve" font-family="Avenir-Light" font-size="54.0" fill="#FEFFFE" transform="matrix(1.00, 0.00, -0.00, -1.00, 1045.2, 858.0)">t</text><text xml:space="preserve" font-family="Avenir-Light" font-size="54.0" fill="#FEFFFE" transform="matrix(1.00, 0.00, -0.00, -1.00, 1063.2, 858.0)">h</text><text xml:space="preserve" font-family="Avenir-Light" font-size="54.0" fill="#FEFFFE" transform="matrix(1.00, 0.00, -0.00, -1.00, 1093.2, 858.0)">e</text><text xml:space="preserve" font-family="Avenir-Light" font-size="54.0" fill="#FEFFFE" transform="matrix(1.00, 0.00, -0.00, -1.00, 1123.3, 858.0)"> </text><text xml:space="preserve" font-family="Avenir-Light" font-size="54.0" fill="#FEFFFE" transform="matrix(1.00, 0.00, -0.00, -1.00, 1137.3, 858.0)">e</text><text xml:space="preserve" font-family="Avenir-Light" font-size="54.0" fill="#FEFFFE" transform="matrix(1.00, 0.00, -0.00, -1.00, 1167.3, 858.0)">x</text><text xml:space="preserve" font-family="Avenir-Light" font-size="54.0" fill="#FEFFFE" transform="matrix(1.00, 0.00, -0.00, -1.00, 1193.3, 858.0)">p</text><text xml:space="preserve" font-family="Avenir-Light" font-size="54.0" fill="#FEFFFE" transform="matrix(1.00, 0.00, -0.00, -1.00, 1226.3, 858.0)">e</text><text xml:space="preserve" font-family="Avenir-Light" font-size="54.0" fill="#FEFFFE" transform="matrix(1.00, 0.00, -0.00, -1.00, 1256.3, 858.0)">r</text><text xml:space="preserve" font-family="Avenir-Light" font-size="54.0" fill="#FEFFFE" transform="matrix(1.00, 0.00, -0.00, -1.00, 1274.3, 858.0)">i</text><text xml:space="preserve" font-family="Avenir-Light" font-size="54.0" fill="#FEFFFE" transform="matrix(1.00, 0.00, -0.00, -1.00, 1287.3, 858.0)">e</text><text xml:space="preserve" font-family="Avenir-Light" font-size="54.0" fill="#FEFFFE" transform="matrix(1.00, 0.00, -0.00, -1.00, 1317.3, 858.0)">n</text><text xml:space="preserve" font-family="Avenir-Light" font-size="54.0" fill="#FEFFFE" transform="matrix(1.00, 0.00, -0.00, -1.00, 1347.3, 858.0)">c</text><text xml:space="preserve" font-family="Avenir-Light" font-size="54.0" fill="#FEFFFE" transform="matrix(1.00, 0.00, -0.00, -1.00, 1373.3, 858.0)">e</text><text xml:space="preserve" font-family="Avenir-Light" font-size="54.0" fill="#FEFFFE" transform="matrix(1.00, 0.00, -0.00, -1.00, 1403.3, 858.0)"> </text><text xml:space="preserve" font-family="Avenir-Light" font-size="54.0" fill="#FEFFFE" transform="matrix(1.00, 0.00, -0.00, -1.00, 1417.3, 858.0)">I</text><text xml:space="preserve" font-family="Avenir-Light" font-size="54.0" fill="#FEFFFE" transform="matrix(1.00, 0.00, -0.00, -1.00, 1431.4, 858.0)"> </text><text xml:space="preserve" font-family="Avenir-Light" font-size="54.0" fill="#FEFFFE" transform="matrix(1.00, 0.00, -0.00, -1.00, 1445.4, 858.0)">w</text><text xml:space="preserve" font-family="Avenir-Light" font-size="54.0" fill="#FEFFFE" transform="matrix(1.00, 0.00, -0.00, -1.00, 1483.4, 858.0)">a</text><text xml:space="preserve" font-family="Avenir-Light" font-size="54.0" fill="#FEFFFE" transform="matrix(1.00, 0.00, -0.00, -1.00, 1511.5, 858.0)">s</text><text xml:space="preserve" font-family="Avenir-Light" font-size="54.0" fill="#FEFFFE" transform="matrix(1.00, 0.00, -0.00, -1.00, 1534.5, 858.0)"> </text><text xml:space="preserve" font-family="Avenir-Light" font-size="54.0" fill="#FEFFFE" transform="matrix(1.00, 0.00, -0.00, -1.00, 805.0, 784.0)">l</text><text xml:space="preserve" font-family="Avenir-Light" font-size="54.0" fill="#FEFFFE" transform="matrix(1.00, 0.00, -0.00, -1.00, 818.0, 784.0)">o</text><text xml:space="preserve" font-family="Avenir-Light" font-size="54.0" fill="#FEFFFE" transform="matrix(1.00, 0.00, -0.00, -1.00, 850.0, 784.0)">o</text><text xml:space="preserve" font-family="Avenir-Light" font-size="54.0" fill="#FEFFFE" transform="matrix(1.00, 0.00, -0.00, -1.00, 882.1, 784.0)">k</text><text xml:space="preserve" font-family="Avenir-Light" font-size="54.0" fill="#FEFFFE" transform="matrix(1.00, 0.00, -0.00, -1.00, 908.1, 784.0)">i</text><text xml:space="preserve" font-family="Avenir-Light" font-size="54.0" fill="#FEFFFE" transform="matrix(1.00, 0.00, -0.00, -1.00, 921.0, 784.0)">n</text><text xml:space="preserve" font-family="Avenir-Light" font-size="54.0" fill="#FEFFFE" transform="matrix(1.00, 0.00, -0.00, -1.00, 951.1, 784.0)">g</text><text xml:space="preserve" font-family="Avenir-Light" font-size="54.0" fill="#FEFFFE" transform="matrix(1.00, 0.00, -0.00, -1.00, 984.1, 784.0)"> </text><text xml:space="preserve" font-family="Avenir-Light" font-size="54.0" fill="#FEFFFE" transform="matrix(1.00, 0.00, -0.00, -1.00, 998.1, 784.0)">f</text><text xml:space="preserve" font-family="Avenir-Light" font-size="54.0" fill="#FEFFFE" transform="matrix(1.00, 0.00, -0.00, -1.00, 1014.1, 784.0)">o</text><text xml:space="preserve" font-family="Avenir-Light" font-size="54.0" fill="#FEFFFE" transform="matrix(1.00, 0.00, -0.00, -1.00, 1046.2, 784.0)">r</text><text xml:space="preserve" font-family="Avenir-Light" font-size="54.0" fill="#FEFFFE" transform="matrix(1.00, 0.00, -0.00, -1.00, 1059.2, 784.0)">,</text><text xml:space="preserve" font-family="Avenir-Light" font-size="54.0" fill="#FEFFFE" transform="matrix(1.00, 0.00, -0.00, -1.00, 1073.2, 784.0)"> </text><text xml:space="preserve" font-family="Avenir-Light" font-size="54.0" fill="#FEFFFE" transform="matrix(1.00, 0.00, -0.00, -1.00, 1087.3, 784.0)">s</text><text xml:space="preserve" font-family="Avenir-Light" font-size="54.0" fill="#FEFFFE" transform="matrix(1.00, 0.00, -0.00, -1.00, 1110.3, 784.0)">o</text><text xml:space="preserve" font-family="Avenir-Light" font-size="54.0" fill="#FEFFFE" transform="matrix(1.00, 0.00, -0.00, -1.00, 1142.3, 784.0)"> </text><text xml:space="preserve" font-family="Avenir-Light" font-size="54.0" fill="#FEFFFE" transform="matrix(1.00, 0.00, -0.00, -1.00, 1156.4, 784.0)">I</text><text xml:space="preserve" font-family="Avenir-Light" font-size="54.0" fill="#FEFFFE" transform="matrix(1.00, 0.00, -0.00, -1.00, 1170.4, 784.0)"> </text><text xml:space="preserve" font-family="Avenir-Light" font-size="54.0" fill="#FEFFFE" transform="matrix(1.00, 0.00, -0.00, -1.00, 1184.5, 784.0)">f</text><text xml:space="preserve" font-family="Avenir-Light" font-size="54.0" fill="#FEFFFE" transform="matrix(1.00, 0.00, -0.00, -1.00, 1200.4, 784.0)">i</text><text xml:space="preserve" font-family="Avenir-Light" font-size="54.0" fill="#FEFFFE" transform="matrix(1.00, 0.00, -0.00, -1.00, 1213.4, 784.0)">l</text><text xml:space="preserve" font-family="Avenir-Light" font-size="54.0" fill="#FEFFFE" transform="matrix(1.00, 0.00, -0.00, -1.00, 1226.4, 784.0)">l</text><text xml:space="preserve" font-family="Avenir-Light" font-size="54.0" fill="#FEFFFE" transform="matrix(1.00, 0.00, -0.00, -1.00, 1239.4, 784.0)">e</text><text xml:space="preserve" font-family="Avenir-Light" font-size="54.0" fill="#FEFFFE" transform="matrix(1.00, 0.00, -0.00, -1.00, 1269.4, 784.0)">d</text><text xml:space="preserve" font-family="Avenir-Light" font-size="54.0" fill="#FEFFFE" transform="matrix(1.00, 0.00, -0.00, -1.00, 1302.4, 784.0)"> </text><text xml:space="preserve" font-family="Avenir-Light" font-size="54.0" fill="#FEFFFE" transform="matrix(1.00, 0.00, -0.00, -1.00, 1316.4, 784.0)">o</text><text xml:space="preserve" font-family="Avenir-Light" font-size="54.0" fill="#FEFFFE" transform="matrix(1.00, 0.00, -0.00, -1.00, 1348.5, 784.0)">u</text><text xml:space="preserve" font-family="Avenir-Light" font-size="54.0" fill="#FEFFFE" transform="matrix(1.00, 0.00, -0.00, -1.00, 1378.5, 784.0)">t</text><text xml:space="preserve" font-family="Avenir-Light" font-size="54.0" fill="#FEFFFE" transform="matrix(1.00, 0.00, -0.00, -1.00, 1396.5, 784.0)"> </text><text xml:space="preserve" font-family="Avenir-Light" font-size="54.0" fill="#FEFFFE" transform="matrix(1.00, 0.00, -0.00, -1.00, 1410.6, 784.0)">a</text><text xml:space="preserve" font-family="Avenir-Light" font-size="54.0" fill="#FEFFFE" transform="matrix(1.00, 0.00, -0.00, -1.00, 1438.6, 784.0)">n</text><text xml:space="preserve" font-family="Avenir-Light" font-size="54.0" fill="#FEFFFE" transform="matrix(1.00, 0.00, -0.00, -1.00, 1468.6, 784.0)"> </text><text xml:space="preserve" font-family="Avenir-Light" font-size="54.0" fill="#FEFFFE" transform="matrix(1.00, 0.00, -0.00, -1.00, 803.0, 710.0)">a</text><text xml:space="preserve" font-family="Avenir-Light" font-size="54.0" fill="#FEFFFE" transform="matrix(1.00, 0.00, -0.00, -1.00, 831.0, 710.0)">p</text><text xml:space="preserve" font-family="Avenir-Light" font-size="54.0" fill="#FEFFFE" transform="matrix(1.00, 0.00, -0.00, -1.00, 864.0, 710.0)">p</text><text xml:space="preserve" font-family="Avenir-Light" font-size="54.0" fill="#FEFFFE" transform="matrix(1.00, 0.00, -0.00, -1.00, 897.0, 710.0)">l</text><text xml:space="preserve" font-family="Avenir-Light" font-size="54.0" fill="#FEFFFE" transform="matrix(1.00, 0.00, -0.00, -1.00, 910.0, 710.0)">i</text><text xml:space="preserve" font-family="Avenir-Light" font-size="54.0" fill="#FEFFFE" transform="matrix(1.00, 0.00, -0.00, -1.00, 923.0, 710.0)">c</text><text xml:space="preserve" font-family="Avenir-Light" font-size="54.0" fill="#FEFFFE" transform="matrix(1.00, 0.00, -0.00, -1.00, 949.0, 710.0)">a</text><text xml:space="preserve" font-family="Avenir-Light" font-size="54.0" fill="#FEFFFE" transform="matrix(1.00, 0.00, -0.00, -1.00, 977.0, 710.0)">t</text><text xml:space="preserve" font-family="Avenir-Light" font-size="54.0" fill="#FEFFFE" transform="matrix(1.00, 0.00, -0.00, -1.00, 995.0, 710.0)">i</text><text xml:space="preserve" font-family="Avenir-Light" font-size="54.0" fill="#FEFFFE" transform="matrix(1.00, 0.00, -0.00, -1.00, 1008.0, 710.0)">o</text><text xml:space="preserve" font-family="Avenir-Light" font-size="54.0" fill="#FEFFFE" transform="matrix(1.00, 0.00, -0.00, -1.00, 1040.1, 710.0)">n</text><text xml:space="preserve" font-family="Avenir-Light" font-size="54.0" fill="#FEFFFE" transform="matrix(1.00, 0.00, -0.00, -1.00, 1070.1, 710.0)"> </text><text xml:space="preserve" font-family="Avenir-Light" font-size="54.0" fill="#FEFFFE" transform="matrix(1.00, 0.00, -0.00, -1.00, 1084.1, 710.0)">w</text><text xml:space="preserve" font-family="Avenir-Light" font-size="54.0" fill="#FEFFFE" transform="matrix(1.00, 0.00, -0.00, -1.00, 1122.1, 710.0)">i</text><text xml:space="preserve" font-family="Avenir-Light" font-size="54.0" fill="#FEFFFE" transform="matrix(1.00, 0.00, -0.00, -1.00, 1135.1, 710.0)">t</text><text xml:space="preserve" font-family="Avenir-Light" font-size="54.0" fill="#FEFFFE" transform="matrix(1.00, 0.00, -0.00, -1.00, 1153.1, 710.0)">h</text><text xml:space="preserve" font-family="Avenir-Light" font-size="54.0" fill="#FEFFFE" transform="matrix(1.00, 0.00, -0.00, -1.00, 1183.2, 710.0)"> </text><text xml:space="preserve" font-family="Avenir-Light" font-size="54.0" fill="#FEFFFE" transform="matrix(1.00, 0.00, -0.00, -1.00, 1197.2, 710.0)">s</text><text xml:space="preserve" font-family="Avenir-Light" font-size="54.0" fill="#FEFFFE" transform="matrix(1.00, 0.00, -0.00, -1.00, 1220.2, 710.0)">o</text><text xml:space="preserve" font-family="Avenir-Light" font-size="54.0" fill="#FEFFFE" transform="matrix(1.00, 0.00, -0.00, -1.00, 1252.3, 710.0)">m</text><text xml:space="preserve" font-family="Avenir-Light" font-size="54.0" fill="#FEFFFE" transform="matrix(1.00, 0.00, -0.00, -1.00, 1298.3, 710.0)">e</text><text xml:space="preserve" font-family="Avenir-Light" font-size="54.0" fill="#FEFFFE" transform="matrix(1.00, 0.00, -0.00, -1.00, 1328.3, 710.0)"> </text><text xml:space="preserve" font-family="Avenir-Light" font-size="54.0" fill="#FEFFFE" transform="matrix(1.00, 0.00, -0.00, -1.00, 1342.4, 710.0)">e</text><text xml:space="preserve" font-family="Avenir-Light" font-size="54.0" fill="#FEFFFE" transform="matrix(1.00, 0.00, -0.00, -1.00, 1372.4, 710.0)">s</text><text xml:space="preserve" font-family="Avenir-Light" font-size="54.0" fill="#FEFFFE" transform="matrix(1.00, 0.00, -0.00, -1.00, 1395.4, 710.0)">s</text><text xml:space="preserve" font-family="Avenir-Light" font-size="54.0" fill="#FEFFFE" transform="matrix(1.00, 0.00, -0.00, -1.00, 1418.4, 710.0)">a</text><text xml:space="preserve" font-family="Avenir-Light" font-size="54.0" fill="#FEFFFE" transform="matrix(1.00, 0.00, -0.00, -1.00, 1446.4, 710.0)">y</text><text xml:space="preserve" font-family="Avenir-Light" font-size="54.0" fill="#FEFFFE" transform="matrix(1.00, 0.00, -0.00, -1.00, 1471.4, 710.0)"> </text><text xml:space="preserve" font-family="Avenir-Light" font-size="54.0" fill="#FEFFFE" transform="matrix(1.00, 0.00, -0.00, -1.00, 730.0, 636.0)">q</text><text xml:space="preserve" font-family="Avenir-Light" font-size="54.0" fill="#FEFFFE" transform="matrix(1.00, 0.00, -0.00, -1.00, 763.0, 636.0)">u</text><text xml:space="preserve" font-family="Avenir-Light" font-size="54.0" fill="#FEFFFE" transform="matrix(1.00, 0.00, -0.00, -1.00, 793.0, 636.0)">e</text><text xml:space="preserve" font-family="Avenir-Light" font-size="54.0" fill="#FEFFFE" transform="matrix(1.00, 0.00, -0.00, -1.00, 823.0, 636.0)">s</text><text xml:space="preserve" font-family="Avenir-Light" font-size="54.0" fill="#FEFFFE" transform="matrix(1.00, 0.00, -0.00, -1.00, 846.0, 636.0)">t</text><text xml:space="preserve" font-family="Avenir-Light" font-size="54.0" fill="#FEFFFE" transform="matrix(1.00, 0.00, -0.00, -1.00, 864.1, 636.0)">i</text><text xml:space="preserve" font-family="Avenir-Light" font-size="54.0" fill="#FEFFFE" transform="matrix(1.00, 0.00, -0.00, -1.00, 877.0, 636.0)">o</text><text xml:space="preserve" font-family="Avenir-Light" font-size="54.0" fill="#FEFFFE" transform="matrix(1.00, 0.00, -0.00, -1.00, 909.1, 636.0)">n</text><text xml:space="preserve" font-family="Avenir-Light" font-size="54.0" fill="#FEFFFE" transform="matrix(1.00, 0.00, -0.00, -1.00, 939.1, 636.0)">s</text><text xml:space="preserve" font-family="Avenir-Light" font-size="54.0" fill="#FEFFFE" transform="matrix(1.00, 0.00, -0.00, -1.00, 962.1, 636.0)"> </text><text xml:space="preserve" font-family="Avenir-Light" font-size="54.0" fill="#FEFFFE" transform="matrix(1.00, 0.00, -0.00, -1.00, 976.2, 636.0)">a</text><text xml:space="preserve" font-family="Avenir-Light" font-size="54.0" fill="#FEFFFE" transform="matrix(1.00, 0.00, -0.00, -1.00, 1004.2, 636.0)">n</text><text xml:space="preserve" font-family="Avenir-Light" font-size="54.0" fill="#FEFFFE" transform="matrix(1.00, 0.00, -0.00, -1.00, 1034.2, 636.0)">d</text><text xml:space="preserve" font-family="Avenir-Light" font-size="54.0" fill="#FEFFFE" transform="matrix(1.00, 0.00, -0.00, -1.00, 1067.2, 636.0)"> </text><text xml:space="preserve" font-family="Avenir-Light" font-size="54.0" fill="#FEFFFE" transform="matrix(1.00, 0.00, -0.00, -1.00, 1081.3, 636.0)">h</text><text xml:space="preserve" font-family="Avenir-Light" font-size="54.0" fill="#FEFFFE" transform="matrix(1.00, 0.00, -0.00, -1.00, 1111.3, 636.0)">o</text><text xml:space="preserve" font-family="Avenir-Light" font-size="54.0" fill="#FEFFFE" transform="matrix(1.00, 0.00, -0.00, -1.00, 1143.4, 636.0)">p</text><text xml:space="preserve" font-family="Avenir-Light" font-size="54.0" fill="#FEFFFE" transform="matrix(1.00, 0.00, -0.00, -1.00, 1176.4, 636.0)">e</text><text xml:space="preserve" font-family="Avenir-Light" font-size="54.0" fill="#FEFFFE" transform="matrix(1.00, 0.00, -0.00, -1.00, 1206.4, 636.0)">d</text><text xml:space="preserve" font-family="Avenir-Light" font-size="54.0" fill="#FEFFFE" transform="matrix(1.00, 0.00, -0.00, -1.00, 1239.4, 636.0)"> </text><text xml:space="preserve" font-family="Avenir-Light" font-size="54.0" fill="#FEFFFE" transform="matrix(1.00, 0.00, -0.00, -1.00, 1253.4, 636.0)">f</text><text xml:space="preserve" font-family="Avenir-Light" font-size="54.0" fill="#FEFFFE" transform="matrix(1.00, 0.00, -0.00, -1.00, 1269.4, 636.0)">o</text><text xml:space="preserve" font-family="Avenir-Light" font-size="54.0" fill="#FEFFFE" transform="matrix(1.00, 0.00, -0.00, -1.00, 1301.5, 636.0)">r</text><text xml:space="preserve" font-family="Avenir-Light" font-size="54.0" fill="#FEFFFE" transform="matrix(1.00, 0.00, -0.00, -1.00, 1319.5, 636.0)"> </text><text xml:space="preserve" font-family="Avenir-Light" font-size="54.0" fill="#FEFFFE" transform="matrix(1.00, 0.00, -0.00, -1.00, 1333.5, 636.0)">t</text><text xml:space="preserve" font-family="Avenir-Light" font-size="54.0" fill="#FEFFFE" transform="matrix(1.00, 0.00, -0.00, -1.00, 1351.5, 636.0)">h</text><text xml:space="preserve" font-family="Avenir-Light" font-size="54.0" fill="#FEFFFE" transform="matrix(1.00, 0.00, -0.00, -1.00, 1381.6, 636.0)">e</text><text xml:space="preserve" font-family="Avenir-Light" font-size="54.0" fill="#FEFFFE" transform="matrix(1.00, 0.00, -0.00, -1.00, 1411.6, 636.0)"> </text><text xml:space="preserve" font-family="Avenir-Light" font-size="54.0" fill="#FEFFFE" transform="matrix(1.00, 0.00, -0.00, -1.00, 1425.6, 636.0)">b</text><text xml:space="preserve" font-family="Avenir-Light" font-size="54.0" fill="#FEFFFE" transform="matrix(1.00, 0.00, -0.00, -1.00, 1458.6, 636.0)">e</text><text xml:space="preserve" font-family="Avenir-Light" font-size="54.0" fill="#FEFFFE" transform="matrix(1.00, 0.00, -0.00, -1.00, 1488.6, 636.0)">s</text><text xml:space="preserve" font-family="Avenir-Light" font-size="54.0" fill="#FEFFFE" transform="matrix(1.00, 0.00, -0.00, -1.00, 1511.7, 636.0)">t</text><text xml:space="preserve" font-family="Avenir-Light" font-size="54.0" fill="#FEFFFE" transform="matrix(1.00, 0.00, -0.00, -1.00, 1529.6, 636.0)">.</text></g></svg>