<?xml version="1.0" encoding="UTF-8" standalone="no"?><svg xmlns="http://www.w3.org/2000/svg" xmlns:xlink="http://www.w3.org/1999/xlink" clip-rule="evenodd" stroke-miterlimit="4.00" viewBox="0 0 1920 1080"><desc>SVG generated by Keynote</desc><defs></defs><g transform="matrix(1.00, 0.00, -0.00, -1.00, 0.0, 1080.0)"><path d="M 0.0 1080.0 L 1920.0 1080.0 L 1920.0 0.0 L 0.0 0.0 Z M 0.0 1080.0 " fill="#41AAC9"></path><text xml:space="preserve" font-family="Avenir-Black" font-weight="bold" font-size="86.0" fill="#FEFFFF" transform="matrix(1.00, 0.00, -0.00, -1.00, 384.0, 557.0)">D</text><text xml:space="preserve" font-family="Avenir-Black" font-weight="bold" font-size="86.0" fill="#FEFFFF" transform="matrix(1.00, 0.00, -0.00, -1.00, 463.0, 557.0)">O</text><text xml:space="preserve" font-family="Avenir-Black" font-weight="bold" font-size="86.0" fill="#FEFFFF" transform="matrix(1.00, 0.00, -0.00, -1.00, 548.3, 557.0)">N</text><text xml:space="preserve" font-family="Avenir-Black" font-weight="bold" font-size="86.0" fill="#FEFFFF" transform="matrix(1.00, 0.00, -0.00, -1.00, 632.2, 557.0)">A</text><text xml:space="preserve" font-family="Avenir-Black" font-weight="bold" font-size="86.0" fill="#FEFFFF" transform="matrix(1.00, 0.00, -0.00, -1.00, 701.8, 557.0)">T</text><text xml:space="preserve" font-family="Avenir-Black" font-weight="bold" font-size="86.0" fill="#FEFFFF" transform="matrix(1.00, 0.00, -0.00, -1.00, 764.9, 557.0)">E</text><text xml:space="preserve" font-family="Avenir-Black" font-weight="bold" font-size="86.0" fill="#FEFFFF" transform="matrix(1.00, 0.00, -0.00, -1.00, 832.8, 557.0)"> </text><text xml:space="preserve" font-family="Avenir-Black" font-weight="bold" font-size="86.0" fill="#FEFFFF" transform="matrix(1.00, 0.00, -0.00, -1.00, 872.0, 557.0)">R</text><text xml:space="preserve" font-family="Avenir-Black" font-weight="bold" font-size="86.0" fill="#FEFFFF" transform="matrix(1.00, 0.00, -0.00, -1.00, 941.5, 557.0)">E</text><text xml:space="preserve" font-family="Avenir-Black" font-weight="bold" font-size="86.0" fill="#FEFFFF" transform="matrix(1.00, 0.00, -0.00, -1.00, 1009.5, 557.0)">S</text><text xml:space="preserve" font-family="Avenir-Black" font-weight="bold" font-size="86.0" fill="#FEFFFF" transform="matrix(1.00, 0.00, -0.00, -1.00, 1072.6, 557.0)">O</text><text xml:space="preserve" font-family="Avenir-Black" font-weight="bold" font-size="86.0" fill="#FEFFFF" transform="matrix(1.00, 0.00, -0.00, -1.00, 1157.9, 557.0)">U</text><text xml:space="preserve" font-family="Avenir-Black" font-weight="bold" font-size="86.0" fill="#FEFFFF" transform="matrix(1.00, 0.00, -0.00, -1.00, 1235.4, 557.0)">R</text><text xml:space="preserve" font-family="Avenir-Black" font-weight="bold" font-size="86.0" fill="#FEFFFF" transform="matrix(1.00, 0.00, -0.00, -1.00, 1304.9, 557.0)">C</text><text xml:space="preserve" font-family="Avenir-Black" font-weight="bold" font-size="86.0" fill="#FEFFFF" transform="matrix(1.00, 0.00, -0.00, -1.00, 1377.6, 557.0)">E</text><text xml:space="preserve" font-family="Avenir-Black" font-weight="bold" font-size="86.0" fill="#FEFFFF" transform="matrix(1.00, 0.00, -0.00, -1.00, 1445.5, 557.0)">S</text><text xml:space="preserve" font-family="Avenir-Black" font-weight="bold" font-size="86.0" fill="#FEFFFF" transform="matrix(1.00, 0.00, -0.00, -1.00, 1508.6, 557.0)">.</text></g></svg>