<?xml version="1.0" encoding="UTF-8" standalone="no"?><svg xmlns="http://www.w3.org/2000/svg" xmlns:xlink="http://www.w3.org/1999/xlink" clip-rule="evenodd" stroke-miterlimit="4.00" viewBox="0 0 1920 1080"><desc>SVG generated by Keynote</desc><defs></defs><g transform="matrix(1.00, 0.00, -0.00, -1.00, 0.0, 1080.0)"><path d="M 0.0 1080.0 L 1920.0 1080.0 L 1920.0 0.0 L 0.0 0.0 Z M 0.0 1080.0 " fill="#41AAC9"></path><text xml:space="preserve" font-family="Avenir-Black" font-weight="bold" font-size="86.0" fill="#FEFFFF" transform="matrix(1.00, 0.00, -0.00, -1.00, 653.6, 556.9)">F</text><text xml:space="preserve" font-family="Avenir-Black" font-weight="bold" font-size="86.0" fill="#FEFFFF" transform="matrix(1.00, 0.00, -0.00, -1.00, 718.3, 556.9)">U</text><text xml:space="preserve" font-family="Avenir-Black" font-weight="bold" font-size="86.0" fill="#FEFFFF" transform="matrix(1.00, 0.00, -0.00, -1.00, 795.8, 556.9)">N</text><text xml:space="preserve" font-family="Avenir-Black" font-weight="bold" font-size="86.0" fill="#FEFFFF" transform="matrix(1.00, 0.00, -0.00, -1.00, 879.7, 556.9)">D</text><text xml:space="preserve" font-family="Avenir-Black" font-weight="bold" font-size="86.0" fill="#FEFFFF" transform="matrix(1.00, 0.00, -0.00, -1.00, 958.7, 556.9)"> </text><text xml:space="preserve" font-family="Avenir-Black" font-weight="bold" font-size="86.0" fill="#FEFFFF" transform="matrix(1.00, 0.00, -0.00, -1.00, 997.9, 556.9)">T</text><text xml:space="preserve" font-family="Avenir-Black" font-weight="bold" font-size="86.0" fill="#FEFFFF" transform="matrix(1.00, 0.00, -0.00, -1.00, 1061.0, 556.9)">H</text><text xml:space="preserve" font-family="Avenir-Black" font-weight="bold" font-size="86.0" fill="#FEFFFF" transform="matrix(1.00, 0.00, -0.00, -1.00, 1140.1, 556.9)">E</text><text xml:space="preserve" font-family="Avenir-Black" font-weight="bold" font-size="86.0" fill="#FEFFFF" transform="matrix(1.00, 0.00, -0.00, -1.00, 1208.0, 556.9)"> </text><text xml:space="preserve" font-family="Avenir-Black" font-weight="bold" font-size="86.0" fill="#FEFFFF" transform="matrix(1.00, 0.00, -0.00, -1.00, 1247.2, 556.9)">P</text><text xml:space="preserve" font-family="Avenir-Black" font-weight="bold" font-size="86.0" fill="#FEFFFF" transform="matrix(1.00, 0.00, -0.00, -1.00, 1315.2, 556.9)">R</text><text xml:space="preserve" font-family="Avenir-Black" font-weight="bold" font-size="86.0" fill="#FEFFFF" transform="matrix(1.00, 0.00, -0.00, -1.00, 1384.6, 556.9)">O</text><text xml:space="preserve" font-family="Avenir-Black" font-weight="bold" font-size="86.0" fill="#FEFFFF" transform="matrix(1.00, 0.00, -0.00, -1.00, 1470.0, 556.9)">G</text><text xml:space="preserve" font-family="Avenir-Black" font-weight="bold" font-size="86.0" fill="#FEFFFF" transform="matrix(1.00, 0.00, -0.00, -1.00, 1550.6, 556.9)">R</text><text xml:space="preserve" font-family="Avenir-Black" font-weight="bold" font-size="86.0" fill="#FEFFFF" transform="matrix(1.00, 0.00, -0.00, -1.00, 1620.1, 556.9)">A</text><text xml:space="preserve" font-family="Avenir-Black" font-weight="bold" font-size="86.0" fill="#FEFFFF" transform="matrix(1.00, 0.00, -0.00, -1.00, 1697.6, 556.9)">M</text><text xml:space="preserve" font-family="Avenir-Black" font-weight="bold" font-size="86.0" fill="#FEFFFF" transform="matrix(1.00, 0.00, -0.00, -1.00, 1792.5, 556.9)">.</text></g></svg>