<?xml version="1.0" encoding="UTF-8" standalone="no"?><svg xmlns="http://www.w3.org/2000/svg" xmlns:xlink="http://www.w3.org/1999/xlink" clip-rule="evenodd" stroke-miterlimit="4.00" viewBox="0 0 1920 1080"><desc>SVG generated by Keynote</desc><defs></defs><g transform="matrix(1.00, 0.00, -0.00, -1.00, 0.0, 1080.0)"><path d="M 0.0 1080.0 L 1920.0 1080.0 L 1920.0 0.0 L 0.0 0.0 Z M 0.0 1080.0 " fill="#41AAC9"></path><g><clipPath id="clip-34"><path d="M 960.0 1080.0 L 1920.0 1080.0 L 1920.0 0.0 L 960.0 0.0 Z M 960.0 1080.0 "></path></clipPath><g clip-path="url(#clip-34)"><image xlink:href="../../64FCF833-99D5-4920-A197-3AB7B9400454/assets/CD797FA69CDDC8D48C91071884AF0AD3.jpeg" width="1365.00" height="767.00" transform="matrix(1.41, 0.00, -0.00, -1.41, 480.0, 1080.0)"></image></g></g><text xml:space="preserve" font-family="Avenir-Light" font-size="46.4" fill="#FEFFFF" transform="matrix(1.00, 0.00, -0.00, -1.00, 117.0, 809.0)">A</text><text xml:space="preserve" font-family="Avenir-Light" font-size="46.4" fill="#FEFFFF" transform="matrix(1.00, 0.00, -0.00, -1.00, 148.8, 809.0)">n</text><text xml:space="preserve" font-family="Avenir-Light" font-size="46.4" fill="#FEFFFF" transform="matrix(1.00, 0.00, -0.00, -1.00, 174.6, 809.0)">d</text><text xml:space="preserve" font-family="Avenir-Light" font-size="46.4" fill="#FEFFFF" transform="matrix(1.00, 0.00, -0.00, -1.00, 203.0, 809.0)"> </text><text xml:space="preserve" font-family="Avenir-Light" font-size="46.4" fill="#FEFFFF" transform="matrix(1.00, 0.00, -0.00, -1.00, 215.0, 809.0)">t</text><text xml:space="preserve" font-family="Avenir-Light" font-size="46.4" fill="#FEFFFF" transform="matrix(1.00, 0.00, -0.00, -1.00, 230.5, 809.0)">h</text><text xml:space="preserve" font-family="Avenir-Light" font-size="46.4" fill="#FEFFFF" transform="matrix(1.00, 0.00, -0.00, -1.00, 256.3, 809.0)">a</text><text xml:space="preserve" font-family="Avenir-Light" font-size="46.4" fill="#FEFFFF" transform="matrix(1.00, 0.00, -0.00, -1.00, 280.4, 809.0)">t</text><text xml:space="preserve" font-family="Avenir-Light" font-size="46.4" fill="#FEFFFF" transform="matrix(1.00, 0.00, -0.00, -1.00, 295.9, 809.0)">’</text><text xml:space="preserve" font-family="Avenir-Light" font-size="46.4" fill="#FEFFFF" transform="matrix(1.00, 0.00, -0.00, -1.00, 302.8, 809.0)">s</text><text xml:space="preserve" font-family="Avenir-Light" font-size="46.4" fill="#FEFFFF" transform="matrix(1.00, 0.00, -0.00, -1.00, 322.6, 809.0)"> </text><text xml:space="preserve" font-family="Avenir-Light" font-size="46.4" fill="#FEFFFF" transform="matrix(1.00, 0.00, -0.00, -1.00, 334.7, 809.0)">h</text><text xml:space="preserve" font-family="Avenir-Light" font-size="46.4" fill="#FEFFFF" transform="matrix(1.00, 0.00, -0.00, -1.00, 360.5, 809.0)">o</text><text xml:space="preserve" font-family="Avenir-Light" font-size="46.4" fill="#FEFFFF" transform="matrix(1.00, 0.00, -0.00, -1.00, 388.0, 809.0)">w</text><text xml:space="preserve" font-family="Avenir-Light" font-size="46.4" fill="#FEFFFF" transform="matrix(1.00, 0.00, -0.00, -1.00, 420.7, 809.0)"> </text><text xml:space="preserve" font-family="Avenir-Light" font-size="46.4" fill="#FEFFFF" transform="matrix(1.00, 0.00, -0.00, -1.00, 432.8, 809.0)">I</text><text xml:space="preserve" font-family="Avenir-Light" font-size="46.4" fill="#FEFFFF" transform="matrix(1.00, 0.00, -0.00, -1.00, 444.8, 809.0)"> </text><text xml:space="preserve" font-family="Avenir-Light" font-size="46.4" fill="#FEFFFF" transform="matrix(1.00, 0.00, -0.00, -1.00, 456.9, 809.0)">b</text><text xml:space="preserve" font-family="Avenir-Light" font-size="46.4" fill="#FEFFFF" transform="matrix(1.00, 0.00, -0.00, -1.00, 485.3, 809.0)">e</text><text xml:space="preserve" font-family="Avenir-Light" font-size="46.4" fill="#FEFFFF" transform="matrix(1.00, 0.00, -0.00, -1.00, 511.1, 809.0)">c</text><text xml:space="preserve" font-family="Avenir-Light" font-size="46.4" fill="#FEFFFF" transform="matrix(1.00, 0.00, -0.00, -1.00, 533.4, 809.0)">a</text><text xml:space="preserve" font-family="Avenir-Light" font-size="46.4" fill="#FEFFFF" transform="matrix(1.00, 0.00, -0.00, -1.00, 557.5, 809.0)">m</text><text xml:space="preserve" font-family="Avenir-Light" font-size="46.4" fill="#FEFFFF" transform="matrix(1.00, 0.00, -0.00, -1.00, 597.0, 809.0)">e</text><text xml:space="preserve" font-family="Avenir-Light" font-size="46.4" fill="#FEFFFF" transform="matrix(1.00, 0.00, -0.00, -1.00, 622.8, 809.0)"> </text><text xml:space="preserve" font-family="Avenir-Light" font-size="46.4" fill="#FEFFFF" transform="matrix(1.00, 0.00, -0.00, -1.00, 634.9, 809.0)"> </text><text xml:space="preserve" font-family="Avenir-Light" font-size="46.4" fill="#FEFFFF" transform="matrix(1.00, 0.00, -0.00, -1.00, 117.0, 746.0)">a</text><text xml:space="preserve" font-family="Avenir-Light" font-size="46.4" fill="#FEFFFF" transform="matrix(1.00, 0.00, -0.00, -1.00, 141.1, 746.0)">n</text><text xml:space="preserve" font-family="Avenir-Light" font-size="46.4" fill="#FEFFFF" transform="matrix(1.00, 0.00, -0.00, -1.00, 166.9, 746.0)"> </text><text xml:space="preserve" font-family="Avenir-Light" font-size="46.4" fill="#FEFFFF" transform="matrix(1.00, 0.00, -0.00, -1.00, 179.0, 746.0)"> </text><text xml:space="preserve" font-family="Avenir-Black" font-weight="bold" font-size="46.4" fill="#FEFFFF" transform="matrix(1.00, 0.00, -0.00, -1.00, 191.0, 746.0)">A</text><text xml:space="preserve" font-family="Avenir-Black" font-weight="bold" font-size="46.4" fill="#FEFFFF" transform="matrix(1.00, 0.00, -0.00, -1.00, 225.4, 746.0)">m</text><text xml:space="preserve" font-family="Avenir-Black" font-weight="bold" font-size="46.4" fill="#FEFFFF" transform="matrix(1.00, 0.00, -0.00, -1.00, 265.8, 746.0)">b</text><text xml:space="preserve" font-family="Avenir-Black" font-weight="bold" font-size="46.4" fill="#FEFFFF" transform="matrix(1.00, 0.00, -0.00, -1.00, 295.0, 746.0)">a</text><text xml:space="preserve" font-family="Avenir-Black" font-weight="bold" font-size="46.4" fill="#FEFFFF" transform="matrix(1.00, 0.00, -0.00, -1.00, 320.0, 746.0)">s</text><text xml:space="preserve" font-family="Avenir-Black" font-weight="bold" font-size="46.4" fill="#FEFFFF" transform="matrix(1.00, 0.00, -0.00, -1.00, 341.4, 746.0)">s</text><text xml:space="preserve" font-family="Avenir-Black" font-weight="bold" font-size="46.4" fill="#FEFFFF" transform="matrix(1.00, 0.00, -0.00, -1.00, 362.9, 746.0)">a</text><text xml:space="preserve" font-family="Avenir-Black" font-weight="bold" font-size="46.4" fill="#FEFFFF" transform="matrix(1.00, 0.00, -0.00, -1.00, 387.8, 746.0)">d</text><text xml:space="preserve" font-family="Avenir-Black" font-weight="bold" font-size="46.4" fill="#FEFFFF" transform="matrix(1.00, 0.00, -0.00, -1.00, 417.1, 746.0)">o</text><text xml:space="preserve" font-family="Avenir-Black" font-weight="bold" font-size="46.4" fill="#FEFFFF" transform="matrix(1.00, 0.00, -0.00, -1.00, 445.4, 746.0)">r</text><text xml:space="preserve" font-family="Avenir-Black" font-weight="bold" font-size="46.4" fill="#FEFFFF" transform="matrix(1.00, 0.00, -0.00, -1.00, 464.3, 746.0)"> </text><text xml:space="preserve" font-family="Avenir-Black" font-weight="bold" font-size="46.4" fill="#FEFFFF" transform="matrix(1.00, 0.00, -0.00, -1.00, 478.0, 746.0)">f</text><text xml:space="preserve" font-family="Avenir-Black" font-weight="bold" font-size="46.4" fill="#FEFFFF" transform="matrix(1.00, 0.00, -0.00, -1.00, 495.2, 746.0)">o</text><text xml:space="preserve" font-family="Avenir-Black" font-weight="bold" font-size="46.4" fill="#FEFFFF" transform="matrix(1.00, 0.00, -0.00, -1.00, 523.5, 746.0)">r</text><text xml:space="preserve" font-family="Avenir-Black" font-weight="bold" font-size="46.4" fill="#FEFFFF" transform="matrix(1.00, 0.00, -0.00, -1.00, 542.4, 746.0)"> </text><text xml:space="preserve" font-family="Avenir-Black" font-weight="bold" font-size="46.4" fill="#FEFFFF" transform="matrix(1.00, 0.00, -0.00, -1.00, 556.1, 746.0)">S</text><text xml:space="preserve" font-family="Avenir-Black" font-weight="bold" font-size="46.4" fill="#FEFFFF" transform="matrix(1.00, 0.00, -0.00, -1.00, 582.8, 746.0)">o</text><text xml:space="preserve" font-family="Avenir-Black" font-weight="bold" font-size="46.4" fill="#FEFFFF" transform="matrix(1.00, 0.00, -0.00, -1.00, 611.1, 746.0)">c</text><text xml:space="preserve" font-family="Avenir-Black" font-weight="bold" font-size="46.4" fill="#FEFFFF" transform="matrix(1.00, 0.00, -0.00, -1.00, 633.5, 746.0)">i</text><text xml:space="preserve" font-family="Avenir-Black" font-weight="bold" font-size="46.4" fill="#FEFFFF" transform="matrix(1.00, 0.00, -0.00, -1.00, 645.5, 746.0)">a</text><text xml:space="preserve" font-family="Avenir-Black" font-weight="bold" font-size="46.4" fill="#FEFFFF" transform="matrix(1.00, 0.00, -0.00, -1.00, 670.4, 746.0)">l</text><text xml:space="preserve" font-family="Avenir-Black" font-weight="bold" font-size="46.4" fill="#FEFFFF" transform="matrix(1.00, 0.00, -0.00, -1.00, 682.5, 746.0)"> </text><text xml:space="preserve" font-family="Avenir-Black" font-weight="bold" font-size="46.4" fill="#FEFFFF" transform="matrix(1.00, 0.00, -0.00, -1.00, 117.0, 683.0)">C</text><text xml:space="preserve" font-family="Avenir-Black" font-weight="bold" font-size="46.4" fill="#FEFFFF" transform="matrix(1.00, 0.00, -0.00, -1.00, 148.8, 683.0)">h</text><text xml:space="preserve" font-family="Avenir-Black" font-weight="bold" font-size="46.4" fill="#FEFFFF" transform="matrix(1.00, 0.00, -0.00, -1.00, 175.4, 683.0)">a</text><text xml:space="preserve" font-family="Avenir-Black" font-weight="bold" font-size="46.4" fill="#FEFFFF" transform="matrix(1.00, 0.00, -0.00, -1.00, 200.4, 683.0)">n</text><text xml:space="preserve" font-family="Avenir-Black" font-weight="bold" font-size="46.4" fill="#FEFFFF" transform="matrix(1.00, 0.00, -0.00, -1.00, 227.0, 683.0)">g</text><text xml:space="preserve" font-family="Avenir-Black" font-weight="bold" font-size="46.4" fill="#FEFFFF" transform="matrix(1.00, 0.00, -0.00, -1.00, 256.2, 683.0)">e</text><text xml:space="preserve" font-family="Avenir-Black" font-weight="bold" font-size="46.4" fill="#FEFFFF" transform="matrix(1.00, 0.00, -0.00, -1.00, 282.9, 683.0)"> </text><text xml:space="preserve" font-family="Avenir-Black" font-weight="bold" font-size="46.4" fill="#FEFFFF" transform="matrix(1.00, 0.00, -0.00, -1.00, 296.6, 683.0)">a</text><text xml:space="preserve" font-family="Avenir-Black" font-weight="bold" font-size="46.4" fill="#FEFFFF" transform="matrix(1.00, 0.00, -0.00, -1.00, 321.5, 683.0)">n</text><text xml:space="preserve" font-family="Avenir-Black" font-weight="bold" font-size="46.4" fill="#FEFFFF" transform="matrix(1.00, 0.00, -0.00, -1.00, 348.2, 683.0)">d</text><text xml:space="preserve" font-family="Avenir-Black" font-weight="bold" font-size="46.4" fill="#FEFFFF" transform="matrix(1.00, 0.00, -0.00, -1.00, 377.4, 683.0)"> </text><text xml:space="preserve" font-family="Avenir-Black" font-weight="bold" font-size="46.4" fill="#FEFFFF" transform="matrix(1.00, 0.00, -0.00, -1.00, 391.1, 683.0)">U</text><text xml:space="preserve" font-family="Avenir-Black" font-weight="bold" font-size="46.4" fill="#FEFFFF" transform="matrix(1.00, 0.00, -0.00, -1.00, 425.5, 683.0)">n</text><text xml:space="preserve" font-family="Avenir-Black" font-weight="bold" font-size="46.4" fill="#FEFFFF" transform="matrix(1.00, 0.00, -0.00, -1.00, 452.2, 683.0)">d</text><text xml:space="preserve" font-family="Avenir-Black" font-weight="bold" font-size="46.4" fill="#FEFFFF" transform="matrix(1.00, 0.00, -0.00, -1.00, 481.4, 683.0)">e</text><text xml:space="preserve" font-family="Avenir-Black" font-weight="bold" font-size="46.4" fill="#FEFFFF" transform="matrix(1.00, 0.00, -0.00, -1.00, 508.1, 683.0)">r</text><text xml:space="preserve" font-family="Avenir-Black" font-weight="bold" font-size="46.4" fill="#FEFFFF" transform="matrix(1.00, 0.00, -0.00, -1.00, 526.9, 683.0)">s</text><text xml:space="preserve" font-family="Avenir-Black" font-weight="bold" font-size="46.4" fill="#FEFFFF" transform="matrix(1.00, 0.00, -0.00, -1.00, 548.4, 683.0)">t</text><text xml:space="preserve" font-family="Avenir-Black" font-weight="bold" font-size="46.4" fill="#FEFFFF" transform="matrix(1.00, 0.00, -0.00, -1.00, 567.3, 683.0)">a</text><text xml:space="preserve" font-family="Avenir-Black" font-weight="bold" font-size="46.4" fill="#FEFFFF" transform="matrix(1.00, 0.00, -0.00, -1.00, 592.2, 683.0)">n</text><text xml:space="preserve" font-family="Avenir-Black" font-weight="bold" font-size="46.4" fill="#FEFFFF" transform="matrix(1.00, 0.00, -0.00, -1.00, 618.9, 683.0)">d</text><text xml:space="preserve" font-family="Avenir-Black" font-weight="bold" font-size="46.4" fill="#FEFFFF" transform="matrix(1.00, 0.00, -0.00, -1.00, 648.1, 683.0)">i</text><text xml:space="preserve" font-family="Avenir-Black" font-weight="bold" font-size="46.4" fill="#FEFFFF" transform="matrix(1.00, 0.00, -0.00, -1.00, 660.2, 683.0)">n</text><text xml:space="preserve" font-family="Avenir-Black" font-weight="bold" font-size="46.4" fill="#FEFFFF" transform="matrix(1.00, 0.00, -0.00, -1.00, 686.8, 683.0)">g</text><text xml:space="preserve" font-family="Avenir-Light" font-size="46.4" fill="#FEFFFF" transform="matrix(1.00, 0.00, -0.00, -1.00, 716.1, 683.0)">,</text><text xml:space="preserve" font-family="Avenir-Light" font-size="46.4" fill="#FEFFFF" transform="matrix(1.00, 0.00, -0.00, -1.00, 728.1, 683.0)"> </text><text xml:space="preserve" font-family="Avenir-Light" font-size="46.4" fill="#FEFFFF" transform="matrix(1.00, 0.00, -0.00, -1.00, 740.2, 683.0)">a</text><text xml:space="preserve" font-family="Avenir-Light" font-size="46.4" fill="#FEFFFF" transform="matrix(1.00, 0.00, -0.00, -1.00, 764.3, 683.0)">n</text><text xml:space="preserve" font-family="Avenir-Light" font-size="46.4" fill="#FEFFFF" transform="matrix(1.00, 0.00, -0.00, -1.00, 790.1, 683.0)">d</text><text xml:space="preserve" font-family="Avenir-Light" font-size="46.4" fill="#FEFFFF" transform="matrix(1.00, 0.00, -0.00, -1.00, 818.4, 683.0)"> </text><text xml:space="preserve" font-family="Avenir-Light" font-size="46.4" fill="#FEFFFF" transform="matrix(1.00, 0.00, -0.00, -1.00, 117.0, 620.0)">b</text><text xml:space="preserve" font-family="Avenir-Light" font-size="46.4" fill="#FEFFFF" transform="matrix(1.00, 0.00, -0.00, -1.00, 145.4, 620.0)">e</text><text xml:space="preserve" font-family="Avenir-Light" font-size="46.4" fill="#FEFFFF" transform="matrix(1.00, 0.00, -0.00, -1.00, 171.2, 620.0)">c</text><text xml:space="preserve" font-family="Avenir-Light" font-size="46.4" fill="#FEFFFF" transform="matrix(1.00, 0.00, -0.00, -1.00, 193.5, 620.0)">a</text><text xml:space="preserve" font-family="Avenir-Light" font-size="46.4" fill="#FEFFFF" transform="matrix(1.00, 0.00, -0.00, -1.00, 217.6, 620.0)">m</text><text xml:space="preserve" font-family="Avenir-Light" font-size="46.4" fill="#FEFFFF" transform="matrix(1.00, 0.00, -0.00, -1.00, 257.1, 620.0)">e</text><text xml:space="preserve" font-family="Avenir-Light" font-size="46.4" fill="#FEFFFF" transform="matrix(1.00, 0.00, -0.00, -1.00, 282.9, 620.0)"> </text><text xml:space="preserve" font-family="Avenir-Light" font-size="46.4" fill="#FEFFFF" transform="matrix(1.00, 0.00, -0.00, -1.00, 295.0, 620.0)">e</text><text xml:space="preserve" font-family="Avenir-Light" font-size="46.4" fill="#FEFFFF" transform="matrix(1.00, 0.00, -0.00, -1.00, 320.8, 620.0)">m</text><text xml:space="preserve" font-family="Avenir-Light" font-size="46.4" fill="#FEFFFF" transform="matrix(1.00, 0.00, -0.00, -1.00, 360.3, 620.0)">p</text><text xml:space="preserve" font-family="Avenir-Light" font-size="46.4" fill="#FEFFFF" transform="matrix(1.00, 0.00, -0.00, -1.00, 388.7, 620.0)">o</text><text xml:space="preserve" font-family="Avenir-Light" font-size="46.4" fill="#FEFFFF" transform="matrix(1.00, 0.00, -0.00, -1.00, 416.3, 620.0)">w</text><text xml:space="preserve" font-family="Avenir-Light" font-size="46.4" fill="#FEFFFF" transform="matrix(1.00, 0.00, -0.00, -1.00, 448.9, 620.0)">e</text><text xml:space="preserve" font-family="Avenir-Light" font-size="46.4" fill="#FEFFFF" transform="matrix(1.00, 0.00, -0.00, -1.00, 474.7, 620.0)">r</text><text xml:space="preserve" font-family="Avenir-Light" font-size="46.4" fill="#FEFFFF" transform="matrix(1.00, 0.00, -0.00, -1.00, 489.3, 620.0)">e</text><text xml:space="preserve" font-family="Avenir-Light" font-size="46.4" fill="#FEFFFF" transform="matrix(1.00, 0.00, -0.00, -1.00, 515.2, 620.0)">d</text><text xml:space="preserve" font-family="Avenir-Light" font-size="46.4" fill="#FEFFFF" transform="matrix(1.00, 0.00, -0.00, -1.00, 543.5, 620.0)"> </text><text xml:space="preserve" font-family="Avenir-Light" font-size="46.4" fill="#FEFFFF" transform="matrix(1.00, 0.00, -0.00, -1.00, 555.6, 620.0)">t</text><text xml:space="preserve" font-family="Avenir-Light" font-size="46.4" fill="#FEFFFF" transform="matrix(1.00, 0.00, -0.00, -1.00, 571.0, 620.0)">o</text><text xml:space="preserve" font-family="Avenir-Light" font-size="46.4" fill="#FEFFFF" transform="matrix(1.00, 0.00, -0.00, -1.00, 598.6, 620.0)"> </text><text xml:space="preserve" font-family="Avenir-Light" font-size="46.4" fill="#FEFFFF" transform="matrix(1.00, 0.00, -0.00, -1.00, 610.7, 620.0)">t</text><text xml:space="preserve" font-family="Avenir-Light" font-size="46.4" fill="#FEFFFF" transform="matrix(1.00, 0.00, -0.00, -1.00, 626.1, 620.0)">r</text><text xml:space="preserve" font-family="Avenir-Light" font-size="46.4" fill="#FEFFFF" transform="matrix(1.00, 0.00, -0.00, -1.00, 641.6, 620.0)">a</text><text xml:space="preserve" font-family="Avenir-Light" font-size="46.4" fill="#FEFFFF" transform="matrix(1.00, 0.00, -0.00, -1.00, 665.7, 620.0)">n</text><text xml:space="preserve" font-family="Avenir-Light" font-size="46.4" fill="#FEFFFF" transform="matrix(1.00, 0.00, -0.00, -1.00, 691.5, 620.0)">s</text><text xml:space="preserve" font-family="Avenir-Light" font-size="46.4" fill="#FEFFFF" transform="matrix(1.00, 0.00, -0.00, -1.00, 711.2, 620.0)">f</text><text xml:space="preserve" font-family="Avenir-Light" font-size="46.4" fill="#FEFFFF" transform="matrix(1.00, 0.00, -0.00, -1.00, 725.0, 620.0)">o</text><text xml:space="preserve" font-family="Avenir-Light" font-size="46.4" fill="#FEFFFF" transform="matrix(1.00, 0.00, -0.00, -1.00, 752.5, 620.0)">r</text><text xml:space="preserve" font-family="Avenir-Light" font-size="46.4" fill="#FEFFFF" transform="matrix(1.00, 0.00, -0.00, -1.00, 768.0, 620.0)">m</text><text xml:space="preserve" font-family="Avenir-Light" font-size="46.4" fill="#FEFFFF" transform="matrix(1.00, 0.00, -0.00, -1.00, 807.5, 620.0)"> </text><text xml:space="preserve" font-family="Avenir-Light" font-size="46.4" fill="#FEFFFF" transform="matrix(1.00, 0.00, -0.00, -1.00, 117.0, 557.0)">m</text><text xml:space="preserve" font-family="Avenir-Light" font-size="46.4" fill="#FEFFFF" transform="matrix(1.00, 0.00, -0.00, -1.00, 156.5, 557.0)">y</text><text xml:space="preserve" font-family="Avenir-Light" font-size="46.4" fill="#FEFFFF" transform="matrix(1.00, 0.00, -0.00, -1.00, 178.0, 557.0)">s</text><text xml:space="preserve" font-family="Avenir-Light" font-size="46.4" fill="#FEFFFF" transform="matrix(1.00, 0.00, -0.00, -1.00, 197.8, 557.0)">e</text><text xml:space="preserve" font-family="Avenir-Light" font-size="46.4" fill="#FEFFFF" transform="matrix(1.00, 0.00, -0.00, -1.00, 223.6, 557.0)">l</text><text xml:space="preserve" font-family="Avenir-Light" font-size="46.4" fill="#FEFFFF" transform="matrix(1.00, 0.00, -0.00, -1.00, 234.8, 557.0)">f</text><text xml:space="preserve" font-family="Avenir-Light" font-size="46.4" fill="#FEFFFF" transform="matrix(1.00, 0.00, -0.00, -1.00, 248.5, 557.0)"> </text><text xml:space="preserve" font-family="Avenir-Light" font-size="46.4" fill="#FEFFFF" transform="matrix(1.00, 0.00, -0.00, -1.00, 260.6, 557.0)">a</text><text xml:space="preserve" font-family="Avenir-Light" font-size="46.4" fill="#FEFFFF" transform="matrix(1.00, 0.00, -0.00, -1.00, 284.7, 557.0)">n</text><text xml:space="preserve" font-family="Avenir-Light" font-size="46.4" fill="#FEFFFF" transform="matrix(1.00, 0.00, -0.00, -1.00, 310.5, 557.0)">d</text><text xml:space="preserve" font-family="Avenir-Light" font-size="46.4" fill="#FEFFFF" transform="matrix(1.00, 0.00, -0.00, -1.00, 338.8, 557.0)"> </text><text xml:space="preserve" font-family="Avenir-Light" font-size="46.4" fill="#FEFFFF" transform="matrix(1.00, 0.00, -0.00, -1.00, 350.9, 557.0)">a</text><text xml:space="preserve" font-family="Avenir-Light" font-size="46.4" fill="#FEFFFF" transform="matrix(1.00, 0.00, -0.00, -1.00, 375.0, 557.0)"> </text><text xml:space="preserve" font-family="Avenir-Light" font-size="46.4" fill="#FEFFFF" transform="matrix(1.00, 0.00, -0.00, -1.00, 387.1, 557.0)">c</text><text xml:space="preserve" font-family="Avenir-Light" font-size="46.4" fill="#FEFFFF" transform="matrix(1.00, 0.00, -0.00, -1.00, 409.4, 557.0)">o</text><text xml:space="preserve" font-family="Avenir-Light" font-size="46.4" fill="#FEFFFF" transform="matrix(1.00, 0.00, -0.00, -1.00, 437.0, 557.0)">m</text><text xml:space="preserve" font-family="Avenir-Light" font-size="46.4" fill="#FEFFFF" transform="matrix(1.00, 0.00, -0.00, -1.00, 476.5, 557.0)">m</text><text xml:space="preserve" font-family="Avenir-Light" font-size="46.4" fill="#FEFFFF" transform="matrix(1.00, 0.00, -0.00, -1.00, 516.0, 557.0)">u</text><text xml:space="preserve" font-family="Avenir-Light" font-size="46.4" fill="#FEFFFF" transform="matrix(1.00, 0.00, -0.00, -1.00, 541.8, 557.0)">n</text><text xml:space="preserve" font-family="Avenir-Light" font-size="46.4" fill="#FEFFFF" transform="matrix(1.00, 0.00, -0.00, -1.00, 567.6, 557.0)">i</text><text xml:space="preserve" font-family="Avenir-Light" font-size="46.4" fill="#FEFFFF" transform="matrix(1.00, 0.00, -0.00, -1.00, 578.8, 557.0)">t</text><text xml:space="preserve" font-family="Avenir-Light" font-size="46.4" fill="#FEFFFF" transform="matrix(1.00, 0.00, -0.00, -1.00, 594.2, 557.0)">y</text><text xml:space="preserve" font-family="Avenir-Light" font-size="46.4" fill="#FEFFFF" transform="matrix(1.00, 0.00, -0.00, -1.00, 611.5, 557.0)">.</text><text xml:space="preserve" font-family="Avenir-Light" font-size="46.4" fill="#FEFFFF" transform="matrix(1.00, 0.00, -0.00, -1.00, 623.5, 557.0)"> </text><text xml:space="preserve" font-family="Avenir-Light" font-size="46.4" fill="#FEFFFF" transform="matrix(1.00, 0.00, -0.00, -1.00, 635.6, 557.0)"> </text><text xml:space="preserve" font-family="Avenir-Light" font-size="46.4" fill="#FEFFFF" transform="matrix(1.00, 0.00, -0.00, -1.00, 647.7, 557.0)">I</text><text xml:space="preserve" font-family="Avenir-Light" font-size="46.4" fill="#FEFFFF" transform="matrix(1.00, 0.00, -0.00, -1.00, 659.7, 557.0)"> </text><text xml:space="preserve" font-family="Avenir-Light" font-size="46.4" fill="#FEFFFF" transform="matrix(1.00, 0.00, -0.00, -1.00, 671.8, 557.0)">h</text><text xml:space="preserve" font-family="Avenir-Light" font-size="46.4" fill="#FEFFFF" transform="matrix(1.00, 0.00, -0.00, -1.00, 697.6, 557.0)">o</text><text xml:space="preserve" font-family="Avenir-Light" font-size="46.4" fill="#FEFFFF" transform="matrix(1.00, 0.00, -0.00, -1.00, 725.2, 557.0)">p</text><text xml:space="preserve" font-family="Avenir-Light" font-size="46.4" fill="#FEFFFF" transform="matrix(1.00, 0.00, -0.00, -1.00, 753.5, 557.0)">e</text><text xml:space="preserve" font-family="Avenir-Light" font-size="46.4" fill="#FEFFFF" transform="matrix(1.00, 0.00, -0.00, -1.00, 779.3, 557.0)"> </text><text xml:space="preserve" font-family="Avenir-Light" font-size="46.4" fill="#FEFFFF" transform="matrix(1.00, 0.00, -0.00, -1.00, 117.0, 494.0)">y</text><text xml:space="preserve" font-family="Avenir-Light" font-size="46.4" fill="#FEFFFF" transform="matrix(1.00, 0.00, -0.00, -1.00, 138.5, 494.0)">o</text><text xml:space="preserve" font-family="Avenir-Light" font-size="46.4" fill="#FEFFFF" transform="matrix(1.00, 0.00, -0.00, -1.00, 166.1, 494.0)">u</text><text xml:space="preserve" font-family="Avenir-Light" font-size="46.4" fill="#FEFFFF" transform="matrix(1.00, 0.00, -0.00, -1.00, 191.9, 494.0)"> </text><text xml:space="preserve" font-family="Avenir-Light" font-size="46.4" fill="#FEFFFF" transform="matrix(1.00, 0.00, -0.00, -1.00, 203.9, 494.0)">w</text><text xml:space="preserve" font-family="Avenir-Light" font-size="46.4" fill="#FEFFFF" transform="matrix(1.00, 0.00, -0.00, -1.00, 236.6, 494.0)">i</text><text xml:space="preserve" font-family="Avenir-Light" font-size="46.4" fill="#FEFFFF" transform="matrix(1.00, 0.00, -0.00, -1.00, 247.7, 494.0)">l</text><text xml:space="preserve" font-family="Avenir-Light" font-size="46.4" fill="#FEFFFF" transform="matrix(1.00, 0.00, -0.00, -1.00, 258.9, 494.0)">l</text><text xml:space="preserve" font-family="Avenir-Light" font-size="46.4" fill="#FEFFFF" transform="matrix(1.00, 0.00, -0.00, -1.00, 270.1, 494.0)"> </text><text xml:space="preserve" font-family="Avenir-Light" font-size="46.4" fill="#FEFFFF" transform="matrix(1.00, 0.00, -0.00, -1.00, 282.1, 494.0)">t</text><text xml:space="preserve" font-family="Avenir-Light" font-size="46.4" fill="#FEFFFF" transform="matrix(1.00, 0.00, -0.00, -1.00, 297.6, 494.0)">a</text><text xml:space="preserve" font-family="Avenir-Light" font-size="46.4" fill="#FEFFFF" transform="matrix(1.00, 0.00, -0.00, -1.00, 321.7, 494.0)">k</text><text xml:space="preserve" font-family="Avenir-Light" font-size="46.4" fill="#FEFFFF" transform="matrix(1.00, 0.00, -0.00, -1.00, 344.0, 494.0)">e</text><text xml:space="preserve" font-family="Avenir-Light" font-size="46.4" fill="#FEFFFF" transform="matrix(1.00, 0.00, -0.00, -1.00, 369.8, 494.0)"> </text><text xml:space="preserve" font-family="Avenir-Light" font-size="46.4" fill="#FEFFFF" transform="matrix(1.00, 0.00, -0.00, -1.00, 381.9, 494.0)">a</text><text xml:space="preserve" font-family="Avenir-Light" font-size="46.4" fill="#FEFFFF" transform="matrix(1.00, 0.00, -0.00, -1.00, 405.9, 494.0)"> </text><text xml:space="preserve" font-family="Avenir-Light" font-size="46.4" fill="#FEFFFF" transform="matrix(1.00, 0.00, -0.00, -1.00, 418.0, 494.0)">s</text><text xml:space="preserve" font-family="Avenir-Light" font-size="46.4" fill="#FEFFFF" transform="matrix(1.00, 0.00, -0.00, -1.00, 437.8, 494.0)">t</text><text xml:space="preserve" font-family="Avenir-Light" font-size="46.4" fill="#FEFFFF" transform="matrix(1.00, 0.00, -0.00, -1.00, 453.2, 494.0)">e</text><text xml:space="preserve" font-family="Avenir-Light" font-size="46.4" fill="#FEFFFF" transform="matrix(1.00, 0.00, -0.00, -1.00, 479.0, 494.0)">p</text><text xml:space="preserve" font-family="Avenir-Light" font-size="46.4" fill="#FEFFFF" transform="matrix(1.00, 0.00, -0.00, -1.00, 507.4, 494.0)"> </text><text xml:space="preserve" font-family="Avenir-Light" font-size="46.4" fill="#FEFFFF" transform="matrix(1.00, 0.00, -0.00, -1.00, 519.5, 494.0)">t</text><text xml:space="preserve" font-family="Avenir-Light" font-size="46.4" fill="#FEFFFF" transform="matrix(1.00, 0.00, -0.00, -1.00, 534.9, 494.0)">o</text><text xml:space="preserve" font-family="Avenir-Light" font-size="46.4" fill="#FEFFFF" transform="matrix(1.00, 0.00, -0.00, -1.00, 562.5, 494.0)"> </text><text xml:space="preserve" font-family="Avenir-Light" font-size="46.4" fill="#FEFFFF" transform="matrix(1.00, 0.00, -0.00, -1.00, 574.6, 494.0)">h</text><text xml:space="preserve" font-family="Avenir-Light" font-size="46.4" fill="#FEFFFF" transform="matrix(1.00, 0.00, -0.00, -1.00, 600.4, 494.0)">e</text><text xml:space="preserve" font-family="Avenir-Light" font-size="46.4" fill="#FEFFFF" transform="matrix(1.00, 0.00, -0.00, -1.00, 626.2, 494.0)">l</text><text xml:space="preserve" font-family="Avenir-Light" font-size="46.4" fill="#FEFFFF" transform="matrix(1.00, 0.00, -0.00, -1.00, 637.3, 494.0)">p</text><text xml:space="preserve" font-family="Avenir-Light" font-size="46.4" fill="#FEFFFF" transform="matrix(1.00, 0.00, -0.00, -1.00, 665.7, 494.0)"> </text><text xml:space="preserve" font-family="Avenir-Light" font-size="46.4" fill="#FEFFFF" transform="matrix(1.00, 0.00, -0.00, -1.00, 677.7, 494.0)">y</text><text xml:space="preserve" font-family="Avenir-Light" font-size="46.4" fill="#FEFFFF" transform="matrix(1.00, 0.00, -0.00, -1.00, 699.2, 494.0)">o</text><text xml:space="preserve" font-family="Avenir-Light" font-size="46.4" fill="#FEFFFF" transform="matrix(1.00, 0.00, -0.00, -1.00, 726.8, 494.0)">u</text><text xml:space="preserve" font-family="Avenir-Light" font-size="46.4" fill="#FEFFFF" transform="matrix(1.00, 0.00, -0.00, -1.00, 752.6, 494.0)">t</text><text xml:space="preserve" font-family="Avenir-Light" font-size="46.4" fill="#FEFFFF" transform="matrix(1.00, 0.00, -0.00, -1.00, 768.1, 494.0)">h</text><text xml:space="preserve" font-family="Avenir-Light" font-size="46.4" fill="#FEFFFF" transform="matrix(1.00, 0.00, -0.00, -1.00, 793.9, 494.0)"> </text><text xml:space="preserve" font-family="Avenir-Light" font-size="46.4" fill="#FEFFFF" transform="matrix(1.00, 0.00, -0.00, -1.00, 117.0, 431.0)">l</text><text xml:space="preserve" font-family="Avenir-Light" font-size="46.4" fill="#FEFFFF" transform="matrix(1.00, 0.00, -0.00, -1.00, 128.2, 431.0)">i</text><text xml:space="preserve" font-family="Avenir-Light" font-size="46.4" fill="#FEFFFF" transform="matrix(1.00, 0.00, -0.00, -1.00, 139.3, 431.0)">k</text><text xml:space="preserve" font-family="Avenir-Light" font-size="46.4" fill="#FEFFFF" transform="matrix(1.00, 0.00, -0.00, -1.00, 161.6, 431.0)">e</text><text xml:space="preserve" font-family="Avenir-Light" font-size="46.4" fill="#FEFFFF" transform="matrix(1.00, 0.00, -0.00, -1.00, 187.5, 431.0)"> </text><text xml:space="preserve" font-family="Avenir-Light" font-size="46.4" fill="#FEFFFF" transform="matrix(1.00, 0.00, -0.00, -1.00, 199.5, 431.0)">m</text><text xml:space="preserve" font-family="Avenir-Light" font-size="46.4" fill="#FEFFFF" transform="matrix(1.00, 0.00, -0.00, -1.00, 239.1, 431.0)">e</text><text xml:space="preserve" font-family="Avenir-Light" font-size="46.4" fill="#FEFFFF" transform="matrix(1.00, 0.00, -0.00, -1.00, 264.9, 431.0)"> </text><text xml:space="preserve" font-family="Avenir-Light" font-size="46.4" fill="#FEFFFF" transform="matrix(1.00, 0.00, -0.00, -1.00, 276.9, 431.0)">f</text><text xml:space="preserve" font-family="Avenir-Light" font-size="46.4" fill="#FEFFFF" transform="matrix(1.00, 0.00, -0.00, -1.00, 290.7, 431.0)">e</text><text xml:space="preserve" font-family="Avenir-Light" font-size="46.4" fill="#FEFFFF" transform="matrix(1.00, 0.00, -0.00, -1.00, 316.5, 431.0)">e</text><text xml:space="preserve" font-family="Avenir-Light" font-size="46.4" fill="#FEFFFF" transform="matrix(1.00, 0.00, -0.00, -1.00, 342.3, 431.0)">l</text><text xml:space="preserve" font-family="Avenir-Light" font-size="46.4" fill="#FEFFFF" transform="matrix(1.00, 0.00, -0.00, -1.00, 353.4, 431.0)"> </text><text xml:space="preserve" font-family="Avenir-Light" font-size="46.4" fill="#FEFFFF" transform="matrix(1.00, 0.00, -0.00, -1.00, 365.5, 431.0)">e</text><text xml:space="preserve" font-family="Avenir-Light" font-size="46.4" fill="#FEFFFF" transform="matrix(1.00, 0.00, -0.00, -1.00, 391.3, 431.0)">m</text><text xml:space="preserve" font-family="Avenir-Light" font-size="46.4" fill="#FEFFFF" transform="matrix(1.00, 0.00, -0.00, -1.00, 430.8, 431.0)">p</text><text xml:space="preserve" font-family="Avenir-Light" font-size="46.4" fill="#FEFFFF" transform="matrix(1.00, 0.00, -0.00, -1.00, 459.2, 431.0)">o</text><text xml:space="preserve" font-family="Avenir-Light" font-size="46.4" fill="#FEFFFF" transform="matrix(1.00, 0.00, -0.00, -1.00, 486.7, 431.0)">w</text><text xml:space="preserve" font-family="Avenir-Light" font-size="46.4" fill="#FEFFFF" transform="matrix(1.00, 0.00, -0.00, -1.00, 519.4, 431.0)">e</text><text xml:space="preserve" font-family="Avenir-Light" font-size="46.4" fill="#FEFFFF" transform="matrix(1.00, 0.00, -0.00, -1.00, 545.2, 431.0)">r</text><text xml:space="preserve" font-family="Avenir-Light" font-size="46.4" fill="#FEFFFF" transform="matrix(1.00, 0.00, -0.00, -1.00, 559.8, 431.0)">e</text><text xml:space="preserve" font-family="Avenir-Light" font-size="46.4" fill="#FEFFFF" transform="matrix(1.00, 0.00, -0.00, -1.00, 585.6, 431.0)">d</text><text xml:space="preserve" font-family="Avenir-Light" font-size="46.4" fill="#FEFFFF" transform="matrix(1.00, 0.00, -0.00, -1.00, 614.0, 431.0)"> </text><text xml:space="preserve" font-family="Avenir-Light" font-size="46.4" fill="#FEFFFF" transform="matrix(1.00, 0.00, -0.00, -1.00, 626.1, 431.0)">a</text><text xml:space="preserve" font-family="Avenir-Light" font-size="46.4" fill="#FEFFFF" transform="matrix(1.00, 0.00, -0.00, -1.00, 650.2, 431.0)">n</text><text xml:space="preserve" font-family="Avenir-Light" font-size="46.4" fill="#FEFFFF" transform="matrix(1.00, 0.00, -0.00, -1.00, 676.0, 431.0)">d</text><text xml:space="preserve" font-family="Avenir-Light" font-size="46.4" fill="#FEFFFF" transform="matrix(1.00, 0.00, -0.00, -1.00, 704.3, 431.0)"> </text><text xml:space="preserve" font-family="Avenir-Light" font-size="46.4" fill="#FEFFFF" transform="matrix(1.00, 0.00, -0.00, -1.00, 117.0, 368.0)">t</text><text xml:space="preserve" font-family="Avenir-Light" font-size="46.4" fill="#FEFFFF" transform="matrix(1.00, 0.00, -0.00, -1.00, 132.5, 368.0)">r</text><text xml:space="preserve" font-family="Avenir-Light" font-size="46.4" fill="#FEFFFF" transform="matrix(1.00, 0.00, -0.00, -1.00, 147.9, 368.0)">a</text><text xml:space="preserve" font-family="Avenir-Light" font-size="46.4" fill="#FEFFFF" transform="matrix(1.00, 0.00, -0.00, -1.00, 172.0, 368.0)">n</text><text xml:space="preserve" font-family="Avenir-Light" font-size="46.4" fill="#FEFFFF" transform="matrix(1.00, 0.00, -0.00, -1.00, 197.8, 368.0)">s</text><text xml:space="preserve" font-family="Avenir-Light" font-size="46.4" fill="#FEFFFF" transform="matrix(1.00, 0.00, -0.00, -1.00, 217.6, 368.0)">f</text><text xml:space="preserve" font-family="Avenir-Light" font-size="46.4" fill="#FEFFFF" transform="matrix(1.00, 0.00, -0.00, -1.00, 231.3, 368.0)">o</text><text xml:space="preserve" font-family="Avenir-Light" font-size="46.4" fill="#FEFFFF" transform="matrix(1.00, 0.00, -0.00, -1.00, 258.9, 368.0)">r</text><text xml:space="preserve" font-family="Avenir-Light" font-size="46.4" fill="#FEFFFF" transform="matrix(1.00, 0.00, -0.00, -1.00, 274.3, 368.0)">m</text><text xml:space="preserve" font-family="Avenir-Light" font-size="46.4" fill="#FEFFFF" transform="matrix(1.00, 0.00, -0.00, -1.00, 313.9, 368.0)">e</text><text xml:space="preserve" font-family="Avenir-Light" font-size="46.4" fill="#FEFFFF" transform="matrix(1.00, 0.00, -0.00, -1.00, 339.7, 368.0)">d</text><text xml:space="preserve" font-family="Avenir-Light" font-size="46.4" fill="#FEFFFF" transform="matrix(1.00, 0.00, -0.00, -1.00, 368.0, 368.0)"> </text><text xml:space="preserve" font-family="Avenir-Light" font-size="46.4" fill="#FEFFFF" transform="matrix(1.00, 0.00, -0.00, -1.00, 380.1, 368.0)">t</text><text xml:space="preserve" font-family="Avenir-Light" font-size="46.4" fill="#FEFFFF" transform="matrix(1.00, 0.00, -0.00, -1.00, 395.6, 368.0)">o</text><text xml:space="preserve" font-family="Avenir-Light" font-size="46.4" fill="#FEFFFF" transform="matrix(1.00, 0.00, -0.00, -1.00, 423.1, 368.0)"> </text><text xml:space="preserve" font-family="Avenir-Light" font-size="46.4" fill="#FEFFFF" transform="matrix(1.00, 0.00, -0.00, -1.00, 435.2, 368.0)">h</text><text xml:space="preserve" font-family="Avenir-Light" font-size="46.4" fill="#FEFFFF" transform="matrix(1.00, 0.00, -0.00, -1.00, 461.0, 368.0)">a</text><text xml:space="preserve" font-family="Avenir-Light" font-size="46.4" fill="#FEFFFF" transform="matrix(1.00, 0.00, -0.00, -1.00, 485.1, 368.0)">v</text><text xml:space="preserve" font-family="Avenir-Light" font-size="46.4" fill="#FEFFFF" transform="matrix(1.00, 0.00, -0.00, -1.00, 506.6, 368.0)">e</text><text xml:space="preserve" font-family="Avenir-Light" font-size="46.4" fill="#FEFFFF" transform="matrix(1.00, 0.00, -0.00, -1.00, 532.4, 368.0)"> </text><text xml:space="preserve" font-family="Avenir-Light" font-size="46.4" fill="#FEFFFF" transform="matrix(1.00, 0.00, -0.00, -1.00, 544.4, 368.0)">s</text><text xml:space="preserve" font-family="Avenir-Light" font-size="46.4" fill="#FEFFFF" transform="matrix(1.00, 0.00, -0.00, -1.00, 564.2, 368.0)">o</text><text xml:space="preserve" font-family="Avenir-Light" font-size="46.4" fill="#FEFFFF" transform="matrix(1.00, 0.00, -0.00, -1.00, 591.8, 368.0)">c</text><text xml:space="preserve" font-family="Avenir-Light" font-size="46.4" fill="#FEFFFF" transform="matrix(1.00, 0.00, -0.00, -1.00, 614.1, 368.0)">i</text><text xml:space="preserve" font-family="Avenir-Light" font-size="46.4" fill="#FEFFFF" transform="matrix(1.00, 0.00, -0.00, -1.00, 625.2, 368.0)">a</text><text xml:space="preserve" font-family="Avenir-Light" font-size="46.4" fill="#FEFFFF" transform="matrix(1.00, 0.00, -0.00, -1.00, 649.3, 368.0)">l</text><text xml:space="preserve" font-family="Avenir-Light" font-size="46.4" fill="#FEFFFF" transform="matrix(1.00, 0.00, -0.00, -1.00, 660.5, 368.0)"> </text><text xml:space="preserve" font-family="Avenir-Light" font-size="46.4" fill="#FEFFFF" transform="matrix(1.00, 0.00, -0.00, -1.00, 672.5, 368.0)">i</text><text xml:space="preserve" font-family="Avenir-Light" font-size="46.4" fill="#FEFFFF" transform="matrix(1.00, 0.00, -0.00, -1.00, 683.7, 368.0)">m</text><text xml:space="preserve" font-family="Avenir-Light" font-size="46.4" fill="#FEFFFF" transform="matrix(1.00, 0.00, -0.00, -1.00, 723.2, 368.0)">p</text><text xml:space="preserve" font-family="Avenir-Light" font-size="46.4" fill="#FEFFFF" transform="matrix(1.00, 0.00, -0.00, -1.00, 751.6, 368.0)">a</text><text xml:space="preserve" font-family="Avenir-Light" font-size="46.4" fill="#FEFFFF" transform="matrix(1.00, 0.00, -0.00, -1.00, 775.7, 368.0)">c</text><text xml:space="preserve" font-family="Avenir-Light" font-size="46.4" fill="#FEFFFF" transform="matrix(1.00, 0.00, -0.00, -1.00, 798.0, 368.0)">t</text><text xml:space="preserve" font-family="Avenir-Light" font-size="46.4" fill="#FEFFFF" transform="matrix(1.00, 0.00, -0.00, -1.00, 813.4, 368.0)"> </text><text xml:space="preserve" font-family="Avenir-Light" font-size="46.4" fill="#FEFFFF" transform="matrix(1.00, 0.00, -0.00, -1.00, 117.0, 305.0)">i</text><text xml:space="preserve" font-family="Avenir-Light" font-size="46.4" fill="#FEFFFF" transform="matrix(1.00, 0.00, -0.00, -1.00, 128.1, 305.0)">n</text><text xml:space="preserve" font-family="Avenir-Light" font-size="46.4" fill="#FEFFFF" transform="matrix(1.00, 0.00, -0.00, -1.00, 153.9, 305.0)"> </text><text xml:space="preserve" font-family="Avenir-Light" font-size="46.4" fill="#FEFFFF" transform="matrix(1.00, 0.00, -0.00, -1.00, 166.0, 305.0)">c</text><text xml:space="preserve" font-family="Avenir-Light" font-size="46.4" fill="#FEFFFF" transform="matrix(1.00, 0.00, -0.00, -1.00, 188.3, 305.0)">o</text><text xml:space="preserve" font-family="Avenir-Light" font-size="46.4" fill="#FEFFFF" transform="matrix(1.00, 0.00, -0.00, -1.00, 215.9, 305.0)">m</text><text xml:space="preserve" font-family="Avenir-Light" font-size="46.4" fill="#FEFFFF" transform="matrix(1.00, 0.00, -0.00, -1.00, 255.4, 305.0)">m</text><text xml:space="preserve" font-family="Avenir-Light" font-size="46.4" fill="#FEFFFF" transform="matrix(1.00, 0.00, -0.00, -1.00, 295.0, 305.0)">u</text><text xml:space="preserve" font-family="Avenir-Light" font-size="46.4" fill="#FEFFFF" transform="matrix(1.00, 0.00, -0.00, -1.00, 320.8, 305.0)">n</text><text xml:space="preserve" font-family="Avenir-Light" font-size="46.4" fill="#FEFFFF" transform="matrix(1.00, 0.00, -0.00, -1.00, 346.6, 305.0)">i</text><text xml:space="preserve" font-family="Avenir-Light" font-size="46.4" fill="#FEFFFF" transform="matrix(1.00, 0.00, -0.00, -1.00, 357.7, 305.0)">t</text><text xml:space="preserve" font-family="Avenir-Light" font-size="46.4" fill="#FEFFFF" transform="matrix(1.00, 0.00, -0.00, -1.00, 373.2, 305.0)">i</text><text xml:space="preserve" font-family="Avenir-Light" font-size="46.4" fill="#FEFFFF" transform="matrix(1.00, 0.00, -0.00, -1.00, 384.4, 305.0)">e</text><text xml:space="preserve" font-family="Avenir-Light" font-size="46.4" fill="#FEFFFF" transform="matrix(1.00, 0.00, -0.00, -1.00, 410.2, 305.0)">s</text><text xml:space="preserve" font-family="Avenir-Light" font-size="46.4" fill="#FEFFFF" transform="matrix(1.00, 0.00, -0.00, -1.00, 429.9, 305.0)"> </text><text xml:space="preserve" font-family="Avenir-Light" font-size="46.4" fill="#FEFFFF" transform="matrix(1.00, 0.00, -0.00, -1.00, 442.0, 305.0)">a</text><text xml:space="preserve" font-family="Avenir-Light" font-size="46.4" fill="#FEFFFF" transform="matrix(1.00, 0.00, -0.00, -1.00, 466.1, 305.0)">l</text><text xml:space="preserve" font-family="Avenir-Light" font-size="46.4" fill="#FEFFFF" transform="matrix(1.00, 0.00, -0.00, -1.00, 477.3, 305.0)">l</text><text xml:space="preserve" font-family="Avenir-Light" font-size="46.4" fill="#FEFFFF" transform="matrix(1.00, 0.00, -0.00, -1.00, 488.4, 305.0)"> </text><text xml:space="preserve" font-family="Avenir-Light" font-size="46.4" fill="#FEFFFF" transform="matrix(1.00, 0.00, -0.00, -1.00, 500.5, 305.0)">o</text><text xml:space="preserve" font-family="Avenir-Light" font-size="46.4" fill="#FEFFFF" transform="matrix(1.00, 0.00, -0.00, -1.00, 528.1, 305.0)">v</text><text xml:space="preserve" font-family="Avenir-Light" font-size="46.4" fill="#FEFFFF" transform="matrix(1.00, 0.00, -0.00, -1.00, 549.5, 305.0)">e</text><text xml:space="preserve" font-family="Avenir-Light" font-size="46.4" fill="#FEFFFF" transform="matrix(1.00, 0.00, -0.00, -1.00, 575.3, 305.0)">r</text><text xml:space="preserve" font-family="Avenir-Light" font-size="46.4" fill="#FEFFFF" transform="matrix(1.00, 0.00, -0.00, -1.00, 590.8, 305.0)"> </text><text xml:space="preserve" font-family="Avenir-Light" font-size="46.4" fill="#FEFFFF" transform="matrix(1.00, 0.00, -0.00, -1.00, 602.9, 305.0)">t</text><text xml:space="preserve" font-family="Avenir-Light" font-size="46.4" fill="#FEFFFF" transform="matrix(1.00, 0.00, -0.00, -1.00, 618.4, 305.0)">h</text><text xml:space="preserve" font-family="Avenir-Light" font-size="46.4" fill="#FEFFFF" transform="matrix(1.00, 0.00, -0.00, -1.00, 644.2, 305.0)">e</text><text xml:space="preserve" font-family="Avenir-Light" font-size="46.4" fill="#FEFFFF" transform="matrix(1.00, 0.00, -0.00, -1.00, 670.0, 305.0)"> </text><text xml:space="preserve" font-family="Avenir-Light" font-size="46.4" fill="#FEFFFF" transform="matrix(1.00, 0.00, -0.00, -1.00, 682.0, 305.0)">S</text><text xml:space="preserve" font-family="Avenir-Light" font-size="46.4" fill="#FEFFFF" transform="matrix(1.00, 0.00, -0.00, -1.00, 707.8, 305.0)">a</text><text xml:space="preserve" font-family="Avenir-Light" font-size="46.4" fill="#FEFFFF" transform="matrix(1.00, 0.00, -0.00, -1.00, 731.9, 305.0)">n</text><text xml:space="preserve" font-family="Avenir-Light" font-size="46.4" fill="#FEFFFF" transform="matrix(1.00, 0.00, -0.00, -1.00, 757.7, 305.0)"> </text><text xml:space="preserve" font-family="Avenir-Light" font-size="46.4" fill="#FEFFFF" transform="matrix(1.00, 0.00, -0.00, -1.00, 117.0, 242.0)">F</text><text xml:space="preserve" font-family="Avenir-Light" font-size="46.4" fill="#FEFFFF" transform="matrix(1.00, 0.00, -0.00, -1.00, 142.8, 242.0)">r</text><text xml:space="preserve" font-family="Avenir-Light" font-size="46.4" fill="#FEFFFF" transform="matrix(1.00, 0.00, -0.00, -1.00, 158.3, 242.0)">a</text><text xml:space="preserve" font-family="Avenir-Light" font-size="46.4" fill="#FEFFFF" transform="matrix(1.00, 0.00, -0.00, -1.00, 182.3, 242.0)">n</text><text xml:space="preserve" font-family="Avenir-Light" font-size="46.4" fill="#FEFFFF" transform="matrix(1.00, 0.00, -0.00, -1.00, 208.1, 242.0)">s</text><text xml:space="preserve" font-family="Avenir-Light" font-size="46.4" fill="#FEFFFF" transform="matrix(1.00, 0.00, -0.00, -1.00, 227.9, 242.0)">i</text><text xml:space="preserve" font-family="Avenir-Light" font-size="46.4" fill="#FEFFFF" transform="matrix(1.00, 0.00, -0.00, -1.00, 239.1, 242.0)">s</text><text xml:space="preserve" font-family="Avenir-Light" font-size="46.4" fill="#FEFFFF" transform="matrix(1.00, 0.00, -0.00, -1.00, 258.8, 242.0)">c</text><text xml:space="preserve" font-family="Avenir-Light" font-size="46.4" fill="#FEFFFF" transform="matrix(1.00, 0.00, -0.00, -1.00, 281.2, 242.0)">o</text><text xml:space="preserve" font-family="Avenir-Light" font-size="46.4" fill="#FEFFFF" transform="matrix(1.00, 0.00, -0.00, -1.00, 308.7, 242.0)"> </text><text xml:space="preserve" font-family="Avenir-Light" font-size="46.4" fill="#FEFFFF" transform="matrix(1.00, 0.00, -0.00, -1.00, 320.8, 242.0)">B</text><text xml:space="preserve" font-family="Avenir-Light" font-size="46.4" fill="#FEFFFF" transform="matrix(1.00, 0.00, -0.00, -1.00, 350.0, 242.0)">a</text><text xml:space="preserve" font-family="Avenir-Light" font-size="46.4" fill="#FEFFFF" transform="matrix(1.00, 0.00, -0.00, -1.00, 374.1, 242.0)">y</text><text xml:space="preserve" font-family="Avenir-Light" font-size="46.4" fill="#FEFFFF" transform="matrix(1.00, 0.00, -0.00, -1.00, 395.6, 242.0)"> </text><text xml:space="preserve" font-family="Avenir-Light" font-size="46.4" fill="#FEFFFF" transform="matrix(1.00, 0.00, -0.00, -1.00, 407.7, 242.0)">A</text><text xml:space="preserve" font-family="Avenir-Light" font-size="46.4" fill="#FEFFFF" transform="matrix(1.00, 0.00, -0.00, -1.00, 439.5, 242.0)">r</text><text xml:space="preserve" font-family="Avenir-Light" font-size="46.4" fill="#FEFFFF" transform="matrix(1.00, 0.00, -0.00, -1.00, 454.1, 242.0)">e</text><text xml:space="preserve" font-family="Avenir-Light" font-size="46.4" fill="#FEFFFF" transform="matrix(1.00, 0.00, -0.00, -1.00, 479.9, 242.0)">a</text><text xml:space="preserve" font-family="Avenir-Light" font-size="46.4" fill="#FEFFFF" transform="matrix(1.00, 0.00, -0.00, -1.00, 504.0, 242.0)"> </text><text xml:space="preserve" font-family="Avenir-Light" font-size="46.4" fill="#FEFFFF" transform="matrix(1.00, 0.00, -0.00, -1.00, 516.0, 242.0)">a</text><text xml:space="preserve" font-family="Avenir-Light" font-size="46.4" fill="#FEFFFF" transform="matrix(1.00, 0.00, -0.00, -1.00, 540.1, 242.0)">n</text><text xml:space="preserve" font-family="Avenir-Light" font-size="46.4" fill="#FEFFFF" transform="matrix(1.00, 0.00, -0.00, -1.00, 565.9, 242.0)">d</text><text xml:space="preserve" font-family="Avenir-Light" font-size="46.4" fill="#FEFFFF" transform="matrix(1.00, 0.00, -0.00, -1.00, 594.3, 242.0)"> </text><text xml:space="preserve" font-family="Avenir-Light" font-size="46.4" fill="#FEFFFF" transform="matrix(1.00, 0.00, -0.00, -1.00, 606.3, 242.0)">b</text><text xml:space="preserve" font-family="Avenir-Light" font-size="46.4" fill="#FEFFFF" transform="matrix(1.00, 0.00, -0.00, -1.00, 634.7, 242.0)">e</text><text xml:space="preserve" font-family="Avenir-Light" font-size="46.4" fill="#FEFFFF" transform="matrix(1.00, 0.00, -0.00, -1.00, 660.5, 242.0)">y</text><text xml:space="preserve" font-family="Avenir-Light" font-size="46.4" fill="#FEFFFF" transform="matrix(1.00, 0.00, -0.00, -1.00, 682.0, 242.0)">o</text><text xml:space="preserve" font-family="Avenir-Light" font-size="46.4" fill="#FEFFFF" transform="matrix(1.00, 0.00, -0.00, -1.00, 709.6, 242.0)">n</text><text xml:space="preserve" font-family="Avenir-Light" font-size="46.4" fill="#FEFFFF" transform="matrix(1.00, 0.00, -0.00, -1.00, 735.4, 242.0)">d</text><text xml:space="preserve" font-family="Avenir-Light" font-size="46.4" fill="#FEFFFF" transform="matrix(1.00, 0.00, -0.00, -1.00, 763.7, 242.0)">.</text></g></svg>